<?xml version="1.0" encoding="UTF-8"?>
<!DOCTYPE svg PUBLIC "-//W3C//DTD SVG 1.1//EN" "http://www.w3.org/Graphics/SVG/1.1/DTD/svg11.dtd">
<svg xmlns="http://www.w3.org/2000/svg" version="1.1" width="167px" height="168px" style="shape-rendering:geometricPrecision; text-rendering:geometricPrecision; image-rendering:optimizeQuality; fill-rule:evenodd; clip-rule:evenodd" xmlns:xlink="http://www.w3.org/1999/xlink">
<g><path style="opacity:1" fill="#242233" d="M -0.5,-0.5 C 55.1667,-0.5 110.833,-0.5 166.5,-0.5C 166.5,55.5 166.5,111.5 166.5,167.5C 110.833,167.5 55.1667,167.5 -0.5,167.5C -0.5,111.5 -0.5,55.5 -0.5,-0.5 Z"/></g>
<g><path style="opacity:1" fill="#df8f29" d="M 70.5,3.5 C 110.679,0.327277 139.513,16.6606 157,52.5C 168.751,87.2309 161.584,117.398 135.5,143C 102.482,167.78 68.8157,168.78 34.5,146C 5.99258,120.784 -2.50742,89.9503 9,53.5C 21.0306,26.2563 41.5306,9.58963 70.5,3.5 Z"/></g>
<g><path style="opacity:1" fill="#232233" d="M 70.5,9.5 C 107.5,6.07916 134.333,20.7458 151,53.5C 162.72,87.6626 155.22,116.829 128.5,141C 91.8273,164.513 57.9939,161.013 27,130.5C 4.60219,99.9439 3.93553,68.9439 25,37.5C 37.0267,22.9108 52.1934,13.5774 70.5,9.5 Z"/></g>
<g><path style="opacity:1" fill="#de8e29" d="M 56.5,79.5 C 56.169,87.5277 56.5023,95.5277 57.5,103.5C 58.1067,103.376 58.44,103.043 58.5,102.5C 73.2982,87.2015 88.2982,72.0348 103.5,57C 106.462,56.9099 108.796,58.2432 110.5,61C 94.5,77 78.5,93 62.5,109C 70.8333,109.333 79.1667,109.667 87.5,110C 90.1667,112 90.1667,114 87.5,116C 75.5,116.667 63.5,116.667 51.5,116C 51,115.5 50.5,115 50,114.5C 49.3333,102.5 49.3333,90.5 50,78.5C 52.5515,76.9797 54.7182,77.3131 56.5,79.5 Z"/></g>
<g><path style="opacity:1" fill="#6d4d2f" d="M 56.5,79.5 C 57.1667,87.1667 57.8333,94.8333 58.5,102.5C 58.44,103.043 58.1067,103.376 57.5,103.5C 56.5023,95.5277 56.169,87.5277 56.5,79.5 Z"/></g>
</svg>
