<?xml version="1.0" encoding="UTF-8"?>
<!DOCTYPE svg PUBLIC "-//W3C//DTD SVG 1.1//EN" "http://www.w3.org/Graphics/SVG/1.1/DTD/svg11.dtd">
<svg xmlns="http://www.w3.org/2000/svg" version="1.1" width="167px" height="168px" style="shape-rendering:geometricPrecision; text-rendering:geometricPrecision; image-rendering:optimizeQuality; fill-rule:evenodd; clip-rule:evenodd" xmlns:xlink="http://www.w3.org/1999/xlink">
<g><path style="opacity:1" fill="#242233" d="M -0.5,-0.5 C 55.1667,-0.5 110.833,-0.5 166.5,-0.5C 166.5,55.5 166.5,111.5 166.5,167.5C 110.833,167.5 55.1667,167.5 -0.5,167.5C -0.5,111.5 -0.5,55.5 -0.5,-0.5 Z"/></g>
<g><path style="opacity:1" fill="#df8f29" d="M 73.5,4.5 C 107.477,2.96405 133.644,16.2974 152,44.5C 168.02,76.5242 165.354,106.858 144,135.5C 120.266,161.264 91.4326,169.431 57.5,160C 14.7089,141.259 -2.45773,108.759 6,62.5C 17.2534,29.9726 39.7534,10.6393 73.5,4.5 Z"/></g>
<g><path style="opacity:1" fill="#232233" d="M 73.5,10.5 C 111.882,9.25967 138.382,26.2597 153,61.5C 161.87,98.2409 150.703,127.074 119.5,148C 89.3929,162.949 61.0596,160.282 34.5,140C 9.584,116.123 3.084,87.9559 15,55.5C 26.8793,30.489 46.3793,15.489 73.5,10.5 Z"/></g>
<g><path style="opacity:1" fill="#de8e29" d="M 109.5,87.5 C 109.831,79.4723 109.498,71.4723 108.5,63.5C 107.893,63.6236 107.56,63.9569 107.5,64.5C 92.2018,80.2986 76.7018,95.9652 61,111.5C 59.1667,109.667 57.3333,107.833 55.5,106C 71.5,90 87.5,74 103.5,58C 95.1667,57.6667 86.8333,57.3333 78.5,57C 75.8333,55 75.8333,53 78.5,51C 90.5,50.3333 102.5,50.3333 114.5,51C 115,51.5 115.5,52 116,52.5C 116.667,64.5 116.667,76.5 116,88.5C 113.448,90.0203 111.282,89.6869 109.5,87.5 Z"/></g>
<g><path style="opacity:1" fill="#6d4d2f" d="M 107.5,64.5 C 107.56,63.9569 107.893,63.6236 108.5,63.5C 109.498,71.4723 109.831,79.4723 109.5,87.5C 108.833,79.8333 108.167,72.1667 107.5,64.5 Z"/></g>
</svg>
