<svg width="29" height="29" viewBox="0 0 29 29" fill="none" xmlns="http://www.w3.org/2000/svg">
<g clip-path="url(#clip0_6219_6077)">
<path d="M14.5002 1.61084C11.951 1.61084 9.45911 2.36676 7.33954 3.78301C5.21997 5.19926 3.56797 7.21223 2.59244 9.56736C1.61691 11.9225 1.36167 14.514 1.85899 17.0142C2.35631 19.5144 3.58386 21.811 5.3864 23.6136C7.18895 25.4161 9.48553 26.6436 11.9857 27.141C14.4859 27.6383 17.0775 27.383 19.4326 26.4075C21.7877 25.432 23.8007 23.78 25.2169 21.6604C26.6332 19.5408 27.3891 17.0489 27.3891 14.4997C27.3891 11.0814 26.0312 7.80304 23.614 5.38591C21.1969 2.96877 17.9186 1.61084 14.5002 1.61084ZM14.5002 25.7775C12.2697 25.7775 10.0892 25.1161 8.23463 23.8769C6.38 22.6376 4.9345 20.8763 4.08091 18.8155C3.22733 16.7548 3.00399 14.4872 3.43914 12.2995C3.8743 10.1119 4.9484 8.10236 6.52563 6.52514C8.10286 4.94791 10.1124 3.87381 12.3 3.43865C14.4877 3.00349 16.7553 3.22683 18.816 4.08042C20.8768 4.93401 22.6381 6.37951 23.8774 8.23413C25.1166 10.0888 25.778 12.2692 25.778 14.4997C25.778 17.4908 24.5898 20.3593 22.4748 22.4743C20.3598 24.5893 17.4913 25.7775 14.5002 25.7775Z" fill="#EA9528"/>
<path d="M14.7327 7.18538C13.8598 7.17095 12.9944 7.34897 12.198 7.70678C11.4017 8.06459 10.6939 8.59341 10.125 9.25566C10.0459 9.32891 9.98239 9.41727 9.93811 9.51551C9.89383 9.61375 9.86972 9.71988 9.86719 9.8276C9.86713 9.927 9.88707 10.0254 9.92582 10.1169C9.96457 10.2084 10.0213 10.2912 10.0927 10.3604C10.1641 10.4295 10.2487 10.4836 10.3414 10.5194C10.4342 10.5552 10.5331 10.572 10.6325 10.5687C10.8453 10.5634 11.0488 10.4803 11.2044 10.3351C11.6349 9.83057 12.1697 9.4253 12.7718 9.14717C13.374 8.86905 14.0292 8.72468 14.6925 8.72399C16.5936 8.72399 17.7777 9.94844 17.7777 11.4709V11.5112C17.7777 13.2915 16.36 14.2823 14.1205 14.4515C14.0298 14.455 13.9409 14.4776 13.8596 14.5178C13.7783 14.5581 13.7063 14.6151 13.6485 14.685C13.5907 14.755 13.5484 14.8364 13.5242 14.9238C13.5 15.0113 13.4946 15.1029 13.5083 15.1926C13.5083 15.1926 13.5083 17.0615 13.5083 17.4079C13.5283 17.6073 13.622 17.792 13.7709 17.9261C13.9199 18.0602 14.1135 18.1339 14.3139 18.1329H14.4025C14.6019 18.1128 14.7866 18.0192 14.9207 17.8703C15.0547 17.7213 15.1285 17.5277 15.1275 17.3273V15.6679C17.5441 15.3295 19.5016 14.0568 19.5016 11.4145V11.3743C19.4775 8.9576 17.5925 7.18538 14.7327 7.18538Z" fill="#EA9528"/>
<path d="M14.3234 22.1125C14.8795 22.1125 15.3303 21.6617 15.3303 21.1056C15.3303 20.5495 14.8795 20.0986 14.3234 20.0986C13.7672 20.0986 13.3164 20.5495 13.3164 21.1056C13.3164 21.6617 13.7672 22.1125 14.3234 22.1125Z" fill="#EA9528"/>
</g>
<defs>
<clipPath id="clip0_6219_6077">
<rect width="29" height="29" fill="white"/>
</clipPath>
</defs>
</svg>
