<svg width="23" height="23" viewBox="0 0 23 23" fill="none" xmlns="http://www.w3.org/2000/svg">
<g opacity="0.65">
<path d="M17.5432 7.33086C17.4147 9.10521 16.0984 10.4727 14.6629 10.4727C13.2274 10.4727 11.9082 9.10614 11.7826 7.33086C11.6522 5.48482 12.9332 4.18896 14.6629 4.18896C16.3925 4.18896 17.6744 5.51833 17.5432 7.33086Z" stroke="#C0BFC7" stroke-width="1.53604" stroke-linecap="round" stroke-linejoin="round"/>
<path d="M14.6629 13.2656C11.8189 13.2656 9.0838 14.6778 8.39864 17.4287C8.30834 17.7927 8.53641 18.153 8.91065 18.153H20.4151C20.7893 18.153 21.0165 17.7927 20.9271 17.4287C20.2419 14.6341 17.5069 13.2656 14.6619 13.2656H14.6629Z" stroke="#C0BFC7" stroke-width="1.53604" stroke-linecap="round" stroke-linejoin="round"/>
<path d="M8.72678 8.11386C8.62438 9.53073 7.56032 10.6479 6.41435 10.6479C5.26744 10.6479 4.20152 9.53073 4.10098 8.11386C3.99672 6.63926 5.03191 5.58545 6.41435 5.58545C7.79585 5.58545 8.83104 6.66626 8.72678 8.11386V8.11386Z" stroke="#C0BFC7" stroke-width="1.53604" stroke-linecap="round" stroke-linejoin="round"/>
<path d="M8.98793 13.3505C8.20037 12.9903 7.33274 12.8516 6.41298 12.8516C4.1443 12.8516 1.95754 13.9789 1.41016 16.1768C1.33847 16.4673 1.52001 16.754 1.81977 16.754H6.71832" stroke="#C0BFC7" stroke-width="1.53604" stroke-linecap="round" stroke-linejoin="round"/>
</g>
</svg>
