<svg width="67" height="67" viewBox="0 0 67 67" fill="none" xmlns="http://www.w3.org/2000/svg">
<circle cx="33.5" cy="33.5" r="33" stroke="#EA9528"/>
<path d="M41.6928 25.1074C39.9195 24.2807 37.9995 23.6807 35.9995 23.334C35.982 23.3335 35.9645 23.3368 35.9484 23.3437C35.9323 23.3506 35.9179 23.361 35.9062 23.374C35.6662 23.814 35.3862 24.3874 35.1995 24.8274C33.0782 24.5074 30.9208 24.5074 28.7995 24.8274C28.6128 24.374 28.3328 23.814 28.0795 23.374C28.0662 23.3474 28.0262 23.334 27.9862 23.334C25.9862 23.6807 24.0795 24.2807 22.2928 25.1074C22.2795 25.1074 22.2662 25.1207 22.2528 25.134C18.6262 30.5607 17.6262 35.8407 18.1195 41.0674C18.1195 41.094 18.1328 41.1207 18.1595 41.134C20.5595 42.894 22.8662 43.9607 25.1462 44.6674C25.1862 44.6807 25.2262 44.6674 25.2395 44.6407C25.7728 43.9074 26.2528 43.134 26.6662 42.3207C26.6928 42.2674 26.6662 42.214 26.6128 42.2007C25.8528 41.9074 25.1328 41.5607 24.4262 41.1607C24.3728 41.134 24.3728 41.054 24.4128 41.014C24.5595 40.9074 24.7062 40.7874 24.8528 40.6807C24.8795 40.654 24.9195 40.654 24.9462 40.6674C29.5328 42.7607 34.4795 42.7607 39.0128 40.6674C39.0395 40.654 39.0795 40.654 39.1062 40.6807C39.2528 40.8007 39.3995 40.9074 39.5462 41.0274C39.5995 41.0674 39.5995 41.1474 39.5328 41.174C38.8395 41.5874 38.1062 41.9207 37.3462 42.214C37.2928 42.2274 37.2795 42.294 37.2928 42.334C37.7195 43.1474 38.1995 43.9207 38.7195 44.654C38.7595 44.6674 38.7995 44.6807 38.8395 44.6674C41.1328 43.9607 43.4395 42.894 45.8395 41.134C45.8662 41.1207 45.8795 41.094 45.8795 41.0674C46.4662 35.0274 44.9062 29.7874 41.7462 25.134C41.7328 25.1207 41.7195 25.1074 41.6928 25.1074ZM27.3595 37.8807C25.9862 37.8807 24.8395 36.614 24.8395 35.054C24.8395 33.494 25.9595 32.2274 27.3595 32.2274C28.7728 32.2274 29.8928 33.5074 29.8795 35.054C29.8795 36.614 28.7595 37.8807 27.3595 37.8807ZM36.6528 37.8807C35.2795 37.8807 34.1328 36.614 34.1328 35.054C34.1328 33.494 35.2528 32.2274 36.6528 32.2274C38.0662 32.2274 39.1862 33.5074 39.1728 35.054C39.1728 36.614 38.0662 37.8807 36.6528 37.8807Z" fill="white"/>
</svg>
