<?xml version="1.0" encoding="UTF-8"?>
<!DOCTYPE svg PUBLIC "-//W3C//DTD SVG 1.1//EN" "http://www.w3.org/Graphics/SVG/1.1/DTD/svg11.dtd">
<svg xmlns="http://www.w3.org/2000/svg" version="1.1" width="284px" height="252px" style="shape-rendering:geometricPrecision; text-rendering:geometricPrecision; image-rendering:optimizeQuality; fill-rule:evenodd; clip-rule:evenodd" xmlns:xlink="http://www.w3.org/1999/xlink">
<g><path style="opacity:1" fill="#2c2a43" d="M -0.5,-0.5 C 94.1667,-0.5 188.833,-0.5 283.5,-0.5C 283.5,83.5 283.5,167.5 283.5,251.5C 188.833,251.5 94.1667,251.5 -0.5,251.5C -0.5,167.5 -0.5,83.5 -0.5,-0.5 Z"/></g>
<g><path style="opacity:1" fill="#252437" d="M 171.5,5.5 C 174.168,5.66626 176.502,6.66626 178.5,8.5C 180.123,7.52437 181.457,8.02437 182.5,10C 181.978,10.5613 181.645,11.228 181.5,12C 182.477,13.497 183.477,14.997 184.5,16.5C 184.081,17.6721 183.415,18.6721 182.5,19.5C 177.997,20.5527 173.997,22.5527 170.5,25.5C 169.28,24.2889 168.113,24.2889 167,25.5C 166.333,24.8333 165.667,24.1667 165,23.5C 166.036,32.3952 162.369,35.0619 154,31.5C 152.356,28.2531 152.189,24.9198 153.5,21.5C 155.827,21.7529 157.827,21.0863 159.5,19.5C 166.012,24.1469 167.012,23.1469 162.5,16.5C 163.5,14.8333 164.5,13.1667 165.5,11.5C 164.524,9.87667 165.024,8.54334 167,7.5C 169.224,8.64067 170.724,7.97401 171.5,5.5 Z"/></g>
<g><path style="opacity:1" fill="#d78073" d="M 176.5,39.5 C 176.167,38.1667 175.833,36.8333 175.5,35.5C 176.38,33.6112 176.38,31.6112 175.5,29.5C 178.167,29.1667 180.833,28.8333 183.5,28.5C 183.586,30.677 184.253,32.677 185.5,34.5C 182.607,36.4446 179.607,38.1113 176.5,39.5 Z"/></g>
<g><path style="opacity:1" fill="#dc8477" d="M 189.5,31.5 C 189.634,33.2915 189.301,34.9582 188.5,36.5C 186.787,35.3646 186.12,33.698 186.5,31.5C 187.5,31.5 188.5,31.5 189.5,31.5 Z"/></g>
<g><path style="opacity:1" fill="#272526" d="M 128.5,59.5 C 127.659,62.5186 126.659,65.5186 125.5,68.5C 121.718,69.7919 118.384,68.9586 115.5,66C 116.973,63.5524 118.307,61.0524 119.5,58.5C 120.167,58.1667 120.833,57.8333 121.5,57.5C 120.737,60.1411 120.57,62.8078 121,65.5C 122.29,63.208 123.957,61.208 126,59.5C 126.349,54.4664 128.515,50.4664 132.5,47.5C 130.163,46.483 128.496,44.8163 127.5,42.5C 126.675,41.6143 125.675,41.281 124.5,41.5C 124.33,40.1779 124.663,39.0113 125.5,38C 121.277,36.7213 118.611,38.2213 117.5,42.5C 114.441,38.8968 115.108,36.0635 119.5,34C 134.153,32.3999 139.653,38.8999 136,53.5C 133.847,56.1243 131.013,57.1243 127.5,56.5C 127.263,57.791 127.596,58.791 128.5,59.5 Z"/></g>
<g><path style="opacity:1" fill="#3a2f2f" d="M 189.5,31.5 C 188.5,31.5 187.5,31.5 186.5,31.5C 186.12,33.698 186.787,35.3646 188.5,36.5C 188.5,38.1667 188.5,39.8333 188.5,41.5C 186.784,43.0248 184.784,44.0248 182.5,44.5C 179.31,44.3129 177.31,42.6462 176.5,39.5C 179.607,38.1113 182.607,36.4446 185.5,34.5C 184.253,32.677 183.586,30.677 183.5,28.5C 180.833,28.8333 178.167,29.1667 175.5,29.5C 176.38,31.6112 176.38,33.6112 175.5,35.5C 170.98,25.5265 174.313,21.3599 185.5,23C 187.654,25.4557 188.987,28.2891 189.5,31.5 Z"/></g>
<g><path style="opacity:1" fill="#d27f72" d="M 121.5,57.5 C 122.404,56.791 122.737,55.791 122.5,54.5C 120.61,54.7035 119.11,54.0368 118,52.5C 117.502,49.5184 117.335,46.5184 117.5,43.5C 117.5,43.1667 117.5,42.8333 117.5,42.5C 118.611,38.2213 121.277,36.7213 125.5,38C 124.663,39.0113 124.33,40.1779 124.5,41.5C 125.675,41.281 126.675,41.6143 127.5,42.5C 128.496,44.8163 130.163,46.483 132.5,47.5C 128.515,50.4664 126.349,54.4664 126,59.5C 123.957,61.208 122.29,63.208 121,65.5C 120.57,62.8078 120.737,60.1411 121.5,57.5 Z"/></g>
<g><path style="opacity:1" fill="#ce7b6f" d="M 183.5,37.5 C 185.048,37.8212 185.715,38.8212 185.5,40.5C 183.508,40.3285 181.842,40.9951 180.5,42.5C 179.614,41.675 179.281,40.675 179.5,39.5C 181.38,39.7709 182.713,39.1042 183.5,37.5 Z"/></g>
<g><path style="opacity:1" fill="#cf7e71" d="M 188.5,41.5 C 188.5,42.5 188.5,43.5 188.5,44.5C 186.695,45.2371 185.029,46.2371 183.5,47.5C 182.702,47.0431 182.369,46.3764 182.5,45.5C 182.5,45.1667 182.5,44.8333 182.5,44.5C 184.784,44.0248 186.784,43.0248 188.5,41.5 Z"/></g>
<g><path style="opacity:1" fill="#232234" d="M 68.5,90.5 C 65.6709,92.9784 62.3375,93.9784 58.5,93.5C 57.3054,93.1344 56.6387,92.301 56.5,91C 60.9192,87.6053 62.5859,83.1053 61.5,77.5C 61.4279,74.4475 60.4279,71.7808 58.5,69.5C 69.0433,54.2152 83.7099,45.5485 102.5,43.5C 103.194,40.9124 104.36,38.579 106,36.5C 105.651,39.0619 104.817,41.5619 103.5,44C 105.198,48.3007 106.531,52.8007 107.5,57.5C 86.935,59.3877 73.935,70.3877 68.5,90.5 Z"/></g>
<g><path style="opacity:1" fill="#392f2e" d="M 117.5,43.5 C 117.335,46.5184 117.502,49.5184 118,52.5C 119.11,54.0368 120.61,54.7035 122.5,54.5C 122.737,55.791 122.404,56.791 121.5,57.5C 119.592,55.976 117.425,54.6426 115,53.5C 114.028,49.6319 114.861,46.2985 117.5,43.5 Z"/></g>
<g><path style="opacity:1" fill="#664b3b" d="M 188.5,44.5 C 191.255,45.957 194.255,46.957 197.5,47.5C 193.795,52.5202 188.795,55.1869 182.5,55.5C 182.357,53.7376 182.691,52.0709 183.5,50.5C 183.167,50.1667 182.833,49.8333 182.5,49.5C 181.548,51.0453 181.215,52.712 181.5,54.5C 176.94,54.7186 173.273,53.0519 170.5,49.5C 174.451,48.0753 178.451,46.7419 182.5,45.5C 182.369,46.3764 182.702,47.0431 183.5,47.5C 185.029,46.2371 186.695,45.2371 188.5,44.5 Z"/></g>
<g><path style="opacity:1" fill="#232234" d="M 217.5,78.5 C 216.058,79.8195 215.392,81.4862 215.5,83.5C 216.5,83.5 217.5,83.5 218.5,83.5C 218.5,83.8333 218.5,84.1667 218.5,84.5C 217.153,85.0283 215.819,85.195 214.5,85C 212.19,81.8475 209.357,79.3475 206,77.5C 195.615,82.2757 185.448,87.4423 175.5,93C 163.943,93.3208 158.776,99.1542 160,110.5C 168.582,127.481 165.749,142.647 151.5,156C 128.578,167.512 109.245,163.012 93.5,142.5C 92.675,141.614 91.675,141.281 90.5,141.5C 95.8676,139.648 100.868,136.981 105.5,133.5C 108.685,140.511 114.019,145.344 121.5,148C 144.183,153.174 156.183,144.007 157.5,120.5C 157.84,115.044 156.84,109.877 154.5,105C 149.371,105.335 148.205,107.835 151,112.5C 153.056,135.134 143.556,142.634 122.5,135C 120.297,132.628 117.963,130.461 115.5,128.5C 117.794,126.347 120.46,124.68 123.5,123.5C 128.253,129.474 134.253,131.307 141.5,129C 145.792,125.913 147.458,121.746 146.5,116.5C 146.614,113.636 146.114,110.97 145,108.5C 142.882,109.283 141.382,110.616 140.5,112.5C 138.738,112.643 137.071,112.309 135.5,111.5C 134.702,111.957 134.369,112.624 134.5,113.5C 131.756,112.928 130.923,111.262 132,108.5C 135.283,106.447 138.45,104.28 141.5,102C 140.272,99.2697 138.272,97.4364 135.5,96.5C 133.668,94.1058 131.168,93.1058 128,93.5C 123.268,93.1981 119.935,95.1981 118,99.5C 116.801,102.726 116.301,106.059 116.5,109.5C 114.585,109.216 112.919,109.549 111.5,110.5C 110.609,111.11 109.609,111.443 108.5,111.5C 105.764,101.13 109.097,93.2969 118.5,88C 130.068,86.2852 139.068,90.2852 145.5,100C 151.045,99.3723 151.878,96.8723 148,92.5C 141.411,84.069 132.911,78.7357 122.5,76.5C 122.918,75.7784 123.584,75.2784 124.5,75C 123.667,74.8333 122.833,74.6667 122,74.5C 118.921,74.5808 116.421,75.5808 114.5,77.5C 110.452,78.3579 106.785,80.0245 103.5,82.5C 102.31,80.6455 100.977,78.8121 99.5,77C 98.2068,76.51 96.8734,76.3433 95.5,76.5C 94.8333,76.5 94.1667,76.5 93.5,76.5C 96.3909,72.3731 100.391,69.7064 105.5,68.5C 106.376,68.3691 107.043,68.7025 107.5,69.5C 106.376,70.914 105.376,72.414 104.5,74C 107.093,73.4535 109.26,71.9535 111,69.5C 109.527,67.2615 109.027,64.9282 109.5,62.5C 109.611,61.8826 109.944,61.3826 110.5,61C 113.546,60.2612 116.546,59.4279 119.5,58.5C 118.307,61.0524 116.973,63.5524 115.5,66C 118.384,68.9586 121.718,69.7919 125.5,68.5C 126.659,65.5186 127.659,62.5186 128.5,59.5C 131.137,61.491 133.804,63.491 136.5,65.5C 135.055,67.0627 133.389,68.396 131.5,69.5C 142.299,74.9283 151.299,83.2616 158.5,94.5C 160.497,94.0142 161.831,92.8475 162.5,91C 157.487,81.6484 150.653,73.8151 142,67.5C 141.163,69.0074 139.996,69.5074 138.5,69C 138.984,65.7238 140.651,62.7238 143.5,60C 149.069,62.5318 153.902,66.3651 158,71.5C 162.328,76.8209 166.162,82.4875 169.5,88.5C 180.343,82.578 191.343,76.9114 202.5,71.5C 203.191,66.6171 203.857,61.7838 204.5,57C 210.078,54.2943 215.578,51.461 221,48.5C 221.415,52.848 221.249,57.1813 220.5,61.5C 212.147,63.5162 208.814,68.8496 210.5,77.5C 212.806,77.9926 215.139,78.3259 217.5,78.5 Z"/></g>
<g><path style="opacity:1" fill="#282729" d="M 225.5,74.5 C 224.217,71.6311 222.217,69.2977 219.5,67.5C 218.265,68.3398 217.265,69.3398 216.5,70.5C 216.178,68.2776 216.845,66.4443 218.5,65C 222.738,64.8676 226.738,65.2009 230.5,66C 231.81,69.9893 231.31,73.8226 229,77.5C 227.883,76.0506 227.216,74.3839 227,72.5C 226.722,73.4158 226.222,74.0825 225.5,74.5 Z"/></g>
<g><path style="opacity:1" fill="#7c5736" d="M 109.5,62.5 C 109.027,64.9282 109.527,67.2615 111,69.5C 109.26,71.9535 107.093,73.4535 104.5,74C 105.376,72.414 106.376,70.914 107.5,69.5C 107.043,68.7025 106.376,68.3691 105.5,68.5C 105.389,67.8826 105.056,67.3826 104.5,67C 106.24,65.483 107.906,63.983 109.5,62.5 Z"/></g>
<g><path style="opacity:1" fill="#282726" d="M 58.5,69.5 C 60.4279,71.7808 61.4279,74.4475 61.5,77.5C 59.8958,76.713 59.2291,75.3797 59.5,73.5C 55.8331,73.1636 52.4998,73.997 49.5,76C 51.4439,78.1529 51.9439,80.6529 51,83.5C 49.951,81.8934 48.451,81.2267 46.5,81.5C 42.2774,77.4012 42.6107,73.5678 47.5,70C 51.1797,68.4893 54.8464,68.3226 58.5,69.5 Z"/></g>
<g><path style="opacity:1" fill="#d2aaa6" d="M 225.5,74.5 C 223.983,74.5106 222.816,75.1772 222,76.5C 221.685,78.5856 221.185,80.5856 220.5,82.5C 219.508,82.3284 218.842,82.6618 218.5,83.5C 217.5,83.5 216.5,83.5 215.5,83.5C 215.392,81.4862 216.058,79.8195 217.5,78.5C 218.043,78.44 218.376,78.1067 218.5,77.5C 216.827,75.4775 216.16,73.1441 216.5,70.5C 217.265,69.3398 218.265,68.3398 219.5,67.5C 222.217,69.2977 224.217,71.6311 225.5,74.5 Z"/></g>
<g><path style="opacity:1" fill="#efaa6e" d="M 61.5,77.5 C 62.5859,83.1053 60.9192,87.6053 56.5,91C 56.6387,92.301 57.3054,93.1344 58.5,93.5C 59.7199,95.2837 59.7199,96.9504 58.5,98.5C 56.3068,96.2794 53.6401,94.946 50.5,94.5C 50.6641,91.8127 50.4974,89.146 50,86.5C 47.4438,85.7809 46.2771,84.1142 46.5,81.5C 48.451,81.2267 49.951,81.8934 51,83.5C 51.9439,80.6529 51.4439,78.1529 49.5,76C 52.4998,73.997 55.8331,73.1636 59.5,73.5C 59.2291,75.3797 59.8958,76.713 61.5,77.5 Z"/></g>
<g><path style="opacity:1" fill="#cc8542" d="M 93.5,76.5 C 94.1667,76.5 94.8333,76.5 95.5,76.5C 97.424,80.0171 99.0906,83.6837 100.5,87.5C 95.9994,89.9159 91.6661,92.5825 87.5,95.5C 87.1667,95.5 86.8333,95.5 86.5,95.5C 84.8333,91.5 83.1667,87.5 81.5,83.5C 85.1638,80.6654 89.1638,78.332 93.5,76.5 Z"/></g>
<g><path style="opacity:1" fill="#9a6734" d="M 95.5,76.5 C 96.8734,76.3433 98.2068,76.51 99.5,77C 100.977,78.8121 102.31,80.6455 103.5,82.5C 104.441,84.4664 105.441,86.4664 106.5,88.5C 106.376,89.1067 106.043,89.44 105.5,89.5C 104.22,88.0687 102.553,87.4021 100.5,87.5C 99.0906,83.6837 97.424,80.0171 95.5,76.5 Z"/></g>
<g><path style="opacity:1" fill="#7d5837" d="M 122.5,76.5 C 121.078,76.7086 119.745,77.2086 118.5,78C 119.337,79.0113 119.67,80.1779 119.5,81.5C 116.211,82.5475 112.878,83.0475 109.5,83C 111.664,82.0857 113.664,80.919 115.5,79.5C 115.137,78.8165 114.804,78.1499 114.5,77.5C 116.421,75.5808 118.921,74.5808 122,74.5C 122.833,74.6667 123.667,74.8333 124.5,75C 123.584,75.2784 122.918,75.7784 122.5,76.5 Z"/></g>
<g><path style="opacity:1" fill="#2c2b43" d="M 122.5,76.5 C 132.911,78.7357 141.411,84.069 148,92.5C 151.878,96.8723 151.045,99.3723 145.5,100C 139.068,90.2852 130.068,86.2852 118.5,88C 109.097,93.2969 105.764,101.13 108.5,111.5C 105.672,113.748 102.672,115.748 99.5,117.5C 96.7001,118.903 95.2001,117.903 95,114.5C 94.2489,108.116 94.4156,101.783 95.5,95.5C 98.4658,93.0116 101.799,91.0116 105.5,89.5C 106.043,89.44 106.376,89.1067 106.5,88.5C 105.441,86.4664 104.441,84.4664 103.5,82.5C 106.785,80.0245 110.452,78.3579 114.5,77.5C 114.804,78.1499 115.137,78.8165 115.5,79.5C 113.664,80.919 111.664,82.0857 109.5,83C 112.878,83.0475 116.211,82.5475 119.5,81.5C 119.67,80.1779 119.337,79.0113 118.5,78C 119.745,77.2086 121.078,76.7086 122.5,76.5 Z"/></g>
<g><path style="opacity:1" fill="#775435" d="M 218.5,84.5 C 218.5,84.1667 218.5,83.8333 218.5,83.5C 218.842,82.6618 219.508,82.3284 220.5,82.5C 221.735,82.2786 222.735,81.6119 223.5,80.5C 224.646,81.1449 225.646,81.9783 226.5,83C 224.063,84.3747 221.397,84.8747 218.5,84.5 Z"/></g>
<g><path style="opacity:1" fill="#302c3e" d="M 81.5,83.5 C 83.1667,87.5 84.8333,91.5 86.5,95.5C 82.0046,98.4701 77.3379,101.303 72.5,104C 65.6055,111.299 65.9388,118.299 73.5,125C 79.3971,127.304 79.8971,126.471 75,122.5C 73.5886,120.35 72.7553,118.016 72.5,115.5C 76.9461,120.722 82.6128,123.222 89.5,123C 91.3325,122.252 92.9991,121.252 94.5,120C 89.979,119.271 85.6457,117.937 81.5,116C 79.7794,114.056 78.446,111.89 77.5,109.5C 77.5,108.5 77.5,107.5 77.5,106.5C 82.1667,103.167 86.8333,99.8333 91.5,96.5C 92.8333,96.1667 94.1667,95.8333 95.5,95.5C 94.4156,101.783 94.2489,108.116 95,114.5C 95.2001,117.903 96.7001,118.903 99.5,117.5C 102.025,121.217 104.025,125.217 105.5,129.5C 98.8385,133.658 91.8385,137.158 84.5,140C 81.1667,140.667 77.8333,140.667 74.5,140C 71.035,138.678 67.7017,137.178 64.5,135.5C 64.1667,135.5 63.8333,135.5 63.5,135.5C 60.7454,132.083 58.412,128.417 56.5,124.5C 60.4383,123.235 62.4383,120.568 62.5,116.5C 59.7892,116.185 57.4559,116.852 55.5,118.5C 53.6447,111.49 54.6447,104.823 58.5,98.5C 59.7199,96.9504 59.7199,95.2837 58.5,93.5C 62.3375,93.9784 65.6709,92.9784 68.5,90.5C 73.0243,88.4064 77.3576,86.073 81.5,83.5 Z"/></g>
<g><path style="opacity:1" fill="#df8e2a" d="M 100.5,87.5 C 102.553,87.4021 104.22,88.0687 105.5,89.5C 101.799,91.0116 98.4658,93.0116 95.5,95.5C 94.1667,95.8333 92.8333,96.1667 91.5,96.5C 90.1667,96.1667 88.8333,95.8333 87.5,95.5C 91.6661,92.5825 95.9994,89.9159 100.5,87.5 Z"/></g>
<g><path style="opacity:1" fill="#2d2b43" d="M 135.5,96.5 C 138.272,97.4364 140.272,99.2697 141.5,102C 138.45,104.28 135.283,106.447 132,108.5C 130.923,111.262 131.756,112.928 134.5,113.5C 134.5,114.5 134.5,115.5 134.5,116.5C 132.473,116.338 130.473,116.505 128.5,117C 131.688,118.316 135.022,118.816 138.5,118.5C 138.5,117.167 138.5,115.833 138.5,114.5C 140.927,114.477 143.26,113.977 145.5,113C 143.866,112.506 142.199,112.34 140.5,112.5C 141.382,110.616 142.882,109.283 145,108.5C 146.114,110.97 146.614,113.636 146.5,116.5C 147.458,121.746 145.792,125.913 141.5,129C 134.253,131.307 128.253,129.474 123.5,123.5C 124.167,123.5 124.5,123.167 124.5,122.5C 125.043,122.44 125.376,122.107 125.5,121.5C 123.867,118.04 122.034,114.706 120,111.5C 119.184,110.177 118.017,109.511 116.5,109.5C 116.301,106.059 116.801,102.726 118,99.5C 119.935,95.1981 123.268,93.1981 128,93.5C 131.168,93.1058 133.668,94.1058 135.5,96.5 Z"/></g>
<g><path style="opacity:1" fill="#252525" d="M 86.5,95.5 C 86.8333,95.5 87.1667,95.5 87.5,95.5C 88.8333,95.8333 90.1667,96.1667 91.5,96.5C 86.8333,99.8333 82.1667,103.167 77.5,106.5C 75.4689,107.539 74.1355,109.205 73.5,111.5C 72.7659,112.708 72.4326,114.041 72.5,115.5C 72.7553,118.016 73.5886,120.35 75,122.5C 79.8971,126.471 79.3971,127.304 73.5,125C 65.9388,118.299 65.6055,111.299 72.5,104C 77.3379,101.303 82.0046,98.4701 86.5,95.5 Z"/></g>
<g><path style="opacity:1" fill="#2a282b" d="M 179.5,117.5 C 179.953,116.542 180.619,115.708 181.5,115C 180.167,114 180.167,113 181.5,112C 180.552,111.517 179.552,111.351 178.5,111.5C 176.974,109.55 175.974,107.217 175.5,104.5C 173.541,103.252 172.041,101.585 171,99.5C 166.503,103.043 166.337,106.877 170.5,111C 171.793,111.49 173.127,111.657 174.5,111.5C 174.5,112.833 174.5,114.167 174.5,115.5C 173.425,114.438 172.425,114.438 171.5,115.5C 172.074,117.059 172.74,118.559 173.5,120C 173.272,120.399 172.938,120.565 172.5,120.5C 171.292,119.766 169.959,119.433 168.5,119.5C 168.737,115.59 167.904,111.923 166,108.5C 165.071,104.756 165.571,101.256 167.5,98C 170.665,95.8704 173.665,96.0371 176.5,98.5C 178.802,102.633 181.302,106.633 184,110.5C 184.667,111.5 184.667,112.5 184,113.5C 183.124,115.635 181.624,116.969 179.5,117.5 Z"/></g>
<g><path style="opacity:1" fill="#a2706b" d="M 50.5,94.5 C 53.6401,94.946 56.3068,96.2794 58.5,98.5C 54.6447,104.823 53.6447,111.49 55.5,118.5C 53.1547,121.075 50.1547,122.075 46.5,121.5C 46.6633,119.143 46.4966,116.81 46,114.5C 45.6232,115.942 44.7899,116.942 43.5,117.5C 41.7354,116.539 39.7354,116.205 37.5,116.5C 37.5,118.167 37.5,119.833 37.5,121.5C 33.9211,112.91 35.2544,105.077 41.5,98C 44.6474,97.0536 47.6474,95.8869 50.5,94.5 Z"/></g>
<g><path style="opacity:1" fill="#7c5738" d="M 135.5,96.5 C 133.856,98.4807 132.19,100.481 130.5,102.5C 130.977,103.478 131.643,104.311 132.5,105C 130.209,107.34 127.542,108.673 124.5,109C 127.858,107.165 128.191,104.998 125.5,102.5C 128.606,100.048 131.939,98.0478 135.5,96.5 Z"/></g>
<g><path style="opacity:1" fill="#d7aea9" d="M 178.5,111.5 C 178.5,112.167 178.5,112.833 178.5,113.5C 177.395,114.6 176.062,115.267 174.5,115.5C 174.5,114.167 174.5,112.833 174.5,111.5C 173.127,111.657 171.793,111.49 170.5,111C 166.337,106.877 166.503,103.043 171,99.5C 172.041,101.585 173.541,103.252 175.5,104.5C 175.974,107.217 176.974,109.55 178.5,111.5 Z"/></g>
<g><path style="opacity:1" fill="#2b2a43" d="M 105.5,133.5 C 108.032,132.404 110.365,131.071 112.5,129.5C 113.391,128.89 114.391,128.557 115.5,128.5C 117.963,130.461 120.297,132.628 122.5,135C 143.556,142.634 153.056,135.134 151,112.5C 148.205,107.835 149.371,105.335 154.5,105C 156.84,109.877 157.84,115.044 157.5,120.5C 156.183,144.007 144.183,153.174 121.5,148C 114.019,145.344 108.685,140.511 105.5,133.5 Z"/></g>
<g><path style="opacity:1" fill="#9c6c65" d="M 77.5,106.5 C 77.5,107.5 77.5,108.5 77.5,109.5C 76.1667,110.167 74.8333,110.833 73.5,111.5C 74.1355,109.205 75.4689,107.539 77.5,106.5 Z"/></g>
<g><path style="opacity:1" fill="#efaa6e" d="M 77.5,109.5 C 78.446,111.89 79.7794,114.056 81.5,116C 85.6457,117.937 89.979,119.271 94.5,120C 92.9991,121.252 91.3325,122.252 89.5,123C 82.6128,123.222 76.9461,120.722 72.5,115.5C 72.4326,114.041 72.7659,112.708 73.5,111.5C 74.8333,110.833 76.1667,110.167 77.5,109.5 Z"/></g>
<g><path style="opacity:1" fill="#cc8542" d="M 111.5,110.5 C 113.39,110.297 114.89,110.963 116,112.5C 117.259,115.356 118.759,118.023 120.5,120.5C 115.54,122.796 111.206,125.796 107.5,129.5C 106.833,129.5 106.167,129.5 105.5,129.5C 104.025,125.217 102.025,121.217 99.5,117.5C 102.672,115.748 105.672,113.748 108.5,111.5C 109.609,111.443 110.609,111.11 111.5,110.5 Z"/></g>
<g><path style="opacity:1" fill="#9b6834" d="M 111.5,110.5 C 112.919,109.549 114.585,109.216 116.5,109.5C 118.017,109.511 119.184,110.177 120,111.5C 122.034,114.706 123.867,118.04 125.5,121.5C 125.376,122.107 125.043,122.44 124.5,122.5C 123.329,121.655 121.995,120.989 120.5,120.5C 118.759,118.023 117.259,115.356 116,112.5C 114.89,110.963 113.39,110.297 111.5,110.5 Z"/></g>
<g><path style="opacity:1" fill="#7b5638" d="M 140.5,112.5 C 142.199,112.34 143.866,112.506 145.5,113C 143.26,113.977 140.927,114.477 138.5,114.5C 138.5,115.833 138.5,117.167 138.5,118.5C 135.022,118.816 131.688,118.316 128.5,117C 130.473,116.505 132.473,116.338 134.5,116.5C 134.5,115.5 134.5,114.5 134.5,113.5C 134.369,112.624 134.702,111.957 135.5,111.5C 137.071,112.309 138.738,112.643 140.5,112.5 Z"/></g>
<g><path style="opacity:1" fill="#d38b37" d="M 178.5,113.5 C 178.143,115.589 177.477,117.589 176.5,119.5C 175.295,118.423 174.628,117.09 174.5,115.5C 176.062,115.267 177.395,114.6 178.5,113.5 Z"/></g>
<g><path style="opacity:1" fill="#f6af71" d="M 43.5,117.5 C 43.5,118.833 43.5,120.167 43.5,121.5C 44.5,121.5 45.5,121.5 46.5,121.5C 50.1547,122.075 53.1547,121.075 55.5,118.5C 57.4559,116.852 59.7892,116.185 62.5,116.5C 62.4383,120.568 60.4383,123.235 56.5,124.5C 51.2861,125.968 45.9528,126.635 40.5,126.5C 38.2729,125.599 37.2729,123.933 37.5,121.5C 37.5,119.833 37.5,118.167 37.5,116.5C 39.7354,116.205 41.7354,116.539 43.5,117.5 Z"/></g>
<g><path style="opacity:1" fill="#2f2c45" d="M 46.5,121.5 C 45.5,121.5 44.5,121.5 43.5,121.5C 43.5,120.167 43.5,118.833 43.5,117.5C 44.7899,116.942 45.6232,115.942 46,114.5C 46.4966,116.81 46.6633,119.143 46.5,121.5 Z"/></g>
<g><path style="opacity:1" fill="#232234" d="M 178.5,111.5 C 179.552,111.351 180.552,111.517 181.5,112C 180.167,113 180.167,114 181.5,115C 180.619,115.708 179.953,116.542 179.5,117.5C 181.706,132.189 180.373,146.522 175.5,160.5C 174.909,161.151 174.243,161.818 173.5,162.5C 174.309,164.071 174.643,165.738 174.5,167.5C 173.167,167.5 171.833,167.5 170.5,167.5C 171.192,170.897 171.192,174.23 170.5,177.5C 161.991,173.755 156.658,176.421 154.5,185.5C 139.112,194.098 123.112,195.432 106.5,189.5C 106.167,190.167 105.833,190.833 105.5,191.5C 108.214,204.686 109.547,218.02 109.5,231.5C 106.941,231.198 104.607,231.532 102.5,232.5C 99.8163,217.425 96.3163,202.425 92,187.5C 84.3713,178.203 76.3713,169.203 68,160.5C 67.7707,172.214 66.9373,183.881 65.5,195.5C 65.8777,197.135 66.5444,198.635 67.5,200C 61.9345,209.362 58.1012,219.528 56,230.5C 53.2809,231.444 50.4475,231.777 47.5,231.5C 49.6204,215.91 50.9538,200.243 51.5,184.5C 49.8369,168.873 48.8369,153.206 48.5,137.5C 53.4704,136.647 58.4704,135.98 63.5,135.5C 63.8333,135.5 64.1667,135.5 64.5,135.5C 70.1733,141.489 77.1733,143.823 85.5,142.5C 83.3021,143.165 80.9688,143.832 78.5,144.5C 82.1924,149.025 85.6924,153.692 89,158.5C 107.943,178.284 129.443,181.784 153.5,169C 167.967,156.11 174.301,139.944 172.5,120.5C 172.938,120.565 173.272,120.399 173.5,120C 172.74,118.559 172.074,117.059 171.5,115.5C 172.425,114.438 173.425,114.438 174.5,115.5C 174.628,117.09 175.295,118.423 176.5,119.5C 177.477,117.589 178.143,115.589 178.5,113.5C 178.5,112.833 178.5,112.167 178.5,111.5 Z"/></g>
<g><path style="opacity:1" fill="#e08f2a" d="M 120.5,120.5 C 121.995,120.989 123.329,121.655 124.5,122.5C 124.5,123.167 124.167,123.5 123.5,123.5C 120.46,124.68 117.794,126.347 115.5,128.5C 114.391,128.557 113.391,128.89 112.5,129.5C 110.833,129.5 109.167,129.5 107.5,129.5C 111.206,125.796 115.54,122.796 120.5,120.5 Z"/></g>
<g><path style="opacity:1" fill="#a7736a" d="M 56.5,124.5 C 58.412,128.417 60.7454,132.083 63.5,135.5C 58.4704,135.98 53.4704,136.647 48.5,137.5C 48.5,134.167 48.5,130.833 48.5,127.5C 45.6146,127.806 42.9479,127.473 40.5,126.5C 45.9528,126.635 51.2861,125.968 56.5,124.5 Z"/></g>
<g><path style="opacity:1" fill="#252525" d="M 105.5,129.5 C 106.167,129.5 106.833,129.5 107.5,129.5C 109.167,129.5 110.833,129.5 112.5,129.5C 110.365,131.071 108.032,132.404 105.5,133.5C 100.868,136.981 95.8676,139.648 90.5,141.5C 88.8828,142.038 87.2161,142.371 85.5,142.5C 77.1733,143.823 70.1733,141.489 64.5,135.5C 67.7017,137.178 71.035,138.678 74.5,140C 77.8333,140.667 81.1667,140.667 84.5,140C 91.8385,137.158 98.8385,133.658 105.5,129.5 Z"/></g>
<g><path style="opacity:1" fill="#956531" d="M 214.5,138.5 C 207.833,138.5 201.167,138.5 194.5,138.5C 194.5,142.167 194.5,145.833 194.5,149.5C 193.517,145.702 193.183,141.702 193.5,137.5C 200.687,137.175 207.687,137.509 214.5,138.5 Z"/></g>
<g><path style="opacity:1" fill="#cb8225" d="M 214.5,138.5 C 215.482,141.962 215.815,145.629 215.5,149.5C 215.5,151.167 215.5,152.833 215.5,154.5C 209.833,154.5 204.167,154.5 198.5,154.5C 198.5,152.833 198.5,151.167 198.5,149.5C 197.5,149.5 196.5,149.5 195.5,149.5C 195.167,149.5 194.833,149.5 194.5,149.5C 194.5,145.833 194.5,142.167 194.5,138.5C 201.167,138.5 207.833,138.5 214.5,138.5 Z"/></g>
<g><path style="opacity:1" fill="#765333" d="M 194.5,149.5 C 194.833,149.5 195.167,149.5 195.5,149.5C 195.836,153.949 195.503,157.616 194.5,160.5C 194.167,159.167 193.833,157.833 193.5,156.5C 194.468,154.393 194.802,152.059 194.5,149.5 Z"/></g>
<g><path style="opacity:1" fill="#b67525" d="M 195.5,149.5 C 196.5,149.5 197.5,149.5 198.5,149.5C 198.5,151.167 198.5,152.833 198.5,154.5C 204.167,154.5 209.833,154.5 215.5,154.5C 215.5,152.833 215.5,151.167 215.5,149.5C 216.833,153.167 216.833,156.833 215.5,160.5C 214.631,162.717 214.298,165.05 214.5,167.5C 209.156,167.334 203.823,167.501 198.5,168C 199.38,169.356 199.714,170.856 199.5,172.5C 204.833,172.5 210.167,172.5 215.5,172.5C 215.5,170.833 215.5,169.167 215.5,167.5C 216.833,171.167 216.833,174.833 215.5,178.5C 215.5,178.167 215.5,177.833 215.5,177.5C 215.5,176.167 215.5,174.833 215.5,173.5C 210.167,173.5 204.833,173.5 199.5,173.5C 198.167,173.5 196.833,173.5 195.5,173.5C 195.31,168.929 193.977,164.929 191.5,161.5C 192.209,160.596 193.209,160.263 194.5,160.5C 195.503,157.616 195.836,153.949 195.5,149.5 Z"/></g>
<g><path style="opacity:1" fill="#d78925" d="M 215.5,160.5 C 210.156,160.666 204.823,160.499 199.5,160C 198.62,158.644 198.286,157.144 198.5,155.5C 204.167,155.5 209.833,155.5 215.5,155.5C 215.5,157.167 215.5,158.833 215.5,160.5 Z"/></g>
<g><path style="opacity:1" fill="#d78925" d="M 196.5,162.5 C 201.975,161.511 207.642,161.178 213.5,161.5C 213.5,163.167 213.5,164.833 213.5,166.5C 208.167,166.5 202.833,166.5 197.5,166.5C 197.768,164.901 197.434,163.568 196.5,162.5 Z"/></g>
<g><path style="opacity:1" fill="#45363d" d="M 191.5,161.5 C 193.977,164.929 195.31,168.929 195.5,173.5C 194.797,183.162 194.13,192.829 193.5,202.5C 193.167,202.5 192.833,202.5 192.5,202.5C 192.5,198.5 192.5,194.5 192.5,190.5C 192.167,186.5 191.833,182.5 191.5,178.5C 192.833,176.833 192.833,175.167 191.5,173.5C 191.5,171.5 191.5,169.5 191.5,167.5C 186.821,167.666 182.155,167.499 177.5,167C 182.043,164.874 186.71,163.041 191.5,161.5 Z"/></g>
<g><path style="opacity:1" fill="#d58724" d="M 214.5,167.5 C 214.833,167.5 215.167,167.5 215.5,167.5C 215.5,169.167 215.5,170.833 215.5,172.5C 210.167,172.5 204.833,172.5 199.5,172.5C 199.714,170.856 199.38,169.356 198.5,168C 203.823,167.501 209.156,167.334 214.5,167.5 Z"/></g>
<g><path style="opacity:1" fill="#de8d26" d="M 199.5,173.5 C 204.833,173.5 210.167,173.5 215.5,173.5C 215.5,174.833 215.5,176.167 215.5,177.5C 213.833,177.5 212.167,177.5 210.5,177.5C 210.307,173.551 209.807,173.551 209,177.5C 208.431,173.639 207.598,173.639 206.5,177.5C 205.262,173.689 204.596,173.689 204.5,177.5C 202.833,177.5 201.167,177.5 199.5,177.5C 199.5,176.167 199.5,174.833 199.5,173.5 Z"/></g>
<g><path style="opacity:1" fill="#d68824" d="M 191.5,173.5 C 192.833,175.167 192.833,176.833 191.5,178.5C 186.5,178.5 181.5,178.5 176.5,178.5C 176.714,176.856 176.38,175.356 175.5,174C 180.823,173.501 186.156,173.334 191.5,173.5 Z"/></g>
<g><path style="opacity:1" fill="#d38726" d="M 193.5,156.5 C 193.833,157.833 194.167,159.167 194.5,160.5C 193.209,160.263 192.209,160.596 191.5,161.5C 186.71,163.041 182.043,164.874 177.5,167C 182.155,167.499 186.821,167.666 191.5,167.5C 191.5,169.5 191.5,171.5 191.5,173.5C 186.156,173.334 180.823,173.501 175.5,174C 176.38,175.356 176.714,176.856 176.5,178.5C 181.5,178.5 186.5,178.5 191.5,178.5C 191.833,182.5 192.167,186.5 192.5,190.5C 191.518,193.962 191.185,197.629 191.5,201.5C 185.833,201.5 180.167,201.5 174.5,201.5C 174.5,199.833 174.5,198.167 174.5,196.5C 173.041,196.567 171.708,196.234 170.5,195.5C 170.167,195.5 169.833,195.5 169.5,195.5C 168.539,197.265 168.205,199.265 168.5,201.5C 163.167,201.5 157.833,201.5 152.5,201.5C 152.5,200.167 152.5,198.833 152.5,197.5C 155.518,197.665 158.518,197.498 161.5,197C 165.964,195.956 169.798,193.789 173,190.5C 174.445,179.797 169.945,175.964 159.5,179C 157.669,181.925 156.003,184.759 154.5,187.5C 154.5,186.833 154.5,186.167 154.5,185.5C 156.658,176.421 161.991,173.755 170.5,177.5C 171.192,174.23 171.192,170.897 170.5,167.5C 171.833,167.5 173.167,167.5 174.5,167.5C 174.643,165.738 174.309,164.071 173.5,162.5C 174.243,161.818 174.909,161.151 175.5,160.5C 181.072,159.143 186.572,157.477 192,155.5C 192.765,155.57 193.265,155.903 193.5,156.5 Z"/></g>
<g><path style="opacity:1" fill="#ca8126" d="M 238.5,190.5 C 237.518,193.962 237.185,197.629 237.5,201.5C 231.833,201.5 226.167,201.5 220.5,201.5C 220.5,200.167 220.5,198.833 220.5,197.5C 219.5,197.5 218.5,197.5 217.5,197.5C 217.5,195.167 217.5,192.833 217.5,190.5C 217.5,186.5 217.5,182.5 217.5,178.5C 224.5,178.5 231.5,178.5 238.5,178.5C 238.5,182.5 238.5,186.5 238.5,190.5 Z"/></g>
<g><path style="opacity:1" fill="#2d2c44" d="M 154.5,185.5 C 154.5,186.167 154.5,186.833 154.5,187.5C 154.724,191.562 156.724,194.395 160.5,196C 156.514,196.499 152.514,196.666 148.5,196.5C 148.5,198.5 148.5,200.5 148.5,202.5C 147.518,205.962 147.185,209.629 147.5,213.5C 148.216,216.283 148.883,219.116 149.5,222C 149.43,222.765 149.097,223.265 148.5,223.5C 146.045,217.835 141.712,215.669 135.5,217C 129.345,219.969 127.345,224.636 129.5,231C 123.319,231.172 117.319,231.672 111.5,232.5C 108.5,232.5 105.5,232.5 102.5,232.5C 104.607,231.532 106.941,231.198 109.5,231.5C 109.547,218.02 108.214,204.686 105.5,191.5C 105.833,190.833 106.167,190.167 106.5,189.5C 123.112,195.432 139.112,194.098 154.5,185.5 Z"/></g>
<g><path style="opacity:1" fill="#c98124" d="M 195.5,173.5 C 196.833,173.5 198.167,173.5 199.5,173.5C 199.5,174.833 199.5,176.167 199.5,177.5C 201.167,177.5 202.833,177.5 204.5,177.5C 204.596,173.689 205.262,173.689 206.5,177.5C 207.598,173.639 208.431,173.639 209,177.5C 209.807,173.551 210.307,173.551 210.5,177.5C 212.167,177.5 213.833,177.5 215.5,177.5C 215.5,177.833 215.5,178.167 215.5,178.5C 215.167,190.5 214.833,202.5 214.5,214.5C 209.5,214.5 204.5,214.5 199.5,214.5C 199.5,216.167 199.5,217.833 199.5,219.5C 198.167,219.5 196.833,219.5 195.5,219.5C 194.244,213.919 193.577,208.252 193.5,202.5C 194.13,192.829 194.797,183.162 195.5,173.5 Z"/></g>
<g><path style="opacity:1" fill="#3c3241" d="M 169.5,195.5 C 169.833,195.5 170.167,195.5 170.5,195.5C 171.972,203.751 172.638,212.084 172.5,220.5C 171.698,221.952 171.198,223.618 171,225.5C 170.802,223.618 170.302,221.952 169.5,220.5C 169.5,220.167 169.5,219.833 169.5,219.5C 169.784,217.585 169.451,215.919 168.5,214.5C 168.557,208.149 168.89,201.815 169.5,195.5 Z"/></g>
<g><path style="opacity:1" fill="#c98024" d="M 148.5,202.5 C 154.833,202.5 161.167,202.5 167.5,202.5C 167.5,206.167 167.5,209.833 167.5,213.5C 160.833,213.5 154.167,213.5 147.5,213.5C 147.185,209.629 147.518,205.962 148.5,202.5 Z"/></g>
<g><path style="opacity:1" fill="#b67628" d="M 192.5,190.5 C 192.5,194.5 192.5,198.5 192.5,202.5C 192.833,202.5 193.167,202.5 193.5,202.5C 193.577,208.252 194.244,213.919 195.5,219.5C 196.833,219.5 198.167,219.5 199.5,219.5C 216.833,219.833 216.833,220.167 199.5,220.5C 199.5,222.167 199.5,223.833 199.5,225.5C 212.833,225.833 212.833,226.167 199.5,226.5C 199.5,227.833 199.5,229.167 199.5,230.5C 214.167,231.167 214.167,231.833 199.5,232.5C 199.5,233.833 199.5,235.167 199.5,236.5C 205.509,236.666 211.509,236.499 217.5,236C 211.533,232.608 210.033,227.774 213,221.5C 221.204,216.122 226.704,218.122 229.5,227.5C 228.084,233.365 224.417,236.699 218.5,237.5C 210.5,237.5 202.5,237.5 194.5,237.5C 194.825,229.648 194.492,221.982 193.5,214.5C 187.491,214.334 181.491,214.501 175.5,215C 176.38,216.356 176.714,217.856 176.5,219.5C 181.833,219.5 187.167,219.5 192.5,219.5C 192.795,221.735 192.461,223.735 191.5,225.5C 191.5,223.833 191.5,222.167 191.5,220.5C 185.167,220.5 178.833,220.5 172.5,220.5C 172.638,212.084 171.972,203.751 170.5,195.5C 171.708,196.234 173.041,196.567 174.5,196.5C 174.5,198.167 174.5,199.833 174.5,201.5C 180.167,201.5 185.833,201.5 191.5,201.5C 191.185,197.629 191.518,193.962 192.5,190.5 Z"/></g>
<g><path style="opacity:1" fill="#d78926" d="M 192.5,202.5 C 192.5,204.167 192.5,205.833 192.5,207.5C 187.167,207.5 181.833,207.5 176.5,207.5C 176.714,205.856 176.38,204.356 175.5,203C 181.157,202.501 186.824,202.334 192.5,202.5 Z"/></g>
<g><path style="opacity:1" fill="#d28627" d="M 239.5,208.5 C 240.833,210.167 240.833,211.833 239.5,213.5C 234.156,213.666 228.823,213.499 223.5,213C 222.62,211.644 222.286,210.144 222.5,208.5C 228.167,208.5 233.833,208.5 239.5,208.5 Z"/></g>
<g><path style="opacity:1" fill="#d78925" d="M 175.5,209.5 C 180.975,208.511 186.642,208.178 192.5,208.5C 192.5,210.167 192.5,211.833 192.5,213.5C 187.167,213.5 181.833,213.5 176.5,213.5C 176.768,211.901 176.434,210.568 175.5,209.5 Z"/></g>
<g><path style="opacity:1" fill="#b77729" d="M 169.5,195.5 C 168.89,201.815 168.557,208.149 168.5,214.5C 163.5,214.5 158.5,214.5 153.5,214.5C 153.5,216.167 153.5,217.833 153.5,219.5C 158.833,219.5 164.167,219.5 169.5,219.5C 169.5,219.833 169.5,220.167 169.5,220.5C 164.5,220.5 159.5,220.5 154.5,220.5C 154.5,222.167 154.5,223.833 154.5,225.5C 158.833,225.5 163.167,225.5 167.5,225.5C 167.5,225.833 167.5,226.167 167.5,226.5C 161.463,226.829 155.463,226.496 149.5,225.5C 149.137,224.817 148.804,224.15 148.5,223.5C 149.097,223.265 149.43,222.765 149.5,222C 148.883,219.116 148.216,216.283 147.5,213.5C 154.167,213.5 160.833,213.5 167.5,213.5C 167.5,209.833 167.5,206.167 167.5,202.5C 161.167,202.5 154.833,202.5 148.5,202.5C 148.5,200.5 148.5,198.5 148.5,196.5C 152.514,196.666 156.514,196.499 160.5,196C 156.724,194.395 154.724,191.562 154.5,187.5C 156.003,184.759 157.669,181.925 159.5,179C 169.945,175.964 174.445,179.797 173,190.5C 169.798,193.789 165.964,195.956 161.5,197C 158.518,197.498 155.518,197.665 152.5,197.5C 152.5,198.833 152.5,200.167 152.5,201.5C 157.833,201.5 163.167,201.5 168.5,201.5C 168.205,199.265 168.539,197.265 169.5,195.5 Z"/></g>
<g><path style="opacity:1" fill="#dc8d2a" d="M 162.5,181.5 C 163.774,182.189 163.774,183.023 162.5,184C 164.557,184.305 166.557,184.305 168.5,184C 169.167,185.667 169.833,187.333 170.5,189C 169.034,189.635 167.7,190.469 166.5,191.5C 166.167,190.167 165.833,188.833 165.5,187.5C 163.929,188.309 162.262,188.643 160.5,188.5C 160.643,186.738 160.309,185.071 159.5,183.5C 160.602,182.824 161.602,182.158 162.5,181.5 Z"/></g>
<g><path style="opacity:1" fill="#ab7029" d="M 217.5,190.5 C 217.5,192.833 217.5,195.167 217.5,197.5C 218.5,197.5 219.5,197.5 220.5,197.5C 220.5,198.833 220.5,200.167 220.5,201.5C 226.167,201.5 231.833,201.5 237.5,201.5C 237.185,197.629 237.518,193.962 238.5,190.5C 238.5,194.5 238.5,198.5 238.5,202.5C 239.461,204.265 239.795,206.265 239.5,208.5C 233.833,208.5 228.167,208.5 222.5,208.5C 222.286,210.144 222.62,211.644 223.5,213C 228.823,213.499 234.156,213.666 239.5,213.5C 239.196,214.15 238.863,214.817 238.5,215.5C 240.291,216.17 241.958,216.837 243.5,217.5C 241.857,217.48 240.524,218.147 239.5,219.5C 238.892,218.237 238.226,216.57 237.5,214.5C 231.824,214.334 226.157,214.501 220.5,215C 220.833,215.333 221.167,215.667 221.5,216C 219.753,216.352 218.086,216.852 216.5,217.5C 216.915,215.253 217.582,213.086 218.5,211C 216.625,204.07 216.291,197.237 217.5,190.5 Z"/></g>
<g><path style="opacity:1" fill="#d58826" d="M 238.5,202.5 C 238.5,204.167 238.5,205.833 238.5,207.5C 233.156,207.666 227.823,207.499 222.5,207C 221.62,205.644 221.286,204.144 221.5,202.5C 227.167,202.5 232.833,202.5 238.5,202.5 Z"/></g>
<g><path style="opacity:1" fill="#d48725" d="M 193.5,214.5 C 193.784,216.415 193.451,218.081 192.5,219.5C 187.167,219.5 181.833,219.5 176.5,219.5C 176.714,217.856 176.38,216.356 175.5,215C 181.491,214.501 187.491,214.334 193.5,214.5 Z"/></g>
<g><path style="opacity:1" fill="#d48725" d="M 168.5,214.5 C 169.451,215.919 169.784,217.585 169.5,219.5C 164.167,219.5 158.833,219.5 153.5,219.5C 153.5,217.833 153.5,216.167 153.5,214.5C 158.5,214.5 163.5,214.5 168.5,214.5 Z"/></g>
<g><path style="opacity:1" fill="#db8b26" d="M 214.5,214.5 C 215.167,215.5 215.833,216.5 216.5,217.5C 218.086,216.852 219.753,216.352 221.5,216C 221.167,215.667 220.833,215.333 220.5,215C 226.157,214.501 231.824,214.334 237.5,214.5C 238.226,216.57 238.892,218.237 239.5,219.5C 240.524,218.147 241.857,217.48 243.5,217.5C 248.937,220.027 251.604,224.36 251.5,230.5C 250.223,232.914 248.557,233.081 246.5,231C 245.167,229.333 243.833,227.667 242.5,226C 242.833,225.667 243.167,225.333 243.5,225C 241.86,222.946 240.194,222.613 238.5,224C 241.741,225.473 242.074,227.307 239.5,229.5C 226.414,231.573 226.414,232.573 239.5,232.5C 239.5,233.5 239.5,234.5 239.5,235.5C 241.415,235.216 243.081,235.549 244.5,236.5C 235.918,237.47 227.251,237.803 218.5,237.5C 224.417,236.699 228.084,233.365 229.5,227.5C 226.704,218.122 221.204,216.122 213,221.5C 210.033,227.774 211.533,232.608 217.5,236C 211.509,236.499 205.509,236.666 199.5,236.5C 199.5,235.167 199.5,233.833 199.5,232.5C 214.167,231.833 214.167,231.167 199.5,230.5C 199.5,229.167 199.5,227.833 199.5,226.5C 212.833,226.167 212.833,225.833 199.5,225.5C 199.5,223.833 199.5,222.167 199.5,220.5C 216.833,220.167 216.833,219.833 199.5,219.5C 199.5,217.833 199.5,216.167 199.5,214.5C 204.5,214.5 209.5,214.5 214.5,214.5 Z"/></g>
<g><path style="opacity:1" fill="#4a3a3d" d="M 167.5,225.5 C 169.308,226.918 169.975,228.918 169.5,231.5C 167.744,230.448 167.077,228.781 167.5,226.5C 167.5,226.167 167.5,225.833 167.5,225.5 Z"/></g>
<g><path style="opacity:1" fill="#dd8e29" d="M 223.5,221.5 C 224.339,222.641 225.006,223.974 225.5,225.5C 224.302,225.94 223.135,226.273 222,226.5C 222.019,228.107 222.185,229.774 222.5,231.5C 220.533,231.261 218.699,231.594 217,232.5C 216.212,230.835 215.878,229.169 216,227.5C 216.667,228.167 217.333,228.833 218,229.5C 218.497,227.19 218.663,224.857 218.5,222.5C 220.415,222.784 222.081,222.451 223.5,221.5 Z"/></g>
<g><path style="opacity:1" fill="#c17d28" d="M 251.5,230.5 C 255.769,233.407 255.435,235.74 250.5,237.5C 249.201,236.91 248.368,235.91 248,234.5C 247.184,235.823 246.017,236.489 244.5,236.5C 243.081,235.549 241.415,235.216 239.5,235.5C 239.5,234.5 239.5,233.5 239.5,232.5C 226.414,232.573 226.414,231.573 239.5,229.5C 242.074,227.307 241.741,225.473 238.5,224C 240.194,222.613 241.86,222.946 243.5,225C 243.167,225.333 242.833,225.667 242.5,226C 243.833,227.667 245.167,229.333 246.5,231C 248.557,233.081 250.223,232.914 251.5,230.5 Z"/></g>
<g><path style="opacity:1" fill="#cb8225" d="M 169.5,220.5 C 170.302,221.952 170.802,223.618 171,225.5C 171.198,223.618 171.698,221.952 172.5,220.5C 178.833,220.5 185.167,220.5 191.5,220.5C 191.5,222.167 191.5,223.833 191.5,225.5C 190.853,226.274 190.52,227.274 190.5,228.5C 191.795,231.379 192.462,234.379 192.5,237.5C 185.5,237.5 178.5,237.5 171.5,237.5C 171.975,234.918 171.308,232.918 169.5,231.5C 169.975,228.918 169.308,226.918 167.5,225.5C 163.167,225.5 158.833,225.5 154.5,225.5C 154.5,223.833 154.5,222.167 154.5,220.5C 159.5,220.5 164.5,220.5 169.5,220.5 Z"/></g>
<g><path style="opacity:1" fill="#9f9fa0" d="M 47.5,232.5 C 53.4007,231.743 58.734,233.076 63.5,236.5C 58.2079,237.495 52.8746,237.828 47.5,237.5C 47.5,235.833 47.5,234.167 47.5,232.5 Z"/></g>
<g><path style="opacity:1" fill="#a3a1a0" d="M 102.5,232.5 C 105.5,232.5 108.5,232.5 111.5,232.5C 113.48,234.105 115.813,235.272 118.5,236C 117.944,236.383 117.611,236.883 117.5,237.5C 112.5,237.5 107.5,237.5 102.5,237.5C 102.5,235.833 102.5,234.167 102.5,232.5 Z"/></g>
<g><path style="opacity:1" fill="#ce8426" d="M 148.5,223.5 C 148.804,224.15 149.137,224.817 149.5,225.5C 155.463,226.496 161.463,226.829 167.5,226.5C 167.077,228.781 167.744,230.448 169.5,231.5C 169.5,233.5 169.5,235.5 169.5,237.5C 162.5,237.5 155.5,237.5 148.5,237.5C 148.66,235.801 148.494,234.134 148,232.5C 146.482,234.348 144.649,235.848 142.5,237C 134.263,237.045 125.93,237.211 117.5,237.5C 117.611,236.883 117.944,236.383 118.5,236C 115.813,235.272 113.48,234.105 111.5,232.5C 117.319,231.672 123.319,231.172 129.5,231C 127.345,224.636 129.345,219.969 135.5,217C 141.712,215.669 146.045,217.835 148.5,223.5 Z"/></g>
<g><path style="opacity:1" fill="#b3772f" d="M 135.5,218.5 C 145.157,217.658 148.99,221.991 147,231.5C 141.667,236.833 136.333,236.833 131,231.5C 129.379,225.923 130.879,221.589 135.5,218.5 Z"/></g>
<g><path style="opacity:1" fill="#de8e29" d="M 140.5,221.5 C 141.452,222.452 142.452,223.452 143.5,224.5C 142.726,225.711 141.893,225.711 141,224.5C 141.155,226.811 141.155,229.144 141,231.5C 139.667,232.167 138.333,232.833 137,233.5C 136.365,232.034 135.531,230.7 134.5,229.5C 135.616,229.598 136.616,229.098 137.5,228C 136.767,226.234 136.433,224.401 136.5,222.5C 138.099,222.768 139.432,222.434 140.5,221.5 Z"/></g>
</svg>
