<svg width="17" height="17" viewBox="0 0 17 17" fill="none" xmlns="http://www.w3.org/2000/svg">
<path d="M12.5645 16.1147H4.43286C2.66911 16.1147 1.23828 14.6839 1.23828 12.9202V8.15309C1.23828 6.38934 2.66911 4.9585 4.43286 4.9585H12.5645C14.3283 4.9585 15.7591 6.38934 15.7591 8.15309V9.17309C15.7591 9.4635 15.5183 9.70434 15.2279 9.70434H13.797C13.5491 9.70434 13.3224 9.79642 13.1595 9.96642L13.1524 9.97351C12.9541 10.1648 12.862 10.4268 12.8833 10.696C12.9258 11.1635 13.372 11.5389 13.882 11.5389H15.2279C15.5183 11.5389 15.7591 11.7797 15.7591 12.0701V12.9131C15.7591 14.6839 14.3283 16.1147 12.5645 16.1147ZM4.43286 6.021C3.25703 6.021 2.30078 6.97725 2.30078 8.15309V12.9202C2.30078 14.096 3.25703 15.0522 4.43286 15.0522H12.5645C13.7404 15.0522 14.6966 14.096 14.6966 12.9202V12.6085H13.882C12.8124 12.6085 11.9058 11.8152 11.8208 10.7952C11.7641 10.2143 11.9766 9.64059 12.4016 9.22268C12.7699 8.84726 13.2658 8.64184 13.797 8.64184H14.6966V8.15309C14.6966 6.97725 13.7404 6.021 12.5645 6.021H4.43286Z" fill="#EA9528"/>
<path d="M1.76953 9.32151C1.47911 9.32151 1.23828 9.08068 1.23828 8.79026V5.55321C1.23828 4.4978 1.90411 3.54151 2.8887 3.16609L8.51287 1.04109C9.0937 0.821508 9.73828 0.899459 10.2412 1.25363C10.7512 1.60779 11.0487 2.18154 11.0487 2.79779V5.48945C11.0487 5.77986 10.8079 6.0207 10.5174 6.0207C10.227 6.0207 9.9862 5.77986 9.9862 5.48945V2.79779C9.9862 2.52862 9.8587 2.2807 9.63203 2.12486C9.40536 1.96903 9.1362 1.93361 8.8812 2.03278L3.25703 4.15777C2.68328 4.37736 2.2937 4.93696 2.2937 5.55321V8.79026C2.30078 9.08776 2.05995 9.32151 1.76953 9.32151Z" fill="#EA9528"/>
<path d="M13.8828 12.6083C12.8132 12.6083 11.9065 11.8149 11.8215 10.7949C11.7648 10.207 11.9773 9.63327 12.4023 9.21535C12.7636 8.84702 13.2594 8.6416 13.7907 8.6416H15.264C15.9653 8.66285 16.5036 9.21532 16.5036 9.89532V11.3545C16.5036 12.0345 15.9653 12.587 15.2853 12.6083H13.8828ZM15.2498 9.7041H13.7978C13.5498 9.7041 13.3232 9.79618 13.1603 9.96618C12.9548 10.1645 12.8557 10.4337 12.884 10.7028C12.9265 11.1703 13.3728 11.5458 13.8828 11.5458H15.2711C15.3632 11.5458 15.4482 11.4608 15.4482 11.3545V9.89532C15.4482 9.78907 15.3632 9.71118 15.2498 9.7041Z" fill="#EA9528"/>
<path d="M9.91536 9.03125H4.95703C4.66661 9.03125 4.42578 8.79042 4.42578 8.5C4.42578 8.20958 4.66661 7.96875 4.95703 7.96875H9.91536C10.2058 7.96875 10.4466 8.20958 10.4466 8.5C10.4466 8.79042 10.2058 9.03125 9.91536 9.03125Z" fill="#EA9528"/>
</svg>
