<svg width="249" height="56" viewBox="0 0 249 56" fill="none" xmlns="http://www.w3.org/2000/svg">
<rect width="249" height="56" rx="8" fill="white"/>
<g clip-path="url(#clip0_6219_12113)">
<path d="M26 46C35.9411 46 44 37.9411 44 28C44 18.0589 35.9411 10 26 10C16.0589 10 8 18.0589 8 28C8 37.9411 16.0589 46 26 46Z" fill="#3C5A9A"/>
<path d="M31.8521 15.5249H27.8646C25.4983 15.5249 22.8664 16.5201 22.8664 19.9502C22.8779 21.1453 22.8664 22.2899 22.8664 23.5781H20.1289V27.9342H22.9511V40.4747H28.137V27.8514H31.5599L31.8696 23.5659H28.0476C28.0476 23.5659 28.0562 21.6594 28.0476 21.1058C28.0476 19.7503 29.458 19.828 29.5429 19.828C30.214 19.828 31.519 19.8299 31.854 19.828V15.5249H31.8521Z" fill="white"/>
</g>
<path d="M55.7727 24.7727C55.7045 24.197 55.428 23.75 54.9432 23.4318C54.4583 23.1136 53.8636 22.9545 53.1591 22.9545C52.6439 22.9545 52.1932 23.0379 51.8068 23.2045C51.4242 23.3712 51.125 23.6004 50.9091 23.892C50.697 24.1837 50.5909 24.5152 50.5909 24.8864C50.5909 25.197 50.6648 25.464 50.8125 25.6875C50.964 25.9072 51.1572 26.0909 51.392 26.2386C51.6269 26.3826 51.8731 26.5019 52.1307 26.5966C52.3883 26.6875 52.625 26.7614 52.8409 26.8182L54.0227 27.1364C54.3258 27.2159 54.6629 27.3258 55.0341 27.4659C55.4091 27.6061 55.767 27.7973 56.108 28.0398C56.4527 28.2784 56.7367 28.5852 56.9602 28.9602C57.1837 29.3352 57.2955 29.7955 57.2955 30.3409C57.2955 30.9697 57.1307 31.5379 56.8011 32.0455C56.4754 32.553 55.9981 32.9564 55.3693 33.2557C54.7443 33.5549 53.9848 33.7045 53.0909 33.7045C52.2576 33.7045 51.536 33.5701 50.9261 33.3011C50.3201 33.0322 49.8428 32.6572 49.4943 32.1761C49.1496 31.6951 48.9545 31.1364 48.9091 30.5H50.3636C50.4015 30.9394 50.5492 31.303 50.8068 31.5909C51.0682 31.875 51.3977 32.0871 51.7955 32.2273C52.197 32.3636 52.6288 32.4318 53.0909 32.4318C53.6288 32.4318 54.1117 32.3447 54.5398 32.1705C54.9678 31.9924 55.3068 31.7462 55.5568 31.4318C55.8068 31.1136 55.9318 30.7424 55.9318 30.3182C55.9318 29.9318 55.8239 29.6174 55.608 29.375C55.392 29.1326 55.108 28.9356 54.7557 28.7841C54.4034 28.6326 54.0227 28.5 53.6136 28.3864L52.1818 27.9773C51.2727 27.7159 50.553 27.3428 50.0227 26.858C49.4924 26.3731 49.2273 25.7386 49.2273 24.9545C49.2273 24.303 49.4034 23.7348 49.7557 23.25C50.1117 22.7614 50.589 22.3826 51.1875 22.1136C51.7898 21.8409 52.4621 21.7045 53.2045 21.7045C53.9545 21.7045 54.6212 21.839 55.2045 22.108C55.7879 22.3731 56.25 22.7367 56.5909 23.1989C56.9356 23.661 57.1174 24.1856 57.1364 24.7727H55.7727ZM59.4304 33.5V24.7727H60.7713V33.5H59.4304ZM60.1122 23.3182C59.8509 23.3182 59.6255 23.2292 59.4361 23.0511C59.2505 22.8731 59.1577 22.6591 59.1577 22.4091C59.1577 22.1591 59.2505 21.9451 59.4361 21.767C59.6255 21.589 59.8509 21.5 60.1122 21.5C60.3736 21.5 60.5971 21.589 60.7827 21.767C60.9721 21.9451 61.0668 22.1591 61.0668 22.4091C61.0668 22.6591 60.9721 22.8731 60.7827 23.0511C60.5971 23.2292 60.3736 23.3182 60.1122 23.3182ZM66.75 36.9545C66.1023 36.9545 65.5455 36.8712 65.0795 36.7045C64.6136 36.5417 64.2254 36.3258 63.9148 36.0568C63.608 35.7917 63.3636 35.5076 63.1818 35.2045L64.25 34.4545C64.3712 34.6136 64.5246 34.7955 64.7102 35C64.8958 35.2083 65.1496 35.3883 65.4716 35.5398C65.7973 35.6951 66.2235 35.7727 66.75 35.7727C67.4545 35.7727 68.036 35.6023 68.4943 35.2614C68.9527 34.9205 69.1818 34.3864 69.1818 33.6591V31.8864H69.0682C68.9697 32.0455 68.8295 32.2424 68.6477 32.4773C68.4697 32.7083 68.2121 32.9148 67.875 33.0966C67.5417 33.2746 67.0909 33.3636 66.5227 33.3636C65.8182 33.3636 65.1856 33.197 64.625 32.8636C64.0682 32.5303 63.6269 32.0455 63.3011 31.4091C62.9792 30.7727 62.8182 30 62.8182 29.0909C62.8182 28.197 62.9754 27.4186 63.2898 26.7557C63.6042 26.089 64.0417 25.5739 64.6023 25.2102C65.1629 24.8428 65.8106 24.6591 66.5455 24.6591C67.1136 24.6591 67.5644 24.7538 67.8977 24.9432C68.2348 25.1288 68.4924 25.3409 68.6705 25.5795C68.8523 25.8144 68.9924 26.0076 69.0909 26.1591H69.2273V24.7727H70.5227V33.75C70.5227 34.5 70.3523 35.1098 70.0114 35.5795C69.6742 36.053 69.2197 36.3996 68.6477 36.6193C68.0795 36.8428 67.447 36.9545 66.75 36.9545ZM66.7045 32.1591C67.2424 32.1591 67.697 32.036 68.0682 31.7898C68.4394 31.5436 68.7216 31.1894 68.9148 30.7273C69.108 30.2652 69.2045 29.7121 69.2045 29.0682C69.2045 28.4394 69.1098 27.8845 68.9205 27.4034C68.7311 26.9223 68.4508 26.5455 68.0795 26.2727C67.7083 26 67.25 25.8636 66.7045 25.8636C66.1364 25.8636 65.6629 26.0076 65.2841 26.2955C64.9091 26.5833 64.6269 26.9697 64.4375 27.4545C64.2519 27.9394 64.1591 28.4773 64.1591 29.0682C64.1591 29.6742 64.2538 30.2102 64.4432 30.6761C64.6364 31.1383 64.9205 31.5019 65.2955 31.767C65.6742 32.0284 66.1439 32.1591 66.7045 32.1591ZM74.3182 28.25V33.5H72.9773V24.7727H74.2727V26.1364H74.3864C74.5909 25.6932 74.9015 25.3371 75.3182 25.0682C75.7348 24.7955 76.2727 24.6591 76.9318 24.6591C77.5227 24.6591 78.0398 24.7803 78.483 25.0227C78.9261 25.2614 79.2708 25.625 79.517 26.1136C79.7633 26.5985 79.8864 27.2121 79.8864 27.9545V33.5H78.5455V28.0455C78.5455 27.3598 78.3674 26.8258 78.0114 26.4432C77.6553 26.0568 77.1667 25.8636 76.5455 25.8636C76.1174 25.8636 75.7348 25.9564 75.3977 26.142C75.0644 26.3277 74.8011 26.5985 74.608 26.9545C74.4148 27.3106 74.3182 27.7424 74.3182 28.25ZM92.3366 29.9318V24.7727H93.6776V33.5H92.3366V32.0227H92.2457C92.0412 32.4659 91.723 32.8428 91.2912 33.1534C90.8594 33.4602 90.3139 33.6136 89.6548 33.6136C89.1094 33.6136 88.6245 33.4943 88.2003 33.2557C87.776 33.0133 87.4427 32.6496 87.2003 32.1648C86.9579 31.6761 86.8366 31.0606 86.8366 30.3182V24.7727H88.1776V30.2273C88.1776 30.8636 88.3556 31.3712 88.7116 31.75C89.0715 32.1288 89.5298 32.3182 90.0866 32.3182C90.42 32.3182 90.759 32.233 91.1037 32.0625C91.4522 31.892 91.7438 31.6307 91.9787 31.2784C92.2173 30.9261 92.3366 30.4773 92.3366 29.9318ZM96.1335 36.7727V24.7727H97.429V26.1591H97.5881C97.6866 26.0076 97.8229 25.8144 97.9972 25.5795C98.1752 25.3409 98.429 25.1288 98.7585 24.9432C99.0919 24.7538 99.5426 24.6591 100.111 24.6591C100.846 24.6591 101.493 24.8428 102.054 25.2102C102.615 25.5777 103.052 26.0985 103.366 26.7727C103.681 27.447 103.838 28.2424 103.838 29.1591C103.838 30.0833 103.681 30.8845 103.366 31.5625C103.052 32.2367 102.616 32.7595 102.06 33.1307C101.503 33.4981 100.861 33.6818 100.134 33.6818C99.5729 33.6818 99.1241 33.589 98.7869 33.4034C98.4498 33.214 98.1903 33 98.0085 32.7614C97.8267 32.5189 97.6866 32.3182 97.5881 32.1591H97.4744V36.7727H96.1335ZM97.4517 29.1364C97.4517 29.7955 97.5483 30.3769 97.7415 30.8807C97.9347 31.3807 98.2169 31.7727 98.5881 32.0568C98.9593 32.3371 99.4138 32.4773 99.9517 32.4773C100.512 32.4773 100.98 32.3295 101.355 32.0341C101.734 31.7348 102.018 31.3333 102.207 30.8295C102.401 30.322 102.497 29.7576 102.497 29.1364C102.497 28.5227 102.402 27.9697 102.213 27.4773C102.027 26.9811 101.745 26.589 101.366 26.3011C100.991 26.0095 100.52 25.8636 99.9517 25.8636C99.4063 25.8636 98.9479 26.0019 98.5767 26.2784C98.2055 26.5511 97.9252 26.9337 97.7358 27.4261C97.5464 27.9148 97.4517 28.4848 97.4517 29.1364ZM112.361 33.5L109.702 24.7727H111.111L112.997 31.4545H113.088L114.952 24.7727H116.384L118.224 31.4318H118.315L120.202 24.7727H121.611L118.952 33.5H117.634L115.724 26.7955H115.588L113.679 33.5H112.361ZM123.384 33.5V24.7727H124.724V33.5H123.384ZM124.065 23.3182C123.804 23.3182 123.579 23.2292 123.389 23.0511C123.204 22.8731 123.111 22.6591 123.111 22.4091C123.111 22.1591 123.204 21.9451 123.389 21.767C123.579 21.589 123.804 21.5 124.065 21.5C124.327 21.5 124.55 21.589 124.736 21.767C124.925 21.9451 125.02 22.1591 125.02 22.4091C125.02 22.6591 124.925 22.8731 124.736 23.0511C124.55 23.2292 124.327 23.3182 124.065 23.3182ZM130.976 24.7727V25.9091H126.453V24.7727H130.976ZM127.771 22.6818H129.112V31C129.112 31.3788 129.167 31.6629 129.277 31.8523C129.391 32.0379 129.535 32.1629 129.709 32.2273C129.887 32.2879 130.074 32.3182 130.271 32.3182C130.419 32.3182 130.54 32.3106 130.635 32.2955C130.73 32.2765 130.805 32.2614 130.862 32.25L131.135 33.4545C131.044 33.4886 130.917 33.5227 130.754 33.5568C130.591 33.5947 130.385 33.6136 130.135 33.6136C129.756 33.6136 129.385 33.5322 129.021 33.3693C128.661 33.2064 128.362 32.9583 128.124 32.625C127.889 32.2917 127.771 31.8712 127.771 31.3636V22.6818ZM134.521 28.25V33.5H133.18V21.8636H134.521V26.1364H134.635C134.839 25.6856 135.146 25.3277 135.555 25.0625C135.968 24.7936 136.518 24.6591 137.203 24.6591C137.798 24.6591 138.319 24.7784 138.766 25.017C139.213 25.2519 139.559 25.6136 139.805 26.1023C140.055 26.5871 140.18 27.2045 140.18 27.9545V33.5H138.839V28.0455C138.839 27.3523 138.66 26.8163 138.3 26.4375C137.944 26.0549 137.449 25.8636 136.817 25.8636C136.377 25.8636 135.983 25.9564 135.635 26.142C135.29 26.3277 135.018 26.5985 134.817 26.9545C134.62 27.3106 134.521 27.7424 134.521 28.25ZM147.315 33.5V21.8636H154.293V23.1136H148.724V27.0455H153.77V28.2955H148.724V33.5H147.315ZM159.092 33.7045C158.539 33.7045 158.037 33.6004 157.587 33.392C157.136 33.1799 156.778 32.875 156.513 32.4773C156.248 32.0758 156.115 31.5909 156.115 31.0227C156.115 30.5227 156.214 30.1174 156.411 29.8068C156.607 29.4924 156.871 29.2462 157.2 29.0682C157.53 28.8902 157.893 28.7576 158.291 28.6705C158.693 28.5795 159.096 28.5076 159.501 28.4545C160.032 28.3864 160.462 28.3352 160.791 28.3011C161.125 28.2633 161.367 28.2008 161.518 28.1136C161.674 28.0265 161.751 27.875 161.751 27.6591V27.6136C161.751 27.053 161.598 26.6174 161.291 26.3068C160.988 25.9962 160.528 25.8409 159.911 25.8409C159.27 25.8409 158.768 25.9811 158.405 26.2614C158.041 26.5417 157.786 26.8409 157.638 27.1591L156.365 26.7045C156.592 26.1742 156.895 25.7614 157.274 25.4659C157.657 25.1667 158.073 24.9583 158.524 24.8409C158.979 24.7197 159.426 24.6591 159.865 24.6591C160.145 24.6591 160.467 24.6932 160.831 24.7614C161.198 24.8258 161.553 24.9602 161.893 25.1648C162.238 25.3693 162.524 25.678 162.751 26.0909C162.979 26.5038 163.092 27.0568 163.092 27.75V33.5H161.751V32.3182H161.683C161.592 32.5076 161.441 32.7102 161.229 32.9261C161.017 33.142 160.734 33.3258 160.382 33.4773C160.03 33.6288 159.6 33.7045 159.092 33.7045ZM159.297 32.5C159.827 32.5 160.274 32.3958 160.638 32.1875C161.005 31.9792 161.282 31.7102 161.467 31.3807C161.657 31.0511 161.751 30.7045 161.751 30.3409V29.1136C161.695 29.1818 161.57 29.2443 161.376 29.3011C161.187 29.3542 160.967 29.4015 160.717 29.4432C160.471 29.4811 160.231 29.5152 159.996 29.5455C159.765 29.572 159.577 29.5947 159.433 29.6136C159.085 29.6591 158.759 29.733 158.456 29.8352C158.157 29.9337 157.914 30.0833 157.729 30.2841C157.547 30.4811 157.456 30.75 157.456 31.0909C157.456 31.5568 157.628 31.9091 157.973 32.1477C158.321 32.3826 158.763 32.5 159.297 32.5ZM169.085 33.6818C168.267 33.6818 167.563 33.4886 166.972 33.1023C166.381 32.7159 165.926 32.1837 165.608 31.5057C165.29 30.8277 165.131 30.053 165.131 29.1818C165.131 28.2955 165.294 27.5133 165.619 26.8352C165.949 26.1534 166.407 25.6212 166.994 25.2386C167.585 24.8523 168.275 24.6591 169.062 24.6591C169.676 24.6591 170.229 24.7727 170.722 25C171.214 25.2273 171.617 25.5455 171.932 25.9545C172.246 26.3636 172.441 26.8409 172.517 27.3864H171.176C171.074 26.9886 170.847 26.6364 170.494 26.3295C170.146 26.0189 169.676 25.8636 169.085 25.8636C168.563 25.8636 168.104 26 167.71 26.2727C167.32 26.5417 167.015 26.9223 166.795 27.4148C166.58 27.9034 166.472 28.4773 166.472 29.1364C166.472 29.8106 166.578 30.3977 166.79 30.8977C167.006 31.3977 167.309 31.786 167.699 32.0625C168.093 32.339 168.555 32.4773 169.085 32.4773C169.434 32.4773 169.75 32.4167 170.034 32.2955C170.318 32.1742 170.559 32 170.756 31.7727C170.953 31.5455 171.093 31.2727 171.176 30.9545H172.517C172.441 31.4697 172.254 31.9337 171.955 32.3466C171.659 32.7557 171.267 33.0814 170.778 33.3239C170.294 33.5625 169.729 33.6818 169.085 33.6818ZM178.136 33.6818C177.295 33.6818 176.57 33.4962 175.96 33.125C175.354 32.75 174.886 32.2273 174.557 31.5568C174.231 30.8826 174.068 30.0985 174.068 29.2045C174.068 28.3106 174.231 27.5227 174.557 26.8409C174.886 26.1553 175.345 25.6212 175.932 25.2386C176.523 24.8523 177.212 24.6591 178 24.6591C178.455 24.6591 178.903 24.7348 179.347 24.8864C179.79 25.0379 180.193 25.2841 180.557 25.625C180.92 25.9621 181.21 26.4091 181.426 26.9659C181.642 27.5227 181.75 28.2083 181.75 29.0227V29.5909H175.023V28.4318H180.386C180.386 27.9394 180.288 27.5 180.091 27.1136C179.898 26.7273 179.621 26.4223 179.261 26.1989C178.905 25.9754 178.485 25.8636 178 25.8636C177.466 25.8636 177.004 25.9962 176.614 26.2614C176.227 26.5227 175.93 26.8636 175.722 27.2841C175.513 27.7045 175.409 28.1553 175.409 28.6364V29.4091C175.409 30.0682 175.523 30.6269 175.75 31.0852C175.981 31.5398 176.301 31.8864 176.71 32.125C177.119 32.3598 177.595 32.4773 178.136 32.4773C178.489 32.4773 178.807 32.428 179.091 32.3295C179.379 32.2273 179.627 32.0758 179.835 31.875C180.044 31.6705 180.205 31.4167 180.318 31.1136L181.614 31.4773C181.477 31.9167 181.248 32.303 180.926 32.6364C180.604 32.9659 180.206 33.2235 179.733 33.4091C179.259 33.5909 178.727 33.6818 178.136 33.6818ZM183.972 33.5V21.8636H185.312V26.1591H185.426C185.525 26.0076 185.661 25.8144 185.835 25.5795C186.013 25.3409 186.267 25.1288 186.597 24.9432C186.93 24.7538 187.381 24.6591 187.949 24.6591C188.684 24.6591 189.331 24.8428 189.892 25.2102C190.453 25.5777 190.89 26.0985 191.205 26.7727C191.519 27.447 191.676 28.2424 191.676 29.1591C191.676 30.0833 191.519 30.8845 191.205 31.5625C190.89 32.2367 190.455 32.7595 189.898 33.1307C189.341 33.4981 188.699 33.6818 187.972 33.6818C187.411 33.6818 186.962 33.589 186.625 33.4034C186.288 33.214 186.028 33 185.847 32.7614C185.665 32.5189 185.525 32.3182 185.426 32.1591H185.267V33.5H183.972ZM185.29 29.1364C185.29 29.7955 185.386 30.3769 185.58 30.8807C185.773 31.3807 186.055 31.7727 186.426 32.0568C186.797 32.3371 187.252 32.4773 187.79 32.4773C188.35 32.4773 188.818 32.3295 189.193 32.0341C189.572 31.7348 189.856 31.3333 190.045 30.8295C190.239 30.322 190.335 29.7576 190.335 29.1364C190.335 28.5227 190.241 27.9697 190.051 27.4773C189.866 26.9811 189.583 26.589 189.205 26.3011C188.83 26.0095 188.358 25.8636 187.79 25.8636C187.244 25.8636 186.786 26.0019 186.415 26.2784C186.044 26.5511 185.763 26.9337 185.574 27.4261C185.384 27.9148 185.29 28.4848 185.29 29.1364ZM197.273 33.6818C196.485 33.6818 195.794 33.4943 195.199 33.1193C194.608 32.7443 194.146 32.2197 193.812 31.5455C193.483 30.8712 193.318 30.0833 193.318 29.1818C193.318 28.2727 193.483 27.4792 193.812 26.8011C194.146 26.1231 194.608 25.5966 195.199 25.2216C195.794 24.8466 196.485 24.6591 197.273 24.6591C198.061 24.6591 198.75 24.8466 199.341 25.2216C199.936 25.5966 200.398 26.1231 200.727 26.8011C201.061 27.4792 201.227 28.2727 201.227 29.1818C201.227 30.0833 201.061 30.8712 200.727 31.5455C200.398 32.2197 199.936 32.7443 199.341 33.1193C198.75 33.4943 198.061 33.6818 197.273 33.6818ZM197.273 32.4773C197.871 32.4773 198.364 32.3239 198.75 32.017C199.136 31.7102 199.422 31.3068 199.608 30.8068C199.794 30.3068 199.886 29.7652 199.886 29.1818C199.886 28.5985 199.794 28.0549 199.608 27.5511C199.422 27.0473 199.136 26.6402 198.75 26.3295C198.364 26.0189 197.871 25.8636 197.273 25.8636C196.674 25.8636 196.182 26.0189 195.795 26.3295C195.409 26.6402 195.123 27.0473 194.938 27.5511C194.752 28.0549 194.659 28.5985 194.659 29.1818C194.659 29.7652 194.752 30.3068 194.938 30.8068C195.123 31.3068 195.409 31.7102 195.795 32.017C196.182 32.3239 196.674 32.4773 197.273 32.4773ZM206.82 33.6818C206.032 33.6818 205.34 33.4943 204.746 33.1193C204.155 32.7443 203.693 32.2197 203.359 31.5455C203.03 30.8712 202.865 30.0833 202.865 29.1818C202.865 28.2727 203.03 27.4792 203.359 26.8011C203.693 26.1231 204.155 25.5966 204.746 25.2216C205.34 24.8466 206.032 24.6591 206.82 24.6591C207.607 24.6591 208.297 24.8466 208.888 25.2216C209.482 25.5966 209.945 26.1231 210.274 26.8011C210.607 27.4792 210.774 28.2727 210.774 29.1818C210.774 30.0833 210.607 30.8712 210.274 31.5455C209.945 32.2197 209.482 32.7443 208.888 33.1193C208.297 33.4943 207.607 33.6818 206.82 33.6818ZM206.82 32.4773C207.418 32.4773 207.911 32.3239 208.297 32.017C208.683 31.7102 208.969 31.3068 209.155 30.8068C209.34 30.3068 209.433 29.7652 209.433 29.1818C209.433 28.5985 209.34 28.0549 209.155 27.5511C208.969 27.0473 208.683 26.6402 208.297 26.3295C207.911 26.0189 207.418 25.8636 206.82 25.8636C206.221 25.8636 205.729 26.0189 205.342 26.3295C204.956 26.6402 204.67 27.0473 204.484 27.5511C204.299 28.0549 204.206 28.5985 204.206 29.1818C204.206 29.7652 204.299 30.3068 204.484 30.8068C204.67 31.3068 204.956 31.7102 205.342 32.017C205.729 32.3239 206.221 32.4773 206.82 32.4773ZM214.071 30.3182L214.048 28.6591H214.321L218.139 24.7727H219.798L215.73 28.8864H215.616L214.071 30.3182ZM212.821 33.5V21.8636H214.162V33.5H212.821ZM218.366 33.5L214.957 29.1818L215.912 28.25L220.071 33.5H218.366Z" fill="#181818"/>
<rect x="0.5" y="0.5" width="248" height="55" rx="7.5" stroke="black" stroke-opacity="0.12"/>
<defs>
<clipPath id="clip0_6219_12113">
<rect width="36" height="36" fill="white" transform="translate(8 10)"/>
</clipPath>
</defs>
</svg>
