<svg width="19" height="19" viewBox="0 0 19 19" fill="none" xmlns="http://www.w3.org/2000/svg">
<g clip-path="url(#clip0_6815_9114)">
<path d="M9.50112 18.3216C14.3731 18.3216 18.3225 14.3721 18.3225 9.50014C18.3225 4.6282 14.3731 0.678711 9.50112 0.678711C4.62918 0.678711 0.679688 4.6282 0.679688 9.50014C0.679688 14.3721 4.62918 18.3216 9.50112 18.3216Z" stroke="#EA9528" stroke-width="1.5" stroke-linecap="round" stroke-linejoin="round"/>
<path d="M7.46484 7.46443C7.46484 7.0618 7.58424 6.66822 7.80792 6.33344C8.03161 5.99867 8.34955 5.73775 8.72152 5.58367C9.0935 5.42959 9.50282 5.38928 9.89771 5.46783C10.2926 5.54638 10.6553 5.74026 10.94 6.02496C11.2247 6.30966 11.4186 6.67239 11.4972 7.06728C11.5757 7.46217 11.5354 7.87148 11.3813 8.24346C11.2272 8.61544 10.9663 8.93337 10.6315 9.15706C10.2968 9.38075 9.90318 9.50014 9.50056 9.50014V10.8573" stroke="#EA9528" stroke-width="1.5" stroke-linecap="round" stroke-linejoin="round"/>
<path d="M9.49833 12.8931C9.29701 12.8931 9.10022 12.9528 8.93284 13.0646C8.76545 13.1765 8.63499 13.3354 8.55795 13.5214C8.48091 13.7074 8.46075 13.9121 8.50003 14.1095C8.5393 14.3069 8.63624 14.4883 8.77859 14.6307C8.92094 14.773 9.10231 14.8699 9.29975 14.9092C9.4972 14.9485 9.70185 14.9283 9.88784 14.8513C10.0738 14.7743 10.2328 14.6438 10.3446 14.4764C10.4565 14.309 10.5162 14.1122 10.5162 13.9109C10.5127 13.6421 10.4043 13.3852 10.2142 13.1951C10.024 13.0049 9.76719 12.8966 9.49833 12.8931Z" fill="#EA9528"/>
</g>
<defs>
<clipPath id="clip0_6815_9114">
<rect width="19" height="19" fill="white"/>
</clipPath>
</defs>
</svg>
