<svg width="19" height="19" viewBox="0 0 19 19" fill="none" xmlns="http://www.w3.org/2000/svg">
<g clip-path="url(#clip0_6815_8048)">
<path d="M9.49916 18.3216C14.3711 18.3216 18.3206 14.3721 18.3206 9.50014C18.3206 4.6282 14.3711 0.678711 9.49916 0.678711C4.62722 0.678711 0.677734 4.6282 0.677734 9.50014C0.677734 14.3721 4.62722 18.3216 9.49916 18.3216Z" stroke="#8C8B99" stroke-width="1.5" stroke-linecap="round" stroke-linejoin="round"/>
<path d="M7.46484 7.46443C7.46484 7.0618 7.58424 6.66822 7.80792 6.33344C8.03161 5.99867 8.34955 5.73775 8.72152 5.58367C9.0935 5.42959 9.50282 5.38928 9.89771 5.46783C10.2926 5.54638 10.6553 5.74026 10.94 6.02496C11.2247 6.30966 11.4186 6.67239 11.4972 7.06728C11.5757 7.46217 11.5354 7.87148 11.3813 8.24346C11.2272 8.61544 10.9663 8.93337 10.6315 9.15706C10.2968 9.38075 9.90318 9.50014 9.50056 9.50014V10.8573" stroke="#8C8B99" stroke-width="1.5" stroke-linecap="round" stroke-linejoin="round"/>
<path d="M9.50028 12.8931C9.29897 12.8931 9.10217 12.9528 8.93479 13.0646C8.7674 13.1765 8.63694 13.3354 8.5599 13.5214C8.48286 13.7074 8.46271 13.9121 8.50198 14.1095C8.54125 14.3069 8.6382 14.4883 8.78055 14.6307C8.9229 14.773 9.10426 14.8699 9.30171 14.9092C9.49915 14.9485 9.70381 14.9283 9.8898 14.8513C10.0758 14.7743 10.2348 14.6438 10.3466 14.4764C10.4584 14.309 10.5181 14.1122 10.5181 13.9109C10.5146 13.6421 10.4063 13.3852 10.2161 13.1951C10.026 13.0049 9.76914 12.8966 9.50028 12.8931Z" fill="#8C8B99"/>
</g>
<defs>
<clipPath id="clip0_6815_8048">
<rect width="19" height="19" fill="white"/>
</clipPath>
</defs>
</svg>
