<svg width="20" height="20" viewBox="0 0 20 20" fill="none" xmlns="http://www.w3.org/2000/svg">
<path d="M2.65679 9.08523L2.63159 9.26068H2.80884H3.65412C3.86028 9.26068 4.058 9.34257 4.20377 9.48835C4.34955 9.63413 4.43145 9.83184 4.43145 10.038V14.8258C4.43145 15.0319 4.34955 15.2297 4.20377 15.3754C4.058 15.5212 3.86028 15.6031 3.65412 15.6031H2.72319C1.77028 15.6031 1.01493 14.8859 1.01493 14.028V10.1711C1.01493 5.12281 5.12232 1.01542 10.1706 1.01542C15.219 1.01542 19.3263 5.12281 19.3263 10.1711V14.028C19.3263 14.8859 18.571 15.6031 17.6181 15.6031H17.4645V15.7567C17.4645 17.7255 15.8632 19.3268 13.8944 19.3268H8.46238V16.8412H11.8789V17.6186V17.7722H12.0325H13.8944C15.006 17.7722 15.9098 16.8684 15.9098 15.7567V10.038C15.9098 9.83184 15.9917 9.63413 16.1375 9.48835C16.2833 9.34257 16.481 9.26068 16.6872 9.26068H17.5324H17.7097L17.6845 9.08523C17.1562 5.40834 13.9927 2.57007 10.1706 2.57007C6.3486 2.57007 3.18505 5.40834 2.65679 9.08523Z" fill="#EA9528" stroke="#232234" stroke-width="0.307207"/>
</svg>
