<svg width="20" height="20" viewBox="0 0 20 20" fill="none" xmlns="http://www.w3.org/2000/svg">
<path d="M2.65484 9.08523L2.62963 9.26068H2.80688H3.65217C3.85833 9.26068 4.05604 9.34257 4.20182 9.48835C4.3476 9.63413 4.4295 9.83184 4.4295 10.038V14.8258C4.4295 15.0319 4.3476 15.2297 4.20182 15.3754C4.05604 15.5212 3.85833 15.6031 3.65217 15.6031H2.72124C1.76833 15.6031 1.01298 14.8859 1.01298 14.028V10.1711C1.01298 5.12281 5.12036 1.01542 10.1687 1.01542C15.217 1.01542 19.3244 5.12281 19.3244 10.1711V14.028C19.3244 14.8859 18.569 15.6031 17.6161 15.6031H17.4625V15.7567C17.4625 17.7255 15.8612 19.3268 13.8924 19.3268H8.46043V16.8412H11.8769V17.6186V17.7722H12.0305H13.8924C15.0041 17.7722 15.9079 16.8684 15.9079 15.7567V10.038C15.9079 9.83184 15.9898 9.63413 16.1355 9.48835C16.2813 9.34257 16.479 9.26068 16.6852 9.26068H17.5305H17.7077L17.6825 9.08523C17.1543 5.40834 13.9907 2.57007 10.1687 2.57007C6.34665 2.57007 3.1831 5.40834 2.65484 9.08523Z" fill="#C0BFC7" stroke="#232234" stroke-width="0.307207"/>
</svg>
