<svg width="20" height="20" viewBox="0 0 20 20" fill="none" xmlns="http://www.w3.org/2000/svg">
<path opacity="0.2" d="M19.9453 9.99998C19.9453 15.4938 15.4918 19.9474 9.99809 19.9474C4.50432 19.9474 0.0507812 15.4938 0.0507812 9.99998C0.0507812 4.50627 4.50432 0.0527344 9.99809 0.0527344C15.4917 0.0527344 19.9453 4.50627 19.9453 9.99998" fill="#00A478"/>
<path d="M8.97943 9.82617V8.08594H6.61914V6.56055H13.2147V8.10742H10.8544V9.82617H8.97943Z" fill="#00A478"/>
<path fill-rule="evenodd" clip-rule="evenodd" d="M5.60352 10.0195C5.60352 9.43945 7.50057 8.9668 9.86087 8.9668C12.2212 8.9668 14.1182 9.43945 14.1182 10.0195C14.1182 10.5996 12.2212 11.0723 9.86087 11.0723C7.50057 11.0723 5.60352 10.5996 5.60352 10.0195ZM13.7657 10.0196C13.6113 9.80472 12.3318 9.13871 9.86126 9.13871C7.39067 9.13871 6.11126 9.78324 5.95684 10.0196C6.11126 10.2344 7.39067 10.5567 9.86126 10.5567C12.3539 10.5567 13.6113 10.2344 13.7657 10.0196Z" fill="#00A478"/>
<path d="M10.8539 10.3623V9.15918C10.5451 9.1377 10.2142 9.11621 9.88333 9.11621C9.57451 9.11621 9.28774 9.11621 9.00098 9.1377V10.3408C9.26568 10.3408 9.57451 10.3623 9.88333 10.3623C10.2142 10.3838 10.5451 10.3838 10.8539 10.3623Z" fill="#00A478"/>
<path d="M9.86087 11.0713C9.55204 11.0713 9.26528 11.0713 8.97852 11.0498V14.251H10.8315V11.0283C10.5226 11.0498 10.1918 11.0713 9.86087 11.0713Z" fill="#00A478"/>
</svg>
