<svg width="220" height="56" viewBox="0 0 220 56" fill="none" xmlns="http://www.w3.org/2000/svg">
<rect width="220" height="56" rx="8" fill="white"/>
<path d="M22.0542 15.8464C18.9222 16.9192 16.251 19.2664 14.7678 22.2256C14.2494 23.248 13.875 24.3352 13.6518 25.4584C13.083 28.252 13.479 31.2256 14.7678 33.7744C15.603 35.4376 16.8054 36.9136 18.2598 38.0656C19.635 39.16 21.2334 39.9664 22.9326 40.42C25.071 40.996 27.3534 40.9816 29.5134 40.492C31.4646 40.0456 33.3078 39.1096 34.7766 37.756C36.3318 36.3232 37.4406 34.444 38.031 32.4208C38.6718 30.2104 38.7582 27.856 38.355 25.5952C34.323 25.5952 30.291 25.5952 26.2518 25.5952C26.2518 27.2656 26.2518 28.9432 26.2518 30.6136C28.5846 30.6136 30.9246 30.6136 33.2574 30.6136C32.9838 32.2192 32.0334 33.6808 30.6798 34.588C29.8302 35.1568 28.8582 35.5312 27.8502 35.704C26.835 35.8768 25.791 35.8984 24.783 35.6968C23.7534 35.4952 22.7742 35.0632 21.9174 34.4584C20.5494 33.5008 19.5054 32.0896 18.9726 30.5128C18.4254 28.9072 18.4182 27.1144 18.9726 25.5088C19.3542 24.3784 19.995 23.3272 20.8374 22.4776C21.8742 21.412 23.2206 20.656 24.675 20.3464C25.9206 20.08 27.231 20.1304 28.4478 20.4976C29.4846 20.8144 30.435 21.376 31.2198 22.1248C32.0118 21.34 32.7966 20.548 33.5886 19.7632C33.999 19.3384 34.4382 18.9352 34.8414 18.496C33.6462 17.3872 32.235 16.4944 30.7014 15.9328C27.951 14.9032 24.8334 14.8816 22.0542 15.8464Z" fill="white"/>
<path d="M22.0546 15.8462C24.8338 14.8814 27.9514 14.903 30.7162 15.9254C32.2498 16.487 33.6538 17.3798 34.8562 18.4886C34.453 18.9206 34.021 19.331 33.6034 19.7558C32.8114 20.5406 32.0266 21.3326 31.2346 22.1174C30.4498 21.3686 29.4994 20.7998 28.4626 20.4902C27.2458 20.123 25.9354 20.0726 24.6898 20.339C23.2354 20.6486 21.889 21.4118 20.8522 22.4702C20.0098 23.3198 19.369 24.371 18.9874 25.5014C17.5834 24.4142 16.1794 23.3198 14.7754 22.2326C16.2514 19.2662 18.9226 16.919 22.0546 15.8462Z" fill="#E94435"/>
<path d="M13.6518 25.4584C13.875 24.3352 14.2566 23.248 14.7678 22.2256C16.1718 23.3128 17.5758 24.4072 18.9798 25.4944C18.4254 27.1 18.4326 28.8928 18.9798 30.4984C17.5758 31.5856 16.1718 32.68 14.7678 33.7672C13.479 31.2328 13.083 28.252 13.6518 25.4584Z" fill="#F8BB15"/>
<path d="M26.259 25.5879C30.291 25.5879 34.323 25.5879 38.3622 25.5879C38.7654 27.8487 38.679 30.2031 38.0382 32.4135C37.4478 34.4367 36.339 36.3231 34.7838 37.7487C33.423 36.6903 32.055 35.6319 30.7014 34.5735C32.055 33.6735 33.0054 32.2047 33.279 30.5991C30.9462 30.5991 28.6062 30.5991 26.2734 30.5991C26.2518 28.9359 26.259 27.2655 26.259 25.5879Z" fill="#547DBE"/>
<path d="M14.7676 33.7742C16.1716 32.687 17.5756 31.5926 18.9796 30.5054C19.5124 32.0894 20.5564 33.4934 21.9244 34.451C22.7812 35.0558 23.7604 35.4806 24.79 35.6894C25.798 35.891 26.8492 35.8694 27.8572 35.6966C28.8652 35.5238 29.8372 35.1494 30.6868 34.5806C32.0476 35.639 33.4156 36.6974 34.7692 37.7558C33.3004 39.1166 31.4572 40.0454 29.506 40.4918C27.3532 40.9814 25.0708 40.9958 22.9252 40.4198C21.226 39.9662 19.6276 39.1598 18.2524 38.0654C16.8052 36.9062 15.6028 35.4302 14.7676 33.7742Z" fill="#34A751"/>
<path d="M55.7727 24.7727C55.7045 24.197 55.428 23.75 54.9432 23.4318C54.4583 23.1136 53.8636 22.9545 53.1591 22.9545C52.6439 22.9545 52.1932 23.0379 51.8068 23.2045C51.4242 23.3712 51.125 23.6004 50.9091 23.892C50.697 24.1837 50.5909 24.5152 50.5909 24.8864C50.5909 25.197 50.6648 25.464 50.8125 25.6875C50.964 25.9072 51.1572 26.0909 51.392 26.2386C51.6269 26.3826 51.8731 26.5019 52.1307 26.5966C52.3883 26.6875 52.625 26.7614 52.8409 26.8182L54.0227 27.1364C54.3258 27.2159 54.6629 27.3258 55.0341 27.4659C55.4091 27.6061 55.767 27.7973 56.108 28.0398C56.4527 28.2784 56.7367 28.5852 56.9602 28.9602C57.1837 29.3352 57.2955 29.7955 57.2955 30.3409C57.2955 30.9697 57.1307 31.5379 56.8011 32.0455C56.4754 32.553 55.9981 32.9564 55.3693 33.2557C54.7443 33.5549 53.9848 33.7045 53.0909 33.7045C52.2576 33.7045 51.536 33.5701 50.9261 33.3011C50.3201 33.0322 49.8428 32.6572 49.4943 32.1761C49.1496 31.6951 48.9545 31.1364 48.9091 30.5H50.3636C50.4015 30.9394 50.5492 31.303 50.8068 31.5909C51.0682 31.875 51.3977 32.0871 51.7955 32.2273C52.197 32.3636 52.6288 32.4318 53.0909 32.4318C53.6288 32.4318 54.1117 32.3447 54.5398 32.1705C54.9678 31.9924 55.3068 31.7462 55.5568 31.4318C55.8068 31.1136 55.9318 30.7424 55.9318 30.3182C55.9318 29.9318 55.8239 29.6174 55.608 29.375C55.392 29.1326 55.108 28.9356 54.7557 28.7841C54.4034 28.6326 54.0227 28.5 53.6136 28.3864L52.1818 27.9773C51.2727 27.7159 50.553 27.3428 50.0227 26.858C49.4924 26.3731 49.2273 25.7386 49.2273 24.9545C49.2273 24.303 49.4034 23.7348 49.7557 23.25C50.1117 22.7614 50.589 22.3826 51.1875 22.1136C51.7898 21.8409 52.4621 21.7045 53.2045 21.7045C53.9545 21.7045 54.6212 21.839 55.2045 22.108C55.7879 22.3731 56.25 22.7367 56.5909 23.1989C56.9356 23.661 57.1174 24.1856 57.1364 24.7727H55.7727ZM59.4304 33.5V24.7727H60.7713V33.5H59.4304ZM60.1122 23.3182C59.8509 23.3182 59.6255 23.2292 59.4361 23.0511C59.2505 22.8731 59.1577 22.6591 59.1577 22.4091C59.1577 22.1591 59.2505 21.9451 59.4361 21.767C59.6255 21.589 59.8509 21.5 60.1122 21.5C60.3736 21.5 60.5971 21.589 60.7827 21.767C60.9721 21.9451 61.0668 22.1591 61.0668 22.4091C61.0668 22.6591 60.9721 22.8731 60.7827 23.0511C60.5971 23.2292 60.3736 23.3182 60.1122 23.3182ZM66.75 36.9545C66.1023 36.9545 65.5455 36.8712 65.0795 36.7045C64.6136 36.5417 64.2254 36.3258 63.9148 36.0568C63.608 35.7917 63.3636 35.5076 63.1818 35.2045L64.25 34.4545C64.3712 34.6136 64.5246 34.7955 64.7102 35C64.8958 35.2083 65.1496 35.3883 65.4716 35.5398C65.7973 35.6951 66.2235 35.7727 66.75 35.7727C67.4545 35.7727 68.036 35.6023 68.4943 35.2614C68.9527 34.9205 69.1818 34.3864 69.1818 33.6591V31.8864H69.0682C68.9697 32.0455 68.8295 32.2424 68.6477 32.4773C68.4697 32.7083 68.2121 32.9148 67.875 33.0966C67.5417 33.2746 67.0909 33.3636 66.5227 33.3636C65.8182 33.3636 65.1856 33.197 64.625 32.8636C64.0682 32.5303 63.6269 32.0455 63.3011 31.4091C62.9792 30.7727 62.8182 30 62.8182 29.0909C62.8182 28.197 62.9754 27.4186 63.2898 26.7557C63.6042 26.089 64.0417 25.5739 64.6023 25.2102C65.1629 24.8428 65.8106 24.6591 66.5455 24.6591C67.1136 24.6591 67.5644 24.7538 67.8977 24.9432C68.2348 25.1288 68.4924 25.3409 68.6705 25.5795C68.8523 25.8144 68.9924 26.0076 69.0909 26.1591H69.2273V24.7727H70.5227V33.75C70.5227 34.5 70.3523 35.1098 70.0114 35.5795C69.6742 36.053 69.2197 36.3996 68.6477 36.6193C68.0795 36.8428 67.447 36.9545 66.75 36.9545ZM66.7045 32.1591C67.2424 32.1591 67.697 32.036 68.0682 31.7898C68.4394 31.5436 68.7216 31.1894 68.9148 30.7273C69.108 30.2652 69.2045 29.7121 69.2045 29.0682C69.2045 28.4394 69.1098 27.8845 68.9205 27.4034C68.7311 26.9223 68.4508 26.5455 68.0795 26.2727C67.7083 26 67.25 25.8636 66.7045 25.8636C66.1364 25.8636 65.6629 26.0076 65.2841 26.2955C64.9091 26.5833 64.6269 26.9697 64.4375 27.4545C64.2519 27.9394 64.1591 28.4773 64.1591 29.0682C64.1591 29.6742 64.2538 30.2102 64.4432 30.6761C64.6364 31.1383 64.9205 31.5019 65.2955 31.767C65.6742 32.0284 66.1439 32.1591 66.7045 32.1591ZM74.3182 28.25V33.5H72.9773V24.7727H74.2727V26.1364H74.3864C74.5909 25.6932 74.9015 25.3371 75.3182 25.0682C75.7348 24.7955 76.2727 24.6591 76.9318 24.6591C77.5227 24.6591 78.0398 24.7803 78.483 25.0227C78.9261 25.2614 79.2708 25.625 79.517 26.1136C79.7633 26.5985 79.8864 27.2121 79.8864 27.9545V33.5H78.5455V28.0455C78.5455 27.3598 78.3674 26.8258 78.0114 26.4432C77.6553 26.0568 77.1667 25.8636 76.5455 25.8636C76.1174 25.8636 75.7348 25.9564 75.3977 26.142C75.0644 26.3277 74.8011 26.5985 74.608 26.9545C74.4148 27.3106 74.3182 27.7424 74.3182 28.25ZM92.3366 29.9318V24.7727H93.6776V33.5H92.3366V32.0227H92.2457C92.0412 32.4659 91.723 32.8428 91.2912 33.1534C90.8594 33.4602 90.3139 33.6136 89.6548 33.6136C89.1094 33.6136 88.6245 33.4943 88.2003 33.2557C87.776 33.0133 87.4427 32.6496 87.2003 32.1648C86.9579 31.6761 86.8366 31.0606 86.8366 30.3182V24.7727H88.1776V30.2273C88.1776 30.8636 88.3556 31.3712 88.7116 31.75C89.0715 32.1288 89.5298 32.3182 90.0866 32.3182C90.42 32.3182 90.759 32.233 91.1037 32.0625C91.4522 31.892 91.7438 31.6307 91.9787 31.2784C92.2173 30.9261 92.3366 30.4773 92.3366 29.9318ZM96.1335 36.7727V24.7727H97.429V26.1591H97.5881C97.6866 26.0076 97.8229 25.8144 97.9972 25.5795C98.1752 25.3409 98.429 25.1288 98.7585 24.9432C99.0919 24.7538 99.5426 24.6591 100.111 24.6591C100.846 24.6591 101.493 24.8428 102.054 25.2102C102.615 25.5777 103.052 26.0985 103.366 26.7727C103.681 27.447 103.838 28.2424 103.838 29.1591C103.838 30.0833 103.681 30.8845 103.366 31.5625C103.052 32.2367 102.616 32.7595 102.06 33.1307C101.503 33.4981 100.861 33.6818 100.134 33.6818C99.5729 33.6818 99.1241 33.589 98.7869 33.4034C98.4498 33.214 98.1903 33 98.0085 32.7614C97.8267 32.5189 97.6866 32.3182 97.5881 32.1591H97.4744V36.7727H96.1335ZM97.4517 29.1364C97.4517 29.7955 97.5483 30.3769 97.7415 30.8807C97.9347 31.3807 98.2169 31.7727 98.5881 32.0568C98.9593 32.3371 99.4138 32.4773 99.9517 32.4773C100.512 32.4773 100.98 32.3295 101.355 32.0341C101.734 31.7348 102.018 31.3333 102.207 30.8295C102.401 30.322 102.497 29.7576 102.497 29.1364C102.497 28.5227 102.402 27.9697 102.213 27.4773C102.027 26.9811 101.745 26.589 101.366 26.3011C100.991 26.0095 100.52 25.8636 99.9517 25.8636C99.4063 25.8636 98.9479 26.0019 98.5767 26.2784C98.2055 26.5511 97.9252 26.9337 97.7358 27.4261C97.5464 27.9148 97.4517 28.4848 97.4517 29.1364ZM112.361 33.5L109.702 24.7727H111.111L112.997 31.4545H113.088L114.952 24.7727H116.384L118.224 31.4318H118.315L120.202 24.7727H121.611L118.952 33.5H117.634L115.724 26.7955H115.588L113.679 33.5H112.361ZM123.384 33.5V24.7727H124.724V33.5H123.384ZM124.065 23.3182C123.804 23.3182 123.579 23.2292 123.389 23.0511C123.204 22.8731 123.111 22.6591 123.111 22.4091C123.111 22.1591 123.204 21.9451 123.389 21.767C123.579 21.589 123.804 21.5 124.065 21.5C124.327 21.5 124.55 21.589 124.736 21.767C124.925 21.9451 125.02 22.1591 125.02 22.4091C125.02 22.6591 124.925 22.8731 124.736 23.0511C124.55 23.2292 124.327 23.3182 124.065 23.3182ZM130.976 24.7727V25.9091H126.453V24.7727H130.976ZM127.771 22.6818H129.112V31C129.112 31.3788 129.167 31.6629 129.277 31.8523C129.391 32.0379 129.535 32.1629 129.709 32.2273C129.887 32.2879 130.074 32.3182 130.271 32.3182C130.419 32.3182 130.54 32.3106 130.635 32.2955C130.73 32.2765 130.805 32.2614 130.862 32.25L131.135 33.4545C131.044 33.4886 130.917 33.5227 130.754 33.5568C130.591 33.5947 130.385 33.6136 130.135 33.6136C129.756 33.6136 129.385 33.5322 129.021 33.3693C128.661 33.2064 128.362 32.9583 128.124 32.625C127.889 32.2917 127.771 31.8712 127.771 31.3636V22.6818ZM134.521 28.25V33.5H133.18V21.8636H134.521V26.1364H134.635C134.839 25.6856 135.146 25.3277 135.555 25.0625C135.968 24.7936 136.518 24.6591 137.203 24.6591C137.798 24.6591 138.319 24.7784 138.766 25.017C139.213 25.2519 139.559 25.6136 139.805 26.1023C140.055 26.5871 140.18 27.2045 140.18 27.9545V33.5H138.839V28.0455C138.839 27.3523 138.66 26.8163 138.3 26.4375C137.944 26.0549 137.449 25.8636 136.817 25.8636C136.377 25.8636 135.983 25.9564 135.635 26.142C135.29 26.3277 135.018 26.5985 134.817 26.9545C134.62 27.3106 134.521 27.7424 134.521 28.25ZM155.27 25.5C155.145 25.1174 154.98 24.7746 154.776 24.4716C154.575 24.1648 154.334 23.9034 154.054 23.6875C153.777 23.4716 153.463 23.3068 153.111 23.1932C152.759 23.0795 152.372 23.0227 151.952 23.0227C151.262 23.0227 150.635 23.2008 150.071 23.5568C149.507 23.9129 149.058 24.4375 148.724 25.1307C148.391 25.8239 148.224 26.6742 148.224 27.6818C148.224 28.6894 148.393 29.5398 148.73 30.233C149.067 30.9261 149.524 31.4508 150.099 31.8068C150.675 32.1629 151.323 32.3409 152.043 32.3409C152.709 32.3409 153.296 32.1989 153.804 31.9148C154.315 31.6269 154.713 31.2216 154.997 30.6989C155.285 30.1723 155.429 29.553 155.429 28.8409L155.861 28.9318H152.361V27.6818H156.793V28.9318C156.793 29.8902 156.588 30.7235 156.179 31.4318C155.774 32.1402 155.213 32.6894 154.497 33.0795C153.785 33.4659 152.967 33.6591 152.043 33.6591C151.012 33.6591 150.107 33.4167 149.327 32.9318C148.55 32.447 147.944 31.7576 147.509 30.8636C147.077 29.9697 146.861 28.9091 146.861 27.6818C146.861 26.7614 146.984 25.9337 147.23 25.1989C147.48 24.4602 147.832 23.8314 148.287 23.3125C148.741 22.7936 149.279 22.3958 149.901 22.1193C150.522 21.8428 151.205 21.7045 151.952 21.7045C152.565 21.7045 153.137 21.7973 153.668 21.983C154.202 22.1648 154.677 22.4242 155.094 22.7614C155.514 23.0947 155.865 23.4943 156.145 23.9602C156.425 24.4223 156.618 24.9356 156.724 25.5H155.27ZM162.57 33.6818C161.782 33.6818 161.09 33.4943 160.496 33.1193C159.905 32.7443 159.443 32.2197 159.109 31.5455C158.78 30.8712 158.615 30.0833 158.615 29.1818C158.615 28.2727 158.78 27.4792 159.109 26.8011C159.443 26.1231 159.905 25.5966 160.496 25.2216C161.09 24.8466 161.782 24.6591 162.57 24.6591C163.357 24.6591 164.047 24.8466 164.638 25.2216C165.232 25.5966 165.695 26.1231 166.024 26.8011C166.357 27.4792 166.524 28.2727 166.524 29.1818C166.524 30.0833 166.357 30.8712 166.024 31.5455C165.695 32.2197 165.232 32.7443 164.638 33.1193C164.047 33.4943 163.357 33.6818 162.57 33.6818ZM162.57 32.4773C163.168 32.4773 163.661 32.3239 164.047 32.017C164.433 31.7102 164.719 31.3068 164.905 30.8068C165.09 30.3068 165.183 29.7652 165.183 29.1818C165.183 28.5985 165.09 28.0549 164.905 27.5511C164.719 27.0473 164.433 26.6402 164.047 26.3295C163.661 26.0189 163.168 25.8636 162.57 25.8636C161.971 25.8636 161.479 26.0189 161.092 26.3295C160.706 26.6402 160.42 27.0473 160.234 27.5511C160.049 28.0549 159.956 28.5985 159.956 29.1818C159.956 29.7652 160.049 30.3068 160.234 30.8068C160.42 31.3068 160.706 31.7102 161.092 32.017C161.479 32.3239 161.971 32.4773 162.57 32.4773ZM172.116 33.6818C171.329 33.6818 170.637 33.4943 170.043 33.1193C169.452 32.7443 168.99 32.2197 168.656 31.5455C168.327 30.8712 168.162 30.0833 168.162 29.1818C168.162 28.2727 168.327 27.4792 168.656 26.8011C168.99 26.1231 169.452 25.5966 170.043 25.2216C170.637 24.8466 171.329 24.6591 172.116 24.6591C172.904 24.6591 173.594 24.8466 174.185 25.2216C174.779 25.5966 175.241 26.1231 175.571 26.8011C175.904 27.4792 176.071 28.2727 176.071 29.1818C176.071 30.0833 175.904 30.8712 175.571 31.5455C175.241 32.2197 174.779 32.7443 174.185 33.1193C173.594 33.4943 172.904 33.6818 172.116 33.6818ZM172.116 32.4773C172.715 32.4773 173.207 32.3239 173.594 32.017C173.98 31.7102 174.266 31.3068 174.452 30.8068C174.637 30.3068 174.73 29.7652 174.73 29.1818C174.73 28.5985 174.637 28.0549 174.452 27.5511C174.266 27.0473 173.98 26.6402 173.594 26.3295C173.207 26.0189 172.715 25.8636 172.116 25.8636C171.518 25.8636 171.026 26.0189 170.639 26.3295C170.253 26.6402 169.967 27.0473 169.781 27.5511C169.596 28.0549 169.503 28.5985 169.503 29.1818C169.503 29.7652 169.596 30.3068 169.781 30.8068C169.967 31.3068 170.253 31.7102 170.639 32.017C171.026 32.3239 171.518 32.4773 172.116 32.4773ZM181.641 36.9545C180.993 36.9545 180.436 36.8712 179.97 36.7045C179.504 36.5417 179.116 36.3258 178.805 36.0568C178.499 35.7917 178.254 35.5076 178.072 35.2045L179.141 34.4545C179.262 34.6136 179.415 34.7955 179.601 35C179.786 35.2083 180.04 35.3883 180.362 35.5398C180.688 35.6951 181.114 35.7727 181.641 35.7727C182.345 35.7727 182.927 35.6023 183.385 35.2614C183.843 34.9205 184.072 34.3864 184.072 33.6591V31.8864H183.959C183.86 32.0455 183.72 32.2424 183.538 32.4773C183.36 32.7083 183.103 32.9148 182.766 33.0966C182.432 33.2746 181.982 33.3636 181.413 33.3636C180.709 33.3636 180.076 33.197 179.516 32.8636C178.959 32.5303 178.518 32.0455 178.192 31.4091C177.87 30.7727 177.709 30 177.709 29.0909C177.709 28.197 177.866 27.4186 178.18 26.7557C178.495 26.089 178.932 25.5739 179.493 25.2102C180.054 24.8428 180.701 24.6591 181.436 24.6591C182.004 24.6591 182.455 24.7538 182.788 24.9432C183.125 25.1288 183.383 25.3409 183.561 25.5795C183.743 25.8144 183.883 26.0076 183.982 26.1591H184.118V24.7727H185.413V33.75C185.413 34.5 185.243 35.1098 184.902 35.5795C184.565 36.053 184.11 36.3996 183.538 36.6193C182.97 36.8428 182.338 36.9545 181.641 36.9545ZM181.595 32.1591C182.133 32.1591 182.588 32.036 182.959 31.7898C183.33 31.5436 183.612 31.1894 183.805 30.7273C183.999 30.2652 184.095 29.7121 184.095 29.0682C184.095 28.4394 184 27.8845 183.811 27.4034C183.622 26.9223 183.341 26.5455 182.97 26.2727C182.599 26 182.141 25.8636 181.595 25.8636C181.027 25.8636 180.554 26.0076 180.175 26.2955C179.8 26.5833 179.518 26.9697 179.328 27.4545C179.143 27.9394 179.05 28.4773 179.05 29.0682C179.05 29.6742 179.144 30.2102 179.334 30.6761C179.527 31.1383 179.811 31.5019 180.186 31.767C180.565 32.0284 181.035 32.1591 181.595 32.1591ZM189.209 21.8636V33.5H187.868V21.8636H189.209ZM195.324 33.6818C194.483 33.6818 193.758 33.4962 193.148 33.125C192.542 32.75 192.074 32.2273 191.744 31.5568C191.419 30.8826 191.256 30.0985 191.256 29.2045C191.256 28.3106 191.419 27.5227 191.744 26.8409C192.074 26.1553 192.532 25.6212 193.119 25.2386C193.71 24.8523 194.4 24.6591 195.188 24.6591C195.642 24.6591 196.091 24.7348 196.534 24.8864C196.977 25.0379 197.381 25.2841 197.744 25.625C198.108 25.9621 198.398 26.4091 198.614 26.9659C198.83 27.5227 198.938 28.2083 198.938 29.0227V29.5909H192.21V28.4318H197.574C197.574 27.9394 197.475 27.5 197.278 27.1136C197.085 26.7273 196.809 26.4223 196.449 26.1989C196.093 25.9754 195.672 25.8636 195.188 25.8636C194.653 25.8636 194.191 25.9962 193.801 26.2614C193.415 26.5227 193.117 26.8636 192.909 27.2841C192.701 27.7045 192.597 28.1553 192.597 28.6364V29.4091C192.597 30.0682 192.71 30.6269 192.938 31.0852C193.169 31.5398 193.489 31.8864 193.898 32.125C194.307 32.3598 194.782 32.4773 195.324 32.4773C195.676 32.4773 195.994 32.428 196.278 32.3295C196.566 32.2273 196.814 32.0758 197.023 31.875C197.231 31.6705 197.392 31.4167 197.506 31.1136L198.801 31.4773C198.665 31.9167 198.436 32.303 198.114 32.6364C197.792 32.9659 197.394 33.2235 196.92 33.4091C196.447 33.5909 195.915 33.6818 195.324 33.6818Z" fill="#181818"/>
<rect x="0.5" y="0.5" width="219" height="55" rx="7.5" stroke="black" stroke-opacity="0.12"/>
</svg>
