<svg width="67" height="67" viewBox="0 0 67 67" fill="none" xmlns="http://www.w3.org/2000/svg">
<path d="M34.3941 18.2559C38.817 18.2559 39.3689 18.2721 41.1042 18.3535C42.8379 18.4349 44.0181 18.7068 45.0567 19.1105C46.1311 19.524 47.0362 20.084 47.9413 20.9874C48.7691 21.8012 49.4096 22.7856 49.8183 23.8721C50.2203 24.909 50.4938 26.0909 50.5752 27.8246C50.6517 29.5599 50.6729 30.1117 50.6729 34.5347C50.6729 38.9576 50.6566 39.5095 50.5752 41.2448C50.4938 42.9785 50.2203 44.1587 49.8183 45.1973C49.4108 46.2844 48.7701 47.269 47.9413 48.0819C47.1273 48.9094 46.143 49.5499 45.0567 49.9589C44.0197 50.361 42.8379 50.6345 41.1042 50.7158C39.3689 50.7924 38.817 50.8135 34.3941 50.8135C29.9711 50.8135 29.4193 50.7972 27.6839 50.7158C25.9502 50.6345 24.77 50.361 23.7314 49.9589C22.6445 49.5511 21.66 48.9104 20.8468 48.0819C20.0189 47.2683 19.3784 46.2839 18.9699 45.1973C18.5662 44.1604 18.2943 42.9785 18.2129 41.2448C18.1364 39.5095 18.1152 38.9576 18.1152 34.5347C18.1152 30.1117 18.1315 29.5599 18.2129 27.8246C18.2943 26.0892 18.5662 24.9106 18.9699 23.8721C19.3772 22.7849 20.0179 21.8003 20.8468 20.9874C21.6602 20.1592 22.6447 19.5187 23.7314 19.1105C24.77 18.7068 25.9486 18.4349 27.6839 18.3535C29.4193 18.277 29.9711 18.2559 34.3941 18.2559ZM34.3941 26.3953C32.2354 26.3953 30.1651 27.2528 28.6386 28.7793C27.1122 30.3057 26.2546 32.376 26.2546 34.5347C26.2546 36.6934 27.1122 38.7637 28.6386 40.2901C30.1651 41.8166 32.2354 42.6741 34.3941 42.6741C36.5528 42.6741 38.6231 41.8166 40.1495 40.2901C41.6759 38.7637 42.5335 36.6934 42.5335 34.5347C42.5335 32.376 41.6759 30.3057 40.1495 28.7793C38.6231 27.2528 36.5528 26.3953 34.3941 26.3953ZM44.9753 25.9883C44.9753 25.4486 44.7609 24.9311 44.3793 24.5494C43.9977 24.1678 43.4801 23.9534 42.9404 23.9534C42.4008 23.9534 41.8832 24.1678 41.5016 24.5494C41.12 24.9311 40.9056 25.4486 40.9056 25.9883C40.9056 26.528 41.12 27.0456 41.5016 27.4272C41.8832 27.8088 42.4008 28.0232 42.9404 28.0232C43.4801 28.0232 43.9977 27.8088 44.3793 27.4272C44.7609 27.0456 44.9753 26.528 44.9753 25.9883ZM34.3941 29.651C35.6893 29.651 36.9315 30.1656 37.8473 31.0814C38.7632 31.9973 39.2777 33.2395 39.2777 34.5347C39.2777 35.8299 38.7632 37.0721 37.8473 37.988C36.9315 38.9038 35.6893 39.4183 34.3941 39.4183C33.0988 39.4183 31.8567 38.9038 30.9408 37.988C30.0249 37.0721 29.5104 35.8299 29.5104 34.5347C29.5104 33.2395 30.0249 31.9973 30.9408 31.0814C31.8567 30.1656 33.0988 29.651 34.3941 29.651Z" fill="white"/>
<circle cx="33.5" cy="33.5" r="33" stroke="#EA9528"/>
</svg>
