<svg width="42" height="40" viewBox="0 0 42 40" fill="none" xmlns="http://www.w3.org/2000/svg">
<path d="M2.96797 32.8123V32.8498L2.97647 32.8862C3.29408 34.2474 4.1781 35.2792 5.64491 35.9602C7.09671 36.6343 9.12364 36.9686 11.7659 36.9686C14.4057 36.9686 16.405 36.6389 17.8093 35.9712C19.232 35.2949 20.0483 34.2674 20.28 32.9151L20.2846 32.8879V32.8603V29.854C20.2846 29.3534 20.0858 28.8733 19.7318 28.5193C19.3778 28.1654 18.8977 27.9665 18.3971 27.9665H4.85547C4.35487 27.9665 3.87478 28.1654 3.5208 28.5193C3.16683 28.8733 2.96797 29.3534 2.96797 29.854V32.8123ZM34.1159 16.5082H33.9824L33.8874 16.602L29.3749 21.0624L29.3748 21.0625C29.0552 21.3787 28.6492 21.5932 28.2079 21.6792C27.7666 21.7651 27.3097 21.7186 26.8948 21.5456C26.4798 21.3725 26.1253 21.0806 25.8759 20.7065C25.6265 20.3325 25.4932 19.893 25.493 19.4434V16.804V16.5133L25.2041 16.481C24.1377 16.3618 23.1526 15.8537 22.4372 15.0539C21.7218 14.2541 21.3263 13.2187 21.3263 12.1457V4.854C21.3263 3.697 21.7859 2.58738 22.6041 1.76925C23.4222 0.951123 24.5318 0.491504 25.6888 0.491504H37.1471C38.3041 0.491504 39.4138 0.951123 40.2319 1.76925C41.05 2.58738 41.5096 3.697 41.5096 4.854V12.1457C41.5096 12.7186 41.3968 13.2858 41.1776 13.8151C40.9583 14.3444 40.637 14.8253 40.2319 15.2304C39.8268 15.6355 39.3459 15.9569 38.8166 16.1761C38.2873 16.3953 37.72 16.5082 37.1471 16.5082H34.1159ZM25.6888 14.0332H27.9659V18.1957V18.9734L28.5193 18.4269L32.9681 14.0332H37.1492C37.6498 14.0332 38.1299 13.8343 38.4839 13.4803L38.2541 13.2505L38.4839 13.4803C38.8379 13.1264 39.0367 12.6463 39.0367 12.1457V4.854C39.0367 4.35341 38.8379 3.87332 38.4839 3.51934L38.2541 3.74915L38.4839 3.51934C38.1299 3.16536 37.6498 2.9665 37.1492 2.9665H37.1471H25.6888C25.1882 2.9665 24.7081 3.16536 24.3541 3.51934C24.0002 3.87331 23.8013 4.35341 23.8013 4.854V12.1457C23.8013 13.1877 24.6468 14.0332 25.6888 14.0332ZM18.3971 25.4915C19.5541 25.4915 20.6638 25.9511 21.4819 26.7693C22.3 27.5874 22.7596 28.697 22.7596 29.854V32.9712L22.7447 33.1726C22.4344 35.2808 21.34 36.8315 19.518 37.8676C17.6769 38.9145 15.0769 39.4436 11.7659 39.4436C8.46792 39.4436 5.8556 38.921 3.97096 37.8843C2.10484 36.8579 0.938824 35.3214 0.519086 33.2378L0.492969 32.9636V29.854C0.492969 28.697 0.952588 27.5874 1.77072 26.7693C2.58884 25.9511 3.69846 25.4915 4.85547 25.4915H18.3971ZM11.6263 8.82484C12.5412 8.82484 13.4471 9.00504 14.2923 9.35514C15.1376 9.70525 15.9056 10.2184 16.5525 10.8653C17.1994 11.5122 17.7126 12.2802 18.0627 13.1255C18.4128 13.9707 18.593 14.8766 18.593 15.7915C18.593 16.7064 18.4128 17.6123 18.0627 18.4575C17.7126 19.3028 17.1994 20.0708 16.5525 20.7177C15.9056 21.3646 15.1376 21.8778 14.2923 22.2279C13.4471 22.578 12.5412 22.7582 11.6263 22.7582C9.77863 22.7582 8.00663 22.0242 6.70013 20.7177C5.39362 19.4112 4.65964 17.6392 4.65964 15.7915C4.65964 13.9438 5.39362 12.1718 6.70013 10.8653C8.00663 9.55882 9.77863 8.82484 11.6263 8.82484ZM11.6263 11.2998C10.435 11.2998 9.29257 11.7731 8.45021 12.6154C7.60786 13.4578 7.13464 14.6002 7.13464 15.7915C7.13464 16.9828 7.60786 18.1252 8.45021 18.9676C9.29257 19.8099 10.435 20.2832 11.6263 20.2832C12.8176 20.2832 13.96 19.8099 14.8024 18.9676C15.6447 18.1252 16.118 16.9828 16.118 15.7915C16.118 14.6002 15.6447 13.4578 14.8024 12.6154C13.96 11.7731 12.8176 11.2998 11.6263 11.2998Z" fill="#ABAAB4" stroke="#2C2B44" stroke-width="0.65"/>
</svg>
