<svg width="67" height="67" viewBox="0 0 67 67" fill="none" xmlns="http://www.w3.org/2000/svg">
<path fill-rule="evenodd" clip-rule="evenodd" d="M24.8369 24.7422C24.4051 24.7422 23.9911 24.9137 23.6858 25.219C23.3805 25.5243 23.209 25.9383 23.209 26.3701V44.2768C23.209 44.7085 23.3805 45.1226 23.6858 45.4279C23.9911 45.7332 24.4051 45.9047 24.8369 45.9047H42.7436C43.1753 45.9047 43.5894 45.7332 43.8947 45.4279C44.2 45.1226 44.3715 44.7085 44.3715 44.2768V26.3701C44.3715 25.9383 44.2 25.5243 43.8947 25.219C43.5894 24.9137 43.1753 24.7422 42.7436 24.7422H24.8369ZM26.5461 32.8816H29.6391V42.6489H26.5461V32.8816ZM29.8426 29.634C29.8426 30.0981 29.6582 30.5432 29.3301 30.8714C29.0019 31.1996 28.5568 31.3839 28.0926 31.3839C27.6285 31.3839 27.1834 31.1996 26.8552 30.8714C26.527 30.5432 26.3427 30.0981 26.3427 29.634C26.3427 29.1699 26.527 28.7247 26.8552 28.3966C27.1834 28.0684 27.6285 27.884 28.0926 27.884C28.5568 27.884 29.0019 28.0684 29.3301 28.3966C29.6582 28.7247 29.8426 29.1699 29.8426 29.634ZM41.1157 36.7185C41.1157 33.7802 39.216 32.6374 37.3292 32.6374C36.7126 32.6075 36.0987 32.737 35.5467 33.0135C35.1283 33.2251 34.6904 33.7037 34.3518 34.5404H34.2656V32.8816H31.3484V42.657H34.4511V37.456C34.4072 36.9236 34.5765 36.235 34.9249 35.8264C35.2749 35.4162 35.7714 35.3185 36.1507 35.2697H36.2695C37.256 35.2697 37.9885 35.8802 37.9885 37.4185V42.6554H41.0913L41.1157 36.7185Z" fill="white"/>
<circle cx="33.5" cy="33.5" r="33" stroke="#EA9528"/>
</svg>
