<svg width="24" height="24" viewBox="0 0 24 24" fill="none" xmlns="http://www.w3.org/2000/svg">
<path d="M13.0519 16.2497H11.172C9.84197 16.2497 8.75195 15.1297 8.75195 13.7497C8.75195 13.3397 9.09195 12.9997 9.50195 12.9997C9.91195 12.9997 10.252 13.3397 10.252 13.7497C10.252 14.2997 10.662 14.7497 11.172 14.7497H13.0519C13.4419 14.7497 13.752 14.3997 13.752 13.9697C13.752 13.4297 13.602 13.3497 13.262 13.2297L10.252 12.1797C9.61195 11.9497 8.75195 11.4897 8.75195 10.0197C8.75195 8.76974 9.74197 7.73975 10.952 7.73975H12.8319C14.1619 7.73975 15.252 8.85975 15.252 10.2397C15.252 10.6497 14.912 10.9897 14.502 10.9897C14.092 10.9897 13.752 10.6497 13.752 10.2397C13.752 9.68975 13.3419 9.23975 12.8319 9.23975H10.952C10.562 9.23975 10.252 9.58975 10.252 10.0197C10.252 10.5597 10.4019 10.6397 10.7419 10.7597L13.752 11.8097C14.392 12.0397 15.252 12.4997 15.252 13.9697C15.252 15.2297 14.2619 16.2497 13.0519 16.2497Z" fill="#EA9528"/>
<path d="M12 17.2181C11.6076 17.2181 11.2819 16.8924 11.2819 16.5V7.5C11.2819 7.10764 11.6076 6.78194 12 6.78194C12.3924 6.78194 12.7181 7.10764 12.7181 7.5V16.5C12.7181 16.8924 12.3924 17.2181 12 17.2181Z" fill="#EA9528" stroke="black" stroke-width="0.0638889"/>
<path d="M12 22.7181C6.08764 22.7181 1.28194 17.9124 1.28194 12C1.28194 6.08764 6.08764 1.28194 12 1.28194C12.3924 1.28194 12.7181 1.60764 12.7181 2C12.7181 2.39236 12.3924 2.71806 12 2.71806C6.88236 2.71806 2.71806 6.88236 2.71806 12C2.71806 17.1176 6.88236 21.2819 12 21.2819C17.1176 21.2819 21.2819 17.1176 21.2819 12C21.2819 11.6076 21.6076 11.2819 22 11.2819C22.3924 11.2819 22.7181 11.6076 22.7181 12C22.7181 17.9124 17.9124 22.7181 12 22.7181Z" fill="#EA9528" stroke="black" stroke-width="0.0638889"/>
<path d="M21.2819 2.75V2.71806H21.25H18C17.6076 2.71806 17.2819 2.39236 17.2819 2C17.2819 1.60764 17.6076 1.28194 18 1.28194H22C22.3924 1.28194 22.7181 1.60764 22.7181 2V6C22.7181 6.39236 22.3924 6.71806 22 6.71806C21.6076 6.71806 21.2819 6.39236 21.2819 6V2.75Z" fill="#EA9528" stroke="black" stroke-width="0.0638889"/>
<path d="M17.0014 7.71751C16.8194 7.71751 16.6377 7.65056 16.494 7.50686C16.2165 7.22934 16.2165 6.76957 16.494 6.49204L21.494 1.49204C21.7715 1.21452 22.2313 1.21452 22.5088 1.49204C22.7863 1.76957 22.7863 2.22934 22.5088 2.50686L17.5088 7.50686C17.3651 7.65056 17.1834 7.71751 17.0014 7.71751Z" fill="#EA9528" stroke="black" stroke-width="0.0638889"/>
</svg>
