<svg width="17" height="17" viewBox="0 0 17 17" fill="none" xmlns="http://www.w3.org/2000/svg">
<path d="M8.5013 10.8019C7.23339 10.8019 6.19922 9.76775 6.19922 8.49984C6.19922 7.23192 7.23339 6.19775 8.5013 6.19775C9.76922 6.19775 10.8034 7.23192 10.8034 8.49984C10.8034 9.76775 9.76922 10.8019 8.5013 10.8019ZM8.5013 7.26025C7.8213 7.26025 7.26172 7.81984 7.26172 8.49984C7.26172 9.17984 7.8213 9.73942 8.5013 9.73942C9.1813 9.73942 9.74089 9.17984 9.74089 8.49984C9.74089 7.81984 9.1813 7.26025 8.5013 7.26025Z" fill="#EA9528"/>
<path d="M13.1055 10.8019C12.8151 10.8019 12.5742 10.5611 12.5742 10.2707V6.729C12.5742 6.43859 12.8151 6.19775 13.1055 6.19775C13.3959 6.19775 13.6367 6.43859 13.6367 6.729V10.2707C13.6367 10.5611 13.3959 10.8019 13.1055 10.8019Z" fill="#EA9528"/>
<path d="M3.54036 16.1144C2.36453 16.1144 1.25953 15.4911 0.664533 14.4782C0.345783 13.9682 0.175781 13.3661 0.175781 12.7498C0.175781 10.894 1.68453 9.38525 3.54036 9.38525C5.3962 9.38525 6.90495 10.894 6.90495 12.7498C6.90495 13.3661 6.73495 13.9682 6.4162 14.4853C5.8212 15.4911 4.7162 16.1144 3.54036 16.1144ZM3.54036 10.4478C2.27245 10.4478 1.23828 11.4819 1.23828 12.7498C1.23828 13.1678 1.35162 13.5786 1.5712 13.9327C1.98203 14.6269 2.73995 15.0519 3.54036 15.0519C4.34078 15.0519 5.0987 14.6269 5.50953 13.9398C5.72911 13.5786 5.84245 13.1748 5.84245 12.7498C5.84245 11.4819 4.80828 10.4478 3.54036 10.4478Z" fill="#EA9528"/>
<path d="M4.60424 13.2671H2.48633C2.19591 13.2671 1.95508 13.0263 1.95508 12.7358C1.95508 12.4454 2.19591 12.2046 2.48633 12.2046H4.60424C4.89465 12.2046 5.13549 12.4454 5.13549 12.7358C5.13549 13.0263 4.89465 13.2671 4.60424 13.2671Z" fill="#EA9528"/>
<path d="M3.54297 14.3508C3.25255 14.3508 3.01172 14.11 3.01172 13.8196V11.7017C3.01172 11.4112 3.25255 11.1704 3.54297 11.1704C3.83339 11.1704 4.07422 11.4112 4.07422 11.7017V13.8196C4.07422 14.1171 3.83339 14.3508 3.54297 14.3508Z" fill="#EA9528"/>
<path d="M12.043 14.6981H6.02214C5.73172 14.6981 5.49089 14.4572 5.49089 14.1668C5.49089 13.8764 5.73172 13.6356 6.02214 13.6356H12.043C14.0688 13.6356 15.0534 12.651 15.0534 10.6252V6.37516C15.0534 4.34933 14.0688 3.36475 12.043 3.36475H4.95964C2.9338 3.36475 1.94922 4.34933 1.94922 6.37516V10.8377C1.94922 11.1281 1.70839 11.3689 1.41797 11.3689C1.12755 11.3689 0.886719 11.1281 0.886719 10.8377V6.37516C0.886719 3.78975 2.37422 2.30225 4.95964 2.30225H12.043C14.6284 2.30225 16.1159 3.78975 16.1159 6.37516V10.6252C16.1159 13.2106 14.6284 14.6981 12.043 14.6981Z" fill="#EA9528"/>
</svg>
