<svg width="62" height="65" viewBox="0 0 62 65" fill="none" xmlns="http://www.w3.org/2000/svg">
<path opacity="0.1" fill-rule="evenodd" clip-rule="evenodd" d="M31.1612 0H30.8388C28.0519 0 25.73 1.40035e-07 23.8886 0.250603C21.9418 0.513735 20.1841 1.09639 18.7736 2.52169C17.36 3.95012 16.7834 5.72626 16.523 7.69036C16.3463 9.02795 16.2936 12.22 16.2812 14.9578C10.013 15.1677 6.2465 15.907 3.6332 18.5508C-3.69549e-07 22.219 0 28.127 0 39.9398C0 51.7525 -3.69549e-07 57.6605 3.6332 61.3287C7.2633 65 13.1099 65 24.8 65H37.2C48.8901 65 54.7367 65 58.3668 61.3287C62 57.6605 62 51.7525 62 39.9398C62 28.127 62 22.219 58.3668 18.5508C55.7535 15.907 51.987 15.1677 45.7188 14.961C45.7064 12.22 45.6568 9.02795 45.477 7.69349C45.2166 5.72627 44.64 3.95012 43.2264 2.52482C41.8159 1.09639 40.0582 0.513735 38.1114 0.250603C36.27 1.40035e-07 33.945 0 31.1612 0ZM41.0688 14.8858C41.0533 12.2325 41.0099 9.3788 40.8704 8.31687C40.6751 6.87277 40.3434 6.25253 39.9404 5.8453C39.5374 5.43807 38.9236 5.10289 37.4914 4.90554C35.9972 4.70506 33.9884 4.6988 31 4.6988C28.0116 4.6988 26.0028 4.70506 24.5055 4.90867C23.0764 5.10289 22.4626 5.43807 22.0596 5.84843C21.6566 6.25566 21.3249 6.87277 21.1296 8.31687C20.9901 9.38193 20.9436 12.2325 20.9312 14.8858C22.1433 14.8795 23.436 14.8795 24.8 14.8795H37.2C38.5671 14.8795 39.8567 14.8795 41.0688 14.8858ZM31 25.0602C31.6166 25.0602 32.208 25.3078 32.644 25.7484C33.08 26.189 33.325 26.7865 33.325 27.4096V27.441C36.7009 28.2993 39.525 30.9901 39.525 34.7178C39.525 35.3409 39.28 35.9385 38.844 36.3791C38.408 36.8197 37.8166 37.0672 37.2 37.0672C36.5834 37.0672 35.992 36.8197 35.556 36.3791C35.12 35.9385 34.875 35.3409 34.875 34.7178C34.875 33.5149 33.5544 31.8484 31 31.8484C28.4456 31.8484 27.125 33.5149 27.125 34.7178C27.125 35.9207 28.4456 37.5904 31 37.5904C35.2935 37.5904 39.525 40.5976 39.525 45.1617C39.525 48.8894 36.7009 51.5771 33.325 52.4386V52.4699C33.325 53.093 33.08 53.6906 32.644 54.1312C32.208 54.5718 31.6166 54.8193 31 54.8193C30.3834 54.8193 29.792 54.5718 29.356 54.1312C28.92 53.6906 28.675 53.093 28.675 52.4699V52.4386C25.2991 51.5802 22.475 48.8894 22.475 45.1617C22.475 44.5386 22.72 43.941 23.156 43.5004C23.592 43.0598 24.1834 42.8123 24.8 42.8123C25.4166 42.8123 26.008 43.0598 26.444 43.5004C26.88 43.941 27.125 44.5386 27.125 45.1617C27.125 46.3646 28.4456 48.0311 31 48.0311C33.5544 48.0311 34.875 46.3646 34.875 45.1617C34.875 43.9588 33.5544 42.2892 31 42.2892C26.7065 42.2892 22.475 39.2819 22.475 34.7178C22.475 30.9901 25.2991 28.2993 28.675 27.441V27.4096C28.675 26.7865 28.92 26.189 29.356 25.7484C29.792 25.3078 30.3834 25.0602 31 25.0602Z" fill="white"/>
</svg>
