<svg width="203" height="203" viewBox="0 0 203 203" fill="none" xmlns="http://www.w3.org/2000/svg">
<path opacity="0.1" d="M192.11 101.616C192.11 153.27 150.236 195.143 98.5825 195.143C46.9285 195.143 5.05469 153.27 5.05469 101.616C5.05469 49.9617 46.9285 8.08789 98.5825 8.08789C150.236 8.08789 192.11 49.9617 192.11 101.616ZM22.7145 101.616C22.7145 143.516 56.6818 177.484 98.5825 177.484C140.483 177.484 174.45 143.516 174.45 101.616C174.45 59.715 140.483 25.7477 98.5825 25.7477C56.6818 25.7477 22.7145 59.715 22.7145 101.616Z" fill="white"/>
<path d="M33.2128 176.033C26.4974 169.947 20.6307 162.986 15.7703 155.337L58.4407 128.224C60.8709 132.049 63.8043 135.529 67.162 138.572L33.2128 176.033Z" fill="white"/>
</svg>
