<svg width="62" height="62" viewBox="0 0 62 62" fill="none" xmlns="http://www.w3.org/2000/svg">
<g opacity="0.15">
<path d="M23.25 36.166C23.25 40.4466 30.1888 43.916 38.75 43.916C47.3112 43.916 54.25 40.4466 54.25 36.166C54.25 31.8854 47.3112 28.416 38.75 28.416C30.1888 28.416 23.25 31.8854 23.25 36.166Z" stroke="white" stroke-width="3.91667" stroke-linecap="round" stroke-linejoin="round"/>
<path d="M23.25 36.1667V46.5C23.25 50.778 30.1888 54.25 38.75 54.25C47.3112 54.25 54.25 50.778 54.25 46.5V36.1667M7.75 15.5C7.75 18.2693 10.7053 20.8268 15.5 22.2115C20.2947 23.5962 26.2053 23.5962 31 22.2115C35.7947 20.8268 38.75 18.2693 38.75 15.5C38.75 12.7307 35.7947 10.1732 31 8.7885C26.2053 7.40383 20.2947 7.40383 15.5 8.7885C10.7053 10.1732 7.75 12.7307 7.75 15.5Z" stroke="white" stroke-width="3.91667" stroke-linecap="round" stroke-linejoin="round"/>
<path d="M7.75 15.5V41.3333C7.75 43.6273 9.74433 45.0792 12.9167 46.5" stroke="white" stroke-width="3.91667" stroke-linecap="round" stroke-linejoin="round"/>
<path d="M7.75 28.416C7.75 30.71 9.74433 32.1618 12.9167 33.5827" stroke="white" stroke-width="3.91667" stroke-linecap="round" stroke-linejoin="round"/>
</g>
</svg>
