<svg width="38" height="30" viewBox="0 0 38 30" fill="none" xmlns="http://www.w3.org/2000/svg">
<path d="M8.13951 25.7236C8.08296 25.9498 8.05469 26.1477 8.05469 26.4022C8.05469 27.8442 9.2422 29.0317 10.6842 29.0317C12.1262 29.0317 13.3137 27.8442 13.3137 26.4022C13.3137 26.176 13.2854 25.9498 13.2289 25.7236H8.13951Z" fill="#F29764"/>
<path d="M21.3752 22.8098C21.347 22.5836 21.2621 22.3857 21.1208 22.216C21.0925 22.1877 18.8306 19.7279 18.8306 13.2248C18.8306 8.16376 15.4377 6.0432 12.6385 5.3929V3.92264C12.6385 2.8765 11.762 2 10.7159 2C9.66975 2 8.76498 2.8765 8.76498 3.92264V5.42117C5.96584 6.07148 2.57295 8.16376 2.57295 13.2531C2.57295 19.7562 0.311015 22.216 0.282741 22.216C0.113097 22.3857 0.0282741 22.5836 0 22.8098V24.591H21.3752V22.8098Z" fill="#EA9528"/>
<circle cx="26.4376" cy="11.5626" r="10.4073" fill="#DC5A10" stroke="white" stroke-width="1.68944"/>
<path d="M24.6905 15L27.2678 10.2484V10.6286H24.5157V9.64025H28.3701V10.5221L25.9905 15H24.6905Z" fill="white"/>
</svg>
