<svg width="20" height="14" viewBox="0 0 20 14" fill="none" xmlns="http://www.w3.org/2000/svg">
<path d="M13.4875 13.14L11.47 11.1213C10.6898 11.4002 9.84643 11.4519 9.03802 11.2702C8.22962 11.0886 7.48941 10.6811 6.90352 10.0952C6.31764 9.50934 5.91018 8.76913 5.72854 7.96072C5.5469 7.15232 5.59856 6.30895 5.8775 5.52875L3.3025 2.95375C1.1725 4.8475 0 7 0 7C0 7 3.75 13.875 10 13.875C11.2005 13.8708 12.3874 13.6207 13.4875 13.14ZM6.5125 0.86C7.61257 0.379281 8.79949 0.129134 10 0.125C16.25 0.125 20 7 20 7C20 7 18.8263 9.15125 16.6987 11.0475L14.1213 8.47C14.4002 7.6898 14.4519 6.84643 14.2702 6.03802C14.0886 5.22962 13.6811 4.48941 13.0952 3.90352C12.5093 3.31764 11.7691 2.91018 10.9607 2.72854C10.1523 2.5469 9.30895 2.59856 8.52875 2.8775L6.5125 0.86125V0.86Z" fill="white" fill-opacity="0.38"/>
</svg>
