<svg width="27" height="27" viewBox="0 0 27 27" fill="none" xmlns="http://www.w3.org/2000/svg">
<g opacity="0.6">
<path d="M24.5 25.6255V23.3755C24.5 22.182 24.0259 21.0374 23.182 20.1935C22.3381 19.3496 21.1935 18.8755 20 18.8755H11C9.80653 18.8755 8.66193 19.3496 7.81802 20.1935C6.97411 21.0374 6.5 22.182 6.5 23.3755V25.6255" stroke="white" stroke-width="1.58824" stroke-linecap="round" stroke-linejoin="round"/>
<path d="M15.5 5.37549C14.3065 5.37549 13.1619 5.84959 12.318 6.69351C11.4741 7.53742 11 8.68201 11 9.87549C11 11.069 11.4741 12.2136 12.318 13.0575C13.1619 13.9014 14.3065 14.3755 15.5 14.3755C16.6935 14.3755 17.8381 13.9014 18.682 13.0575C19.5259 12.2136 20 11.069 20 9.87549C20 8.68201 19.5259 7.53742 18.682 6.69351C17.8381 5.84959 16.6935 5.37549 15.5 5.37549Z" stroke="white" stroke-width="1.58824" stroke-linecap="round" stroke-linejoin="round"/>
</g>
</svg>
