<svg width="43" height="42" viewBox="0 0 43 42" fill="none" xmlns="http://www.w3.org/2000/svg">
<mask id="path-1-inside-1_6815_6864" fill="white">
<path d="M4.48482 4.16667H13.839L16.8536 11.7042L12.0098 14.9333C11.7246 15.1236 11.4907 15.3814 11.329 15.6838C11.1673 15.9862 11.0827 16.3238 11.0827 16.6667C11.089 16.8625 11.0827 16.6688 11.0827 16.6688V16.7125C11.084 16.8057 11.0881 16.8988 11.0952 16.9917C11.1077 17.1625 11.1286 17.3937 11.1682 17.6792C11.2494 18.2417 11.4057 19.0167 11.7098 19.9292C12.3223 21.7625 13.5223 24.1354 15.8598 26.4729C18.1973 28.8104 20.5702 30.0104 22.4015 30.6229C23.3161 30.9271 24.089 31.0812 24.6557 31.1646C24.9755 31.2092 25.2975 31.2371 25.6202 31.2479L25.6473 31.25H25.664C25.664 31.25 25.8973 31.2375 25.6661 31.25C26.0529 31.2498 26.432 31.1419 26.7609 30.9384C27.0899 30.735 27.3557 30.4439 27.5286 30.0979L28.9244 27.3062L38.1661 28.8479V37.8479C33.7682 38.4833 21.889 39.1104 12.5557 29.7771C3.22232 20.4437 3.84732 8.5625 4.48482 4.16667ZM15.4015 17.6792L19.1661 15.1708C19.9614 14.6404 20.5501 13.8525 20.8334 12.9395C21.1168 12.0265 21.0775 11.0438 20.7223 10.1562L17.7077 2.61875C17.3984 1.84564 16.8645 1.18295 16.1749 0.716171C15.4853 0.249394 14.6717 -5.58197e-05 13.839 9.36921e-09H4.37649C2.48274 9.36921e-09 0.701488 1.31458 0.391071 3.36875C-0.317262 8.03958 -1.27768 21.8354 9.60982 32.7229C20.4973 43.6104 34.2932 42.6479 38.964 41.9417C41.0182 41.6292 42.3327 39.85 42.3327 37.9562V28.8479C42.3329 27.8616 41.9831 26.9072 41.3456 26.1545C40.7082 25.4019 39.8244 24.8997 38.8515 24.7375L29.6098 23.1979C28.7309 23.0512 27.828 23.1901 27.0338 23.5944C26.2396 23.9986 25.596 24.6468 25.1973 25.4438L24.4765 26.8875C24.2216 26.8247 23.9693 26.7518 23.7202 26.6687C22.4286 26.2396 20.6348 25.3562 18.8057 23.5271C16.9765 21.6979 16.0932 19.9042 15.664 18.6104C15.5615 18.3046 15.4746 17.9938 15.4036 17.6792H15.4015Z"/>
</mask>
<path d="M4.48482 4.16667H13.839L16.8536 11.7042L12.0098 14.9333C11.7246 15.1236 11.4907 15.3814 11.329 15.6838C11.1673 15.9862 11.0827 16.3238 11.0827 16.6667C11.089 16.8625 11.0827 16.6688 11.0827 16.6688V16.7125C11.084 16.8057 11.0881 16.8988 11.0952 16.9917C11.1077 17.1625 11.1286 17.3937 11.1682 17.6792C11.2494 18.2417 11.4057 19.0167 11.7098 19.9292C12.3223 21.7625 13.5223 24.1354 15.8598 26.4729C18.1973 28.8104 20.5702 30.0104 22.4015 30.6229C23.3161 30.9271 24.089 31.0812 24.6557 31.1646C24.9755 31.2092 25.2975 31.2371 25.6202 31.2479L25.6473 31.25H25.664C25.664 31.25 25.8973 31.2375 25.6661 31.25C26.0529 31.2498 26.432 31.1419 26.7609 30.9384C27.0899 30.735 27.3557 30.4439 27.5286 30.0979L28.9244 27.3062L38.1661 28.8479V37.8479C33.7682 38.4833 21.889 39.1104 12.5557 29.7771C3.22232 20.4437 3.84732 8.5625 4.48482 4.16667ZM15.4015 17.6792L19.1661 15.1708C19.9614 14.6404 20.5501 13.8525 20.8334 12.9395C21.1168 12.0265 21.0775 11.0438 20.7223 10.1562L17.7077 2.61875C17.3984 1.84564 16.8645 1.18295 16.1749 0.716171C15.4853 0.249394 14.6717 -5.58197e-05 13.839 9.36921e-09H4.37649C2.48274 9.36921e-09 0.701488 1.31458 0.391071 3.36875C-0.317262 8.03958 -1.27768 21.8354 9.60982 32.7229C20.4973 43.6104 34.2932 42.6479 38.964 41.9417C41.0182 41.6292 42.3327 39.85 42.3327 37.9562V28.8479C42.3329 27.8616 41.9831 26.9072 41.3456 26.1545C40.7082 25.4019 39.8244 24.8997 38.8515 24.7375L29.6098 23.1979C28.7309 23.0512 27.828 23.1901 27.0338 23.5944C26.2396 23.9986 25.596 24.6468 25.1973 25.4438L24.4765 26.8875C24.2216 26.8247 23.9693 26.7518 23.7202 26.6687C22.4286 26.2396 20.6348 25.3562 18.8057 23.5271C16.9765 21.6979 16.0932 19.9042 15.664 18.6104C15.5615 18.3046 15.4746 17.9938 15.4036 17.6792H15.4015Z" fill="#ABAAB4"/>
<path d="M4.48482 4.16667V3.16667H3.61938L3.49517 4.02314L4.48482 4.16667ZM13.839 4.16667L14.7675 3.79532L14.5161 3.16667H13.839V4.16667ZM16.8536 11.7042L17.4083 12.5362L18.0834 12.0862L17.7821 11.3328L16.8536 11.7042ZM12.0098 14.9333L11.4551 14.1013L11.4548 14.1015L12.0098 14.9333ZM11.0827 16.6667L10.0827 16.6668L10.0827 16.6827L10.0832 16.6986L11.0827 16.6667ZM11.0827 16.6688L12.0822 16.6365L10.0827 16.6688H11.0827ZM11.0827 16.7125H10.0826L10.0828 16.7257L11.0827 16.7125ZM11.0952 16.9917L12.0926 16.9187L12.0923 16.9155L11.0952 16.9917ZM11.1682 17.6792L10.1776 17.8165L10.1784 17.8221L11.1682 17.6792ZM11.7098 19.9292L10.7611 20.2454L10.7614 20.246L11.7098 19.9292ZM22.4015 30.6229L22.0843 31.5713L22.0859 31.5718L22.4015 30.6229ZM24.6557 31.1646L24.5102 32.154L24.5174 32.155L24.6557 31.1646ZM25.6202 31.2479L25.6969 30.2509L25.6754 30.2492L25.6539 30.2485L25.6202 31.2479ZM25.6473 31.25L25.5707 32.2471L25.6089 32.25H25.6473V31.25ZM25.664 31.25V32.25H25.6908L25.7175 32.2486L25.664 31.25ZM25.6661 31.25L25.6121 30.2515L25.6666 32.25L25.6661 31.25ZM27.5286 30.0979L26.6341 29.6507L26.634 29.6509L27.5286 30.0979ZM28.9244 27.3062L29.0889 26.3199L28.3603 26.1983L28.03 26.859L28.9244 27.3062ZM38.1661 28.8479H39.1661V28.0009L38.3306 27.8615L38.1661 28.8479ZM38.1661 37.8479L38.3091 38.8376L39.1661 38.7138V37.8479H38.1661ZM15.4015 17.6792L14.847 16.847L12.0972 18.6792H15.4015V17.6792ZM19.1661 15.1708L19.7206 16.003L19.721 16.0027L19.1661 15.1708ZM20.7223 10.1562L19.7938 10.5276L19.7939 10.5278L20.7223 10.1562ZM17.7077 2.61875L18.6362 2.2474L18.6362 2.24725L17.7077 2.61875ZM13.839 9.36921e-09V1H13.8391L13.839 9.36921e-09ZM0.391071 3.36875L1.37977 3.51869L1.37985 3.51817L0.391071 3.36875ZM38.964 41.9417L39.1135 42.9304L39.1144 42.9303L38.964 41.9417ZM42.3327 28.8479L41.3327 28.8478V28.8479H42.3327ZM38.8515 24.7375L39.016 23.7511L39.0158 23.7511L38.8515 24.7375ZM29.6098 23.1979L29.4452 24.1843L29.4455 24.1843L29.6098 23.1979ZM25.1973 25.4438L24.303 24.9964L24.3026 24.9971L25.1973 25.4438ZM24.4765 26.8875L24.2374 27.8585L25.0139 28.0497L25.3712 27.3342L24.4765 26.8875ZM23.7202 26.6687L24.0364 25.72L24.0355 25.7198L23.7202 26.6687ZM15.664 18.6104L16.6131 18.2956L16.6122 18.2927L15.664 18.6104ZM15.4036 17.6792L16.379 17.459L16.203 16.6792H15.4036V17.6792ZM4.48482 5.16667H13.839V3.16667H4.48482V5.16667ZM12.9105 4.53801L15.9251 12.0755L17.7821 11.3328L14.7675 3.79532L12.9105 4.53801ZM16.2989 10.8721L11.4551 14.1013L12.5645 15.7654L17.4083 12.5362L16.2989 10.8721ZM11.4548 14.1015C11.0327 14.3831 10.6866 14.7646 10.4472 15.2122L12.2108 16.1554C12.2949 15.9982 12.4165 15.8641 12.5648 15.7652L11.4548 14.1015ZM10.4472 15.2122C10.2079 15.6597 10.0827 16.1593 10.0827 16.6668L12.0827 16.6665C12.0827 16.4882 12.1267 16.3127 12.2108 16.1554L10.4472 15.2122ZM10.0832 16.6986C10.0848 16.7476 10.0856 16.7719 10.0859 16.7808C10.0859 16.7836 10.0859 16.7836 10.0859 16.7828C10.0859 16.7825 10.0859 16.782 10.0859 16.7813C10.0859 16.781 10.0858 16.7789 10.0858 16.7763C10.0857 16.7756 10.0856 16.7712 10.0856 16.7656C10.0855 16.7618 10.0855 16.7501 10.0856 16.7422C10.0863 16.7135 10.9406 15.7648 12.0213 16.4018C12.0597 16.5283 12.0822 16.6729 12.0833 16.6871C12.0836 16.6925 12.0841 16.7008 12.0842 16.7036C12.0845 16.7082 12.0846 16.7118 12.0846 16.7126C12.0847 16.715 12.0848 16.7168 12.0848 16.7172C12.0849 16.7178 12.0849 16.7183 12.0849 16.7186C12.0849 16.7188 12.0849 16.719 12.0849 16.7191C12.0849 16.7192 12.0849 16.7193 12.0849 16.7193C12.0849 16.7193 12.0849 16.7193 12.0849 16.7191C12.0849 16.7189 12.0849 16.7187 12.0849 16.7183C12.0849 16.7177 12.0848 16.7169 12.0848 16.716C12.0847 16.714 12.0846 16.7115 12.0845 16.7086C12.0842 16.6967 12.0836 16.6788 12.0831 16.6637C12.0829 16.6561 12.0826 16.6493 12.0825 16.6444C12.0824 16.642 12.0823 16.64 12.0823 16.6386C12.0823 16.6379 12.0822 16.6374 12.0822 16.6371C12.0822 16.6369 12.0822 16.6367 12.0822 16.6366C12.0822 16.6366 12.0822 16.6366 12.0822 16.6365C12.0822 16.6365 12.0822 16.6365 12.0822 16.6365C12.0822 16.6365 12.0822 16.6365 12.0822 16.6365C12.0822 16.6365 12.0822 16.6365 11.0827 16.6688C10.0833 16.701 10.0833 16.701 10.0833 16.701C10.0833 16.701 10.0833 16.701 10.0833 16.701C10.0833 16.701 10.0833 16.701 10.0833 16.701C10.0833 16.7011 10.0833 16.7011 10.0833 16.7011C10.0833 16.7012 10.0833 16.7014 10.0833 16.7015C10.0833 16.7019 10.0833 16.7024 10.0833 16.7031C10.0834 16.7045 10.0834 16.7065 10.0835 16.709C10.0837 16.7139 10.0839 16.7207 10.0841 16.7283C10.0846 16.7434 10.0852 16.7616 10.0856 16.7737C10.0858 16.7794 10.086 16.7848 10.0861 16.7875C10.0861 16.7879 10.0861 16.7885 10.0861 16.7893C10.0861 16.7897 10.0862 16.7903 10.0862 16.7911C10.0862 16.7915 10.0863 16.7934 10.0864 16.7958C10.0864 16.7966 10.0866 16.8002 10.0868 16.8049C10.0869 16.8077 10.0874 16.816 10.0878 16.8214C10.0888 16.8356 10.1114 16.9802 10.1497 17.1067C11.2304 17.7437 12.0847 16.795 12.0854 16.7663C12.0855 16.7584 12.0855 16.7466 12.0855 16.7429C12.0854 16.7373 12.0853 16.7328 12.0853 16.7322C12.0852 16.7295 12.0852 16.7273 12.0851 16.7269C12.0851 16.7261 12.0851 16.7255 12.0851 16.7251C12.085 16.7231 12.0849 16.7203 12.0849 16.7184C12.0846 16.7086 12.0838 16.6836 12.0822 16.6348L10.0832 16.6986ZM10.0827 16.6688V16.7125H12.0827V16.6688H10.0827ZM10.0828 16.7257C10.0843 16.8399 10.0894 16.954 10.0981 17.0678L12.0923 16.9155C12.0868 16.8435 12.0836 16.7714 12.0826 16.6993L10.0828 16.7257ZM10.0979 17.0646C10.1116 17.2518 10.1344 17.5051 10.1776 17.8165L12.1587 17.5418C12.1227 17.2824 12.1039 17.0732 12.0926 16.9187L10.0979 17.0646ZM10.1784 17.8221C10.267 18.4355 10.4358 19.2693 10.7611 20.2454L12.6585 19.6129C12.3755 18.764 12.2318 18.0479 12.1579 17.5362L10.1784 17.8221ZM10.7614 20.246C11.4169 22.2084 12.6929 24.7202 15.1527 27.18L16.5669 25.7658C14.3517 23.5506 13.2277 21.3166 12.6583 19.6123L10.7614 20.246ZM15.1527 27.18C17.6125 29.6398 20.1243 30.9157 22.0843 31.5713L22.7187 29.6746C21.0162 29.1051 18.7821 27.981 16.5669 25.7658L15.1527 27.18ZM22.0859 31.5718C23.0651 31.8975 23.8962 32.0637 24.5102 32.1539L24.8011 30.1752C24.2818 30.0988 23.567 29.9567 22.7171 29.674L22.0859 31.5718ZM24.5174 32.155C24.8719 32.2045 25.2288 32.2353 25.5866 32.2474L25.6539 30.2485C25.3661 30.2388 25.0791 30.214 24.7939 30.1742L24.5174 32.155ZM25.5436 32.245L25.5707 32.2471L25.724 30.2529L25.6969 30.2509L25.5436 32.245ZM25.6473 32.25H25.664V30.25H25.6473V32.25ZM25.664 31.25C25.7175 32.2486 25.7175 32.2486 25.7175 32.2486C25.7175 32.2486 25.7175 32.2486 25.7175 32.2486C25.7175 32.2486 25.7175 32.2486 25.7175 32.2486C25.7176 32.2486 25.7176 32.2486 25.7176 32.2486C25.7178 32.2486 25.7179 32.2485 25.7181 32.2485C25.7186 32.2485 25.7192 32.2485 25.72 32.2484C25.7217 32.2483 25.7241 32.2482 25.727 32.2481C25.7329 32.2477 25.7411 32.2473 25.7502 32.2468C25.7685 32.2458 25.7903 32.2447 25.8048 32.2439C25.8124 32.2435 25.817 32.2433 25.8182 32.2432C25.8197 32.2431 25.8168 32.2433 25.8133 32.2434C25.8125 32.2435 25.8111 32.2435 25.8094 32.2436C25.8083 32.2436 25.8041 32.2438 25.7987 32.244C25.7956 32.2441 25.787 32.2443 25.7815 32.2444C25.7697 32.2444 25.7125 32.2429 25.6673 32.2393C24.7797 31.3951 25.501 30.2808 25.6313 30.2539C25.6493 30.2516 25.6745 30.2489 25.6817 30.2482C25.6913 30.2474 25.6991 30.2468 25.6997 30.2468C25.7021 30.2466 25.704 30.2465 25.7049 30.2465C25.7068 30.2463 25.7083 30.2462 25.7088 30.2462C25.7109 30.2461 25.7119 30.246 25.7083 30.2462C25.6983 30.2468 25.6701 30.2483 25.6121 30.2515L25.72 32.2485C25.7777 32.2454 25.807 32.2438 25.8183 32.2432C25.82 32.2431 25.8241 32.2429 25.8274 32.2427C25.828 32.2427 25.8295 32.2426 25.8315 32.2424C25.8325 32.2424 25.8344 32.2423 25.8369 32.2421C25.8375 32.242 25.8452 32.2415 25.855 32.2407C25.8621 32.24 25.8873 32.2373 25.9053 32.235C26.0356 32.208 26.7569 31.0937 25.8694 30.2496C25.8241 30.246 25.7669 30.2444 25.7551 30.2445C25.7496 30.2446 25.741 30.2448 25.7379 30.2449C25.7325 30.2451 25.7283 30.2452 25.7271 30.2453C25.7254 30.2454 25.7239 30.2454 25.7231 30.2455C25.7205 30.2456 25.7182 30.2457 25.7179 30.2457C25.7171 30.2458 25.7164 30.2458 25.7158 30.2458C25.7123 30.246 25.7058 30.2463 25.6987 30.2467C25.6838 30.2475 25.6617 30.2487 25.6434 30.2497C25.6343 30.2502 25.626 30.2506 25.6201 30.2509C25.6171 30.2511 25.6147 30.2512 25.6131 30.2513C25.6122 30.2513 25.6116 30.2514 25.6112 30.2514C25.6109 30.2514 25.6108 30.2514 25.6107 30.2514C25.6106 30.2514 25.6106 30.2514 25.6105 30.2514C25.6105 30.2514 25.6105 30.2514 25.6105 30.2514C25.6105 30.2514 25.6105 30.2514 25.6105 30.2514C25.6105 30.2514 25.6105 30.2514 25.664 31.25ZM25.6666 32.25C26.2391 32.2497 26.8001 32.09 27.287 31.7889L26.2349 30.088C26.0638 30.1938 25.8667 30.2499 25.6655 30.25L25.6666 32.25ZM27.287 31.7889C27.7738 31.4877 28.1672 31.057 28.4231 30.5449L26.634 29.6509C26.5441 29.8308 26.4059 29.9822 26.2349 30.088L27.287 31.7889ZM28.423 30.5451L29.8188 27.7535L28.03 26.859L26.6341 29.6507L28.423 30.5451ZM28.7599 28.2926L38.0015 29.8343L38.3306 27.8615L29.0889 26.3199L28.7599 28.2926ZM37.1661 28.8479V37.8479H39.1661V28.8479H37.1661ZM38.0231 36.8582C33.7303 37.4784 22.2581 38.0653 13.2628 29.07L11.8485 30.4842C21.5199 40.1555 33.806 39.4883 38.3091 38.8376L38.0231 36.8582ZM13.2628 29.07C4.26731 20.0745 4.85233 8.60013 5.47447 4.31019L3.49517 4.02314C2.84232 8.52487 2.17733 20.813 11.8485 30.4842L13.2628 29.07ZM15.956 18.5114L19.7206 16.003L18.6116 14.3386L14.847 16.847L15.956 18.5114ZM19.721 16.0027C20.7071 15.345 21.4371 14.3681 21.7885 13.2359L19.8784 12.6431C19.663 13.337 19.2156 13.9358 18.6112 14.3389L19.721 16.0027ZM21.7885 13.2359C22.1398 12.1038 22.0912 10.8852 21.6507 9.78467L19.7939 10.5278C20.0639 11.2024 20.0937 11.9492 19.8784 12.6431L21.7885 13.2359ZM21.6508 9.7849L18.6362 2.2474L16.7792 2.9901L19.7938 10.5276L21.6508 9.7849ZM18.6362 2.24725C18.2526 1.28859 17.5905 0.466854 16.7355 -0.111948L15.6143 1.54429C16.1384 1.89904 16.5442 2.40268 16.7793 2.99025L18.6362 2.24725ZM16.7355 -0.111948C15.8804 -0.690751 14.8715 -1.00007 13.8389 -1L13.8391 1C14.4719 0.999958 15.0903 1.18954 15.6143 1.54429L16.7355 -0.111948ZM13.839 -1H4.37649V1H13.839V-1ZM4.37649 -1C2.03876 -1 -0.20607 0.62772 -0.597703 3.21933L1.37985 3.51817C1.60905 2.00145 2.92672 1 4.37649 1V-1ZM-0.597624 3.21881C-1.32129 7.99075 -2.32751 22.1998 8.90271 33.43L10.3169 32.0158C-0.227843 21.471 0.686766 8.08842 1.37977 3.51869L-0.597624 3.21881ZM8.90271 33.43C20.133 44.6603 34.3422 43.6519 39.1135 42.9304L38.8145 40.9529C34.2441 41.644 20.8616 42.5605 10.3169 32.0158L8.90271 33.43ZM39.1144 42.9303C41.7044 42.5363 43.3327 40.2948 43.3327 37.9562H41.3327C41.3327 39.4052 40.3319 40.7221 38.8136 40.953L39.1144 42.9303ZM43.3327 37.9562V28.8479H41.3327V37.9562H43.3327ZM43.3327 28.848C43.3329 27.625 42.8992 26.4415 42.1087 25.5082L40.5825 26.8008C41.067 27.3728 41.3328 28.0982 41.3327 28.8478L43.3327 28.848ZM42.1087 25.5082C41.3183 24.5749 40.2224 23.9523 39.016 23.7511L38.687 25.7239C39.4264 25.8472 40.0981 26.2288 40.5825 26.8008L42.1087 25.5082ZM39.0158 23.7511L29.7741 22.2115L29.4455 24.1843L38.6872 25.7239L39.0158 23.7511ZM29.7745 22.2116C28.6845 22.0296 27.565 22.2019 26.5802 22.7032L27.4874 24.4856C28.091 24.1784 28.7772 24.0728 29.4452 24.1843L29.7745 22.2116ZM26.5802 22.7032C25.5954 23.2044 24.7973 24.0081 24.303 24.9964L26.0917 25.8911C26.3947 25.2854 26.8838 24.7928 27.4874 24.4856L26.5802 22.7032ZM24.3026 24.9971L23.5818 26.4408L25.3712 27.3342L26.092 25.8904L24.3026 24.9971ZM24.7156 25.9165C24.4867 25.8601 24.2601 25.7946 24.0364 25.72L23.4041 27.6174C23.6785 27.7089 23.9565 27.7893 24.2374 27.8585L24.7156 25.9165ZM24.0355 25.7198C22.8746 25.334 21.22 24.5272 19.5128 22.82L18.0985 24.2342C20.0497 26.1853 21.9825 27.1451 23.4049 27.6177L24.0355 25.7198ZM19.5128 22.82C17.8056 21.1128 16.9988 19.4583 16.6131 18.2956L14.7148 18.9253C15.1875 20.3501 16.1474 22.283 18.0985 24.2342L19.5128 22.82ZM16.6122 18.2927C16.5204 18.0189 16.4426 17.7406 16.379 17.459L14.4281 17.8994C14.5066 18.2469 14.6026 18.5903 14.7158 18.9281L16.6122 18.2927ZM15.4036 16.6792H15.4015V18.6792H15.4036V16.6792Z" fill="#2C2B44" mask="url(#path-1-inside-1_6815_6864)"/>
</svg>
