<svg width="42" height="42" viewBox="0 0 42 42" fill="none" xmlns="http://www.w3.org/2000/svg">
<path d="M15.5178 30.5458L15.0815 32.0247L16.3027 31.0833L20.9974 27.4645L25.6921 31.0833L26.9133 32.0247L26.477 30.5458L24.7029 24.5339L29.0997 21.4073L30.3758 20.4998H28.8099H23.3463L21.4755 14.395L20.9974 12.835L20.5193 14.395L18.6485 20.4998H13.1849H11.619L12.8951 21.4073L17.2919 24.5339L15.5178 30.5458ZM9.06496 40.4953L13.4547 26.1461L13.5598 25.8024L13.2675 25.5932L1.72223 17.3332H15.9974H16.3694L16.4763 16.9768L20.9974 1.90655L25.5185 16.9768L25.6254 17.3332H25.9974H40.2726L28.7273 25.5932L28.4349 25.8024L28.5401 26.1461L32.9298 40.4953L21.3002 31.6436L20.9974 31.4131L20.6946 31.6436L9.06496 40.4953Z" fill="#ABAAB4" stroke="#2C2B44"/>
</svg>
