<svg width="23" height="23" viewBox="0 0 23 23" fill="none" xmlns="http://www.w3.org/2000/svg">
<path d="M11.1722 11.1716C13.7429 11.1716 15.8269 9.08765 15.8269 6.51696C15.8269 3.94626 13.7429 1.8623 11.1722 1.8623C8.60154 1.8623 6.51758 3.94626 6.51758 6.51696C6.51758 9.08765 8.60154 11.1716 11.1722 11.1716Z" stroke="#EA9528" stroke-width="1.53604" stroke-linecap="round" stroke-linejoin="round"/>
<path d="M3.17383 20.4804C3.17383 16.8777 6.75791 13.9639 11.1705 13.9639C12.0642 13.9639 12.93 14.0849 13.7399 14.3083" stroke="#EA9528" stroke-width="1.53604" stroke-linecap="round" stroke-linejoin="round"/>
<path d="M20.4807 16.7569C20.4807 17.0548 20.4434 17.3434 20.3689 17.6227C20.2852 17.9951 20.1362 18.3581 19.9407 18.6746C19.2984 19.7545 18.1161 20.4807 16.7569 20.4807C15.7981 20.4807 14.9323 20.1176 14.2806 19.5218C14.0014 19.2797 13.7593 18.9912 13.5731 18.6746C13.2287 18.1161 13.0332 17.4551 13.0332 16.7569C13.0332 15.7515 13.4335 14.8299 14.0852 14.1596C14.7647 13.4615 15.7143 13.0332 16.7569 13.0332C17.8554 13.0332 18.8515 13.508 19.5218 14.2714C20.1176 14.9323 20.4807 15.8074 20.4807 16.7569Z" stroke="#EA9528" stroke-width="1.53604" stroke-miterlimit="10" stroke-linecap="round" stroke-linejoin="round"/>
<path d="M18.1433 16.7373H15.3691" stroke="#EA9528" stroke-width="1.53604" stroke-miterlimit="10" stroke-linecap="round" stroke-linejoin="round"/>
<path d="M16.7559 15.3779V18.1614" stroke="#EA9528" stroke-width="1.53604" stroke-miterlimit="10" stroke-linecap="round" stroke-linejoin="round"/>
</svg>
