<svg width="23" height="23" viewBox="0 0 23 23" fill="none" xmlns="http://www.w3.org/2000/svg">
<g opacity="0.65">
<path d="M11.1703 11.1716C13.741 11.1716 15.8249 9.08765 15.8249 6.51696C15.8249 3.94626 13.741 1.8623 11.1703 1.8623C8.59958 1.8623 6.51562 3.94626 6.51562 6.51696C6.51562 9.08765 8.59958 11.1716 11.1703 11.1716Z" stroke="#C0BFC7" stroke-width="1.53604" stroke-linecap="round" stroke-linejoin="round"/>
<path d="M3.17578 20.4804C3.17578 16.8777 6.75986 13.9639 11.1725 13.9639C12.0662 13.9639 12.9319 14.0849 13.7419 14.3083" stroke="#C0BFC7" stroke-width="1.53604" stroke-linecap="round" stroke-linejoin="round"/>
<path d="M20.4787 16.7569C20.4787 17.0548 20.4415 17.3434 20.367 17.6227C20.2832 17.9951 20.1343 18.3581 19.9388 18.6746C19.2964 19.7545 18.1141 20.4807 16.755 20.4807C15.7961 20.4807 14.9303 20.1176 14.2787 19.5218C13.9994 19.2797 13.7574 18.9912 13.5712 18.6746C13.2267 18.1161 13.0312 17.4551 13.0312 16.7569C13.0312 15.7515 13.4316 14.8299 14.0832 14.1596C14.7628 13.4615 15.7123 13.0332 16.755 13.0332C17.8535 13.0332 18.8496 13.508 19.5198 14.2714C20.1156 14.9323 20.4787 15.8074 20.4787 16.7569Z" stroke="#C0BFC7" stroke-width="1.53604" stroke-miterlimit="10" stroke-linecap="round" stroke-linejoin="round"/>
<path d="M18.1413 16.7373H15.3672" stroke="#C0BFC7" stroke-width="1.53604" stroke-miterlimit="10" stroke-linecap="round" stroke-linejoin="round"/>
<path d="M16.7539 15.3779V18.1614" stroke="#C0BFC7" stroke-width="1.53604" stroke-miterlimit="10" stroke-linecap="round" stroke-linejoin="round"/>
</g>
</svg>
