<svg width="108" height="13" viewBox="0 0 108 13" fill="none" xmlns="http://www.w3.org/2000/svg">
<path opacity="0.65" d="M5.056 12.112C4.23467 12.112 3.49867 11.9787 2.848 11.712C2.19733 11.4453 1.67467 11.0507 1.28 10.528C0.896 10.0053 0.693333 9.376 0.672 8.64H3.584C3.62667 9.056 3.77067 9.376 4.016 9.6C4.26133 9.81333 4.58133 9.92 4.976 9.92C5.38133 9.92 5.70133 9.82933 5.936 9.648C6.17067 9.456 6.288 9.19467 6.288 8.864C6.288 8.58667 6.192 8.35733 6 8.176C5.81867 7.99467 5.58933 7.84533 5.312 7.728C5.04533 7.61067 4.66133 7.47733 4.16 7.328C3.43467 7.104 2.84267 6.88 2.384 6.656C1.92533 6.432 1.53067 6.10133 1.2 5.664C0.869333 5.22667 0.704 4.656 0.704 3.952C0.704 2.90667 1.08267 2.09067 1.84 1.504C2.59733 0.906666 3.584 0.608 4.8 0.608C6.03733 0.608 7.03467 0.906666 7.792 1.504C8.54933 2.09067 8.95467 2.912 9.008 3.968H6.048C6.02667 3.60533 5.89333 3.32267 5.648 3.12C5.40267 2.90667 5.088 2.8 4.704 2.8C4.37333 2.8 4.10667 2.89067 3.904 3.072C3.70133 3.24267 3.6 3.49333 3.6 3.824C3.6 4.18667 3.77067 4.46933 4.112 4.672C4.45333 4.87467 4.98667 5.09333 5.712 5.328C6.43733 5.57333 7.024 5.808 7.472 6.032C7.93067 6.256 8.32533 6.58133 8.656 7.008C8.98667 7.43467 9.152 7.984 9.152 8.656C9.152 9.296 8.98667 9.87733 8.656 10.4C8.336 10.9227 7.86667 11.3387 7.248 11.648C6.62933 11.9573 5.89867 12.112 5.056 12.112ZM19.0833 4.384C19.0833 5.03467 18.934 5.632 18.6353 6.176C18.3366 6.70933 17.878 7.14133 17.2593 7.472C16.6406 7.80267 15.8726 7.968 14.9553 7.968H13.2593V12H10.5233V0.768H14.9553C15.8513 0.768 16.6086 0.922666 17.2273 1.232C17.846 1.54133 18.31 1.968 18.6193 2.512C18.9286 3.056 19.0833 3.68 19.0833 4.384ZM14.7473 5.792C15.27 5.792 15.6593 5.66933 15.9153 5.424C16.1713 5.17867 16.2993 4.832 16.2993 4.384C16.2993 3.936 16.1713 3.58933 15.9153 3.344C15.6593 3.09867 15.27 2.976 14.7473 2.976H13.2593V5.792H14.7473ZM25.5072 12.112C24.4512 12.112 23.4805 11.8667 22.5952 11.376C21.7205 10.8853 21.0219 10.2027 20.4992 9.328C19.9872 8.44267 19.7312 7.45067 19.7312 6.352C19.7312 5.25333 19.9872 4.26667 20.4992 3.392C21.0219 2.51733 21.7205 1.83467 22.5952 1.344C23.4805 0.853333 24.4512 0.608 25.5072 0.608C26.5632 0.608 27.5285 0.853333 28.4032 1.344C29.2885 1.83467 29.9819 2.51733 30.4832 3.392C30.9952 4.26667 31.2512 5.25333 31.2512 6.352C31.2512 7.45067 30.9952 8.44267 30.4832 9.328C29.9712 10.2027 29.2779 10.8853 28.4032 11.376C27.5285 11.8667 26.5632 12.112 25.5072 12.112ZM25.5072 9.616C26.4032 9.616 27.1179 9.31733 27.6512 8.72C28.1952 8.12267 28.4672 7.33333 28.4672 6.352C28.4672 5.36 28.1952 4.57067 27.6512 3.984C27.1179 3.38667 26.4032 3.088 25.5072 3.088C24.6005 3.088 23.8752 3.38133 23.3312 3.968C22.7979 4.55467 22.5312 5.34933 22.5312 6.352C22.5312 7.344 22.7979 8.13867 23.3312 8.736C23.8752 9.32267 24.6005 9.616 25.5072 9.616ZM38.1889 12L35.8529 7.76H35.1969V12H32.4609V0.768H37.0529C37.9382 0.768 38.6902 0.922666 39.3089 1.232C39.9382 1.54133 40.4075 1.968 40.7169 2.512C41.0262 3.04533 41.1809 3.64267 41.1809 4.304C41.1809 5.05067 40.9675 5.71733 40.5409 6.304C40.1249 6.89067 39.5062 7.30667 38.6849 7.552L41.2769 12H38.1889ZM35.1969 5.824H36.8929C37.3942 5.824 37.7675 5.70133 38.0129 5.456C38.2689 5.21067 38.3969 4.864 38.3969 4.416C38.3969 3.98933 38.2689 3.65333 38.0129 3.408C37.7675 3.16267 37.3942 3.04 36.8929 3.04H35.1969V5.824ZM50.6659 0.768V2.96H47.6899V12H44.9539V2.96H41.9779V0.768H50.6659ZM55.7906 12.112C54.9692 12.112 54.2332 11.9787 53.5826 11.712C52.9319 11.4453 52.4092 11.0507 52.0146 10.528C51.6306 10.0053 51.4279 9.376 51.4066 8.64H54.3186C54.3612 9.056 54.5052 9.376 54.7506 9.6C54.9959 9.81333 55.3159 9.92 55.7106 9.92C56.1159 9.92 56.4359 9.82933 56.6706 9.648C56.9052 9.456 57.0226 9.19467 57.0226 8.864C57.0226 8.58667 56.9266 8.35733 56.7346 8.176C56.5532 7.99467 56.3239 7.84533 56.0466 7.728C55.7799 7.61067 55.3959 7.47733 54.8946 7.328C54.1692 7.104 53.5772 6.88 53.1186 6.656C52.6599 6.432 52.2652 6.10133 51.9346 5.664C51.6039 5.22667 51.4386 4.656 51.4386 3.952C51.4386 2.90667 51.8172 2.09067 52.5746 1.504C53.3319 0.906666 54.3186 0.608 55.5346 0.608C56.7719 0.608 57.7692 0.906666 58.5266 1.504C59.2839 2.09067 59.6892 2.912 59.7426 3.968H56.7826C56.7612 3.60533 56.6279 3.32267 56.3826 3.12C56.1372 2.90667 55.8226 2.8 55.4386 2.8C55.1079 2.8 54.8412 2.89067 54.6386 3.072C54.4359 3.24267 54.3346 3.49333 54.3346 3.824C54.3346 4.18667 54.5052 4.46933 54.8466 4.672C55.1879 4.87467 55.7212 5.09333 56.4466 5.328C57.1719 5.57333 57.7586 5.808 58.2066 6.032C58.6652 6.256 59.0599 6.58133 59.3906 7.008C59.7212 7.43467 59.8866 7.984 59.8866 8.656C59.8866 9.296 59.7212 9.87733 59.3906 10.4C59.0706 10.9227 58.6012 11.3387 57.9826 11.648C57.3639 11.9573 56.6332 12.112 55.7906 12.112ZM71.8018 0.768L67.8178 12H64.3938L60.4098 0.768H63.3218L66.1058 9.248L68.9058 0.768H71.8018ZM75.3689 2.96V5.232H79.0329V7.344H75.3689V9.808H79.5129V12H72.6329V0.768H79.5129V2.96H75.3689ZM86.7047 12L84.3687 7.76H83.7127V12H80.9767V0.768H85.5687C86.454 0.768 87.206 0.922666 87.8247 1.232C88.454 1.54133 88.9233 1.968 89.2327 2.512C89.542 3.04533 89.6967 3.64267 89.6967 4.304C89.6967 5.05067 89.4833 5.71733 89.0567 6.304C88.6407 6.89067 88.022 7.30667 87.2007 7.552L89.7927 12H86.7047ZM83.7127 5.824H85.4087C85.91 5.824 86.2833 5.70133 86.5287 5.456C86.7847 5.21067 86.9127 4.864 86.9127 4.416C86.9127 3.98933 86.7847 3.65333 86.5287 3.408C86.2833 3.16267 85.91 3.04 85.4087 3.04H83.7127V5.824ZM95.1657 12.112C94.3444 12.112 93.6084 11.9787 92.9577 11.712C92.307 11.4453 91.7844 11.0507 91.3897 10.528C91.0057 10.0053 90.803 9.376 90.7817 8.64H93.6937C93.7364 9.056 93.8804 9.376 94.1257 9.6C94.371 9.81333 94.691 9.92 95.0857 9.92C95.491 9.92 95.811 9.82933 96.0457 9.648C96.2804 9.456 96.3977 9.19467 96.3977 8.864C96.3977 8.58667 96.3017 8.35733 96.1097 8.176C95.9284 7.99467 95.699 7.84533 95.4217 7.728C95.155 7.61067 94.771 7.47733 94.2697 7.328C93.5444 7.104 92.9524 6.88 92.4937 6.656C92.035 6.432 91.6404 6.10133 91.3097 5.664C90.979 5.22667 90.8137 4.656 90.8137 3.952C90.8137 2.90667 91.1924 2.09067 91.9497 1.504C92.707 0.906666 93.6937 0.608 94.9097 0.608C96.147 0.608 97.1444 0.906666 97.9017 1.504C98.659 2.09067 99.0644 2.912 99.1177 3.968H96.1577C96.1364 3.60533 96.003 3.32267 95.7577 3.12C95.5124 2.90667 95.1977 2.8 94.8137 2.8C94.483 2.8 94.2164 2.89067 94.0137 3.072C93.811 3.24267 93.7097 3.49333 93.7097 3.824C93.7097 4.18667 93.8804 4.46933 94.2217 4.672C94.563 4.87467 95.0964 5.09333 95.8217 5.328C96.547 5.57333 97.1337 5.808 97.5817 6.032C98.0404 6.256 98.435 6.58133 98.7657 7.008C99.0964 7.43467 99.2617 7.984 99.2617 8.656C99.2617 9.296 99.0964 9.87733 98.7657 10.4C98.4457 10.9227 97.9764 11.3387 97.3577 11.648C96.739 11.9573 96.0084 12.112 95.1657 12.112ZM103.369 2.96V5.232H107.033V7.344H103.369V9.808H107.513V12H100.633V0.768H107.513V2.96H103.369Z" fill="white"/>
</svg>
