<svg width="67" height="67" viewBox="0 0 67 67" fill="none" xmlns="http://www.w3.org/2000/svg">
<circle cx="33.5" cy="33.5" r="33" stroke="#EA9528"/>
<path d="M43.4758 23.0249C43.4758 23.0249 46.1469 21.9834 45.9243 24.5129C45.8501 25.5545 45.1824 29.1999 44.6629 33.143L42.8822 44.8234C42.8822 44.8234 42.7338 46.5345 41.3982 46.8322C40.0626 47.1297 38.0593 45.7906 37.6883 45.493C37.3915 45.2698 32.1234 41.9219 30.2684 40.2852C29.749 39.8388 29.1554 38.946 30.3426 37.9044L38.1335 30.4647C39.0239 29.5719 39.9142 27.4888 36.2043 30.0183L25.8165 37.0861C25.8165 37.0861 24.6293 37.83 22.4034 37.1605L17.5805 35.6725C17.5805 35.6725 15.7997 34.5566 18.8419 33.4406C26.2617 29.9439 35.3882 26.3728 43.4758 23.0249Z" fill="white"/>
</svg>
