<svg width="44" height="32" viewBox="0 0 44 32" fill="none" xmlns="http://www.w3.org/2000/svg">
<path d="M3.18533 23.3377L2.925 23.3906V23.6562V28.5V28.825H3.25H14.1875H14.5125V28.5V3.5V3.175H14.1875H3.25H2.925V3.5V8.34375V8.60939L3.18533 8.66225C4.87793 9.00595 6.39967 9.92424 7.4927 11.2615C8.58573 12.5988 9.18283 14.2729 9.18283 16C9.18283 17.7271 8.58573 19.4012 7.4927 20.7385C6.39967 22.0758 4.87793 22.9941 3.18533 23.3377ZM1.2701 30.4799L1.04328 30.7067L1.2701 30.4799C0.744999 29.9548 0.45 29.2426 0.45 28.5V23.6569C0.452463 23.0114 0.67633 22.3863 1.08422 21.886C1.49209 21.3857 2.05926 21.0405 2.69099 20.9081C3.81965 20.674 4.83316 20.0581 5.56077 19.1641C6.28839 18.2701 6.68566 17.1527 6.68566 16C6.68566 14.8473 6.28839 13.7299 5.56077 12.8359C4.83316 11.9419 3.81965 11.326 2.69099 11.0919L2.625 11.4102L2.69161 11.0921C2.05963 10.9597 1.49222 10.6145 1.08422 10.114C0.67633 9.61373 0.452463 8.98863 0.45 8.34314V3.5C0.45 2.75739 0.744999 2.0452 1.2701 1.5201C1.7952 0.994999 2.50739 0.7 3.25 0.7H40.75C41.4926 0.7 42.2048 0.994999 42.7299 1.5201C43.255 2.0452 43.55 2.75739 43.55 3.5L43.55 8.34258C43.55 8.34291 43.55 8.34325 43.55 8.34358C43.5474 8.98891 43.3236 9.61384 42.9158 10.114C42.5078 10.6144 41.9405 10.9596 41.3087 11.092C40.1801 11.3261 39.1668 11.942 38.4392 12.8359C37.7116 13.7299 37.3143 14.8473 37.3143 16C37.3143 17.1527 37.7116 18.2701 38.4392 19.1641C39.1668 20.0581 40.1803 20.674 41.309 20.9081C41.9407 21.0405 42.5079 21.3857 42.9158 21.886C43.3236 22.3862 43.5474 23.0111 43.55 23.6564C43.55 23.6568 43.55 23.6571 43.55 23.6574L43.55 28.5C43.55 29.2426 43.255 29.9548 42.7299 30.4799C42.2048 31.005 41.4926 31.3 40.75 31.3H3.25C2.50739 31.3 1.7952 31.005 1.2701 30.4799ZM41.075 23.6562V23.3906L40.8147 23.3377C39.1221 22.9941 37.6003 22.0758 36.5073 20.7385C35.4143 19.4012 34.8172 17.7271 34.8172 16C34.8172 14.2729 35.4143 12.5988 36.5073 11.2615C37.6003 9.92424 39.1221 9.00595 40.8147 8.66225L41.075 8.60939V8.34375V3.5V3.175H40.75H17.3125H16.9875V3.5V28.5V28.825H17.3125H40.75H41.075V28.5V23.6562Z" fill="#8B8A98" stroke="#8B8A98" stroke-width="0.65"/>
</svg>
