<svg width="67" height="67" viewBox="0 0 67 67" fill="none" xmlns="http://www.w3.org/2000/svg">
<path d="M51.2799 24.7675C50.0264 25.3372 48.6753 25.7117 47.2753 25.8907C48.7079 25.0279 49.8148 23.6605 50.3357 22.0164C48.9846 22.8303 47.4869 23.4001 45.9079 23.7256C44.6219 22.3257 42.8149 21.5117 40.7638 21.5117C36.9383 21.5117 33.8127 24.6373 33.8127 28.4953C33.8127 29.0488 33.8779 29.586 33.9918 30.0907C28.1965 29.7976 23.0362 27.014 19.6013 22.7977C18.999 23.8233 18.6571 25.0279 18.6571 26.2977C18.6571 28.7232 19.8781 30.872 21.7664 32.093C20.6106 32.093 19.5362 31.7674 18.592 31.279V31.3279C18.592 34.7138 21.0013 37.5464 24.1919 38.1812C23.1676 38.4616 22.0921 38.5006 21.0501 38.2952C21.4923 39.6829 22.3582 40.8972 23.5262 41.7674C24.6941 42.6375 26.1054 43.1197 27.5617 43.1463C25.0932 45.1005 22.0334 46.1568 18.885 46.1416C18.3316 46.1416 17.7781 46.109 17.2246 46.0439C20.3176 48.0299 23.9966 49.1857 27.9361 49.1857C40.7638 49.1857 47.8125 38.5394 47.8125 29.3093C47.8125 29 47.8125 28.707 47.7962 28.3977C49.1637 27.4209 50.3357 26.1837 51.2799 24.7675Z" fill="white"/>
<circle cx="33.5" cy="33.5" r="33" stroke="#EA9528"/>
</svg>
