<svg width="37" height="31" viewBox="0 0 37 31" fill="none" xmlns="http://www.w3.org/2000/svg">
<path d="M35.9723 2.41859V2.428L35.9728 2.43739C36.0306 3.6321 35.8494 4.82634 35.4397 5.95009C35.03 7.07384 34.4 8.10449 33.5868 8.98162L33.4821 9.09463L33.4828 9.24873L33.4845 9.57119C33.4845 9.57165 33.4844 9.5721 33.4844 9.57255C33.4814 11.541 33.194 13.4987 32.6314 15.385L32.6313 15.385L32.6293 15.3921C31.4256 19.7235 28.8241 23.5357 25.2296 26.2357C21.6351 28.9356 17.2491 30.372 12.7538 30.3214V30.3214L12.7494 30.3214C8.78436 30.3223 4.90301 29.1811 1.56942 27.0344C1.33421 26.8829 1.15742 26.656 1.06802 26.3908C0.978619 26.1257 0.981898 25.8381 1.07732 25.575C1.17275 25.312 1.35466 25.0892 1.59327 24.9431C1.83188 24.7969 2.11304 24.7361 2.39069 24.7707L2.3919 24.7708C4.43026 25.0179 6.49808 24.7598 8.41321 24.0194L9.17543 23.7247L8.46692 23.3175C6.72505 22.3164 5.41947 20.7013 4.80568 18.7883L4.80549 18.7877C4.7552 18.6318 4.73651 18.4675 4.7505 18.3043C4.76448 18.1411 4.81087 17.9823 4.88695 17.8373L5.02274 17.5784L4.81236 17.3755C3.40459 16.0173 2.54057 14.1923 2.3823 12.2426L2.38147 12.2323L2.38009 12.2221C2.35078 12.0044 2.33728 11.7848 2.33968 11.565H2.33972L2.3397 11.5596C2.33904 11.3365 2.39574 11.117 2.50434 10.9222C2.61035 10.7319 2.76234 10.5714 2.94632 10.4553L3.26696 10.295L3.11523 9.95427C2.59176 8.77862 2.35294 7.49609 2.41816 6.21082C2.48338 4.92555 2.85081 3.67378 3.49059 2.55716L3.49083 2.55675C3.59014 2.38293 3.73028 2.23589 3.89913 2.12834C4.06761 2.02103 4.25962 1.95625 4.45865 1.93956C4.65857 1.92463 4.85916 1.95784 5.04362 2.0364C5.22816 2.115 5.39116 2.2367 5.51896 2.39129C8.36189 5.87837 12.3888 8.19717 16.8318 8.90554L17.2687 8.97519L17.283 8.533C17.351 6.42971 18.2336 4.43515 19.7446 2.97045C21.2556 1.50575 23.2767 0.685548 25.381 0.683027L25.382 0.683024C27.299 0.675913 29.1545 1.35894 30.6094 2.60726L30.766 2.74165L30.9652 2.68773C32.0684 2.38919 33.1256 1.9413 34.1075 1.35649C34.295 1.24532 34.5086 1.18576 34.7265 1.18386C34.9445 1.18195 35.1591 1.23778 35.3485 1.34566L35.5412 1.0074L35.3485 1.34566C35.5379 1.45353 35.6954 1.60963 35.805 1.79808C35.9146 1.98652 35.9723 2.20061 35.9723 2.41859ZM19.1913 11.4674C19.0161 11.5445 18.8258 11.581 18.6346 11.5741L4.87633 6.62972C4.87283 7.55303 5.09835 8.4628 5.53271 9.27757C5.96719 10.0926 6.59704 10.787 7.36584 11.2988L7.36637 11.2991C7.59022 11.4476 7.75955 11.6651 7.8487 11.9185C7.93753 12.171 7.94191 12.4455 7.86123 12.7006C7.77547 12.9549 7.61124 13.1753 7.39216 13.3303C7.17312 13.4852 6.91059 13.5667 6.64237 13.5629C6.36059 13.5536 6.07948 13.5298 5.80014 13.4916L5.07385 13.3924L5.39736 14.0501C5.77656 14.8211 6.32848 15.4943 7.0102 16.0173C7.69193 16.5402 8.48508 16.8989 9.328 17.0654L9.32813 17.0654C9.60026 17.1191 9.8464 17.2628 10.0269 17.4733C10.2074 17.6839 10.3118 17.9491 10.3232 18.2263C10.3346 18.5034 10.2524 18.7763 10.0898 19.001C9.92722 19.2257 9.69373 19.3892 9.42693 19.465L9.42666 19.4651C9.19869 19.5301 8.96934 19.5842 8.73858 19.6275L8.01021 19.764L8.53519 20.2871C9.56382 21.3119 10.9501 21.8973 12.4019 21.9201C12.657 21.9242 12.9046 22.0072 13.1106 22.1577L13.3406 21.8427L13.1106 22.1577C13.3166 22.3081 13.4709 22.5187 13.5524 22.7605C13.6339 23.0022 13.6385 23.2633 13.5656 23.5077C13.4928 23.7522 13.346 23.968 13.1455 24.1257C11.7508 25.22 10.1732 26.0586 8.486 26.6027L7.16315 27.0293L8.51484 27.3532C9.90056 27.6852 11.3205 27.8529 12.7454 27.853C16.7181 27.9345 20.6033 26.681 23.7792 24.2929C26.9546 21.9052 29.2372 18.5214 30.262 14.683C30.7575 13.0246 31.0109 11.3034 31.0145 9.57257V9.57178C31.0145 9.55033 31.0145 9.52866 31.0145 9.50676C31.0146 9.27269 31.0148 9.01392 30.9991 8.75568C30.9806 8.44245 31.0827 8.13408 31.2844 7.89392C31.9739 7.12348 32.5537 6.26165 33.0077 5.33278L33.4192 4.49094L32.5319 4.79224C31.9047 5.00525 31.2637 5.17554 30.6134 5.30194L30.6118 5.30226C30.407 5.34296 30.1952 5.33059 29.9966 5.26631C29.7979 5.20204 29.6191 5.08802 29.4769 4.9351C28.9543 4.37107 28.3203 3.9215 27.6152 3.61477C26.9099 3.30802 26.1488 3.1508 25.3798 3.15303C23.8868 3.15496 22.4556 3.74889 21.3999 4.80457C20.3441 5.86034 19.7502 7.29172 19.7483 8.78479L19.7483 8.78615C19.7493 9.21505 19.8002 9.64237 19.9001 10.0595C19.9431 10.2451 19.9425 10.4382 19.8985 10.6235C19.8545 10.8088 19.7682 10.9814 19.6465 11.1277C19.5224 11.2739 19.3668 11.39 19.1913 11.4674Z" fill="#ABAAB4" stroke="#2C2B44" stroke-width="0.78"/>
</svg>
