<svg width="16" height="9" viewBox="0 0 16 9" fill="none" xmlns="http://www.w3.org/2000/svg">
<path d="M14.8248 2.15614L8.5248 8.47489C8.4498 8.54989 8.36855 8.60314 8.28105 8.63464C8.19355 8.66614 8.0998 8.68164 7.9998 8.68114C7.8998 8.68114 7.80605 8.66539 7.71855 8.63389C7.63105 8.60239 7.5498 8.54939 7.4748 8.47489L1.15605 2.15614C0.981055 1.98114 0.893555 1.76239 0.893555 1.49989C0.893555 1.23739 0.987305 1.01239 1.1748 0.824891C1.3623 0.637391 1.58105 0.543641 1.83105 0.543641C2.08105 0.543641 2.2998 0.637391 2.4873 0.824891L7.9998 6.33739L13.5123 0.824891C13.6873 0.649891 13.9031 0.562391 14.1596 0.562391C14.4161 0.562391 14.6378 0.656141 14.8248 0.843641C15.0123 1.03114 15.1061 1.24989 15.1061 1.49989C15.1061 1.74989 15.0123 1.96864 14.8248 2.15614Z" fill="#1F1C2D"/>
</svg>
