<svg width="40" height="40" viewBox="0 0 40 40" fill="none" xmlns="http://www.w3.org/2000/svg">
<path opacity="0.2" d="M39.8915 20.0009C39.8915 30.9885 30.9846 39.8957 19.9972 39.8957C9.00961 39.8957 0.102539 30.9885 0.102539 20.0009C0.102539 9.01351 9.00961 0.106445 19.9972 0.106445C30.9845 0.106445 39.8915 9.01351 39.8915 20.0009" fill="#00A478"/>
<path d="M17.9579 19.6523V16.1719H13.2373V13.1211H26.4285V16.2148H21.7079V19.6523H17.9579Z" fill="#00A478"/>
<path fill-rule="evenodd" clip-rule="evenodd" d="M11.207 20.0391C11.207 18.8789 15.0011 17.9336 19.7217 17.9336C24.4423 17.9336 28.2364 18.8789 28.2364 20.0391C28.2364 21.1992 24.4423 22.1445 19.7217 22.1445C15.0011 22.1445 11.207 21.1992 11.207 20.0391ZM27.5305 20.0391C27.2216 19.6094 24.6628 18.2774 19.7216 18.2774C14.7805 18.2774 12.2216 19.5665 11.9128 20.0391C12.2216 20.4688 14.7805 21.1134 19.7216 21.1134C24.7069 21.1134 27.2216 20.4688 27.5305 20.0391Z" fill="#00A478"/>
<path d="M21.7069 20.7266V18.3203C21.0892 18.2773 20.4274 18.2344 19.7657 18.2344C19.148 18.2344 18.5745 18.2344 18.001 18.2773V20.6836C18.5304 20.6836 19.148 20.7266 19.7657 20.7266C20.4274 20.7695 21.0892 20.7695 21.7069 20.7266Z" fill="#00A478"/>
<path d="M19.7217 22.1436C19.1041 22.1436 18.5306 22.1436 17.957 22.1006V28.5029H21.6629V22.0576C21.0453 22.1006 20.3835 22.1436 19.7217 22.1436Z" fill="#00A478"/>
</svg>
