<svg width="36" height="36" viewBox="0 0 36 36" fill="none" xmlns="http://www.w3.org/2000/svg">
<path opacity="0.2" d="M35.9029 17.9998C35.9029 27.8886 27.8866 35.905 17.9979 35.905C8.10914 35.905 0.0927734 27.8886 0.0927734 17.9998C0.0927734 8.11109 8.10914 0.0947266 17.9979 0.0947266C27.8865 0.0947266 35.9029 8.11109 35.9029 17.9998" fill="#00A478"/>
<path d="M16.1606 17.6867V14.5543H11.9121V11.8086H23.7842V14.593H19.5356V17.6867H16.1606Z" fill="#00A478"/>
<path fill-rule="evenodd" clip-rule="evenodd" d="M10.0859 18.0355C10.0859 16.9914 13.5006 16.1406 17.7492 16.1406C21.9977 16.1406 25.4124 16.9914 25.4124 18.0355C25.4124 19.0797 21.9977 19.9305 17.7492 19.9305C13.5006 19.9305 10.0859 19.0797 10.0859 18.0355ZM24.7768 18.0354C24.4988 17.6487 22.1959 16.4499 17.7488 16.4499C13.3018 16.4499 10.9988 17.6101 10.7209 18.0354C10.9988 18.4222 13.3018 19.0022 17.7488 19.0022C22.2356 19.0022 24.4988 18.4222 24.7768 18.0354Z" fill="#00A478"/>
<path d="M19.5374 18.6531V16.4875C18.9816 16.4488 18.386 16.4102 17.7904 16.4102C17.2345 16.4102 16.7183 16.4102 16.2021 16.4488V18.6145C16.6786 18.6145 17.2345 18.6531 17.7904 18.6531C18.386 18.6918 18.9816 18.6918 19.5374 18.6531Z" fill="#00A478"/>
<path d="M17.7503 19.9289C17.1945 19.9289 16.6783 19.9289 16.1621 19.8902V25.6523H19.4974V19.8516C18.9415 19.8902 18.3459 19.9289 17.7503 19.9289Z" fill="#00A478"/>
</svg>
