<svg width="32" height="31" viewBox="0 0 32 31" fill="none" xmlns="http://www.w3.org/2000/svg">
<path d="M3.22668 15.6113C3.22668 8.61404 8.90566 2.93505 15.9029 2.93505C22.9001 2.93505 28.5791 8.61404 28.5791 15.6113C28.5791 22.6085 22.9001 28.2875 15.9029 28.2875C8.90566 28.2875 3.22668 22.6085 3.22668 15.6113ZM5.53144 15.6113C5.53144 21.3287 10.1855 25.9827 15.9029 25.9827C21.6203 25.9827 26.2744 21.3287 26.2744 15.6113C26.2744 9.89388 21.6203 5.23982 15.9029 5.23982C10.1855 5.23982 5.53144 9.89388 5.53144 15.6113ZM13.4701 10.1054L20.8112 15.6113L13.4701 21.1171V10.1054Z" fill="#EA9528" stroke="#2C2B44" stroke-width="0.256085"/>
</svg>
