<svg width="23" height="22" viewBox="0 0 23 22" fill="none" xmlns="http://www.w3.org/2000/svg">
<path d="M6.87122 20.8543C4.59039 20.8543 2.72168 19.2685 2.72168 17.316V15.4459C2.72168 15.0701 3.04751 14.7584 3.44043 14.7584C3.83335 14.7584 4.15918 15.0701 4.15918 15.4459C4.15918 16.5918 5.31872 17.4534 6.87122 17.4534C8.42372 17.4534 9.58332 16.5918 9.58332 15.4459C9.58332 15.0701 9.90915 14.7584 10.3021 14.7584C10.695 14.7584 11.0208 15.0701 11.0208 15.4459V17.316C11.0208 19.2685 9.16164 20.8543 6.87122 20.8543ZM4.4083 18.2143C4.82996 18.9659 5.77872 19.4793 6.87122 19.4793C7.96372 19.4793 8.91248 18.9568 9.33414 18.2143C8.65373 18.6084 7.81039 18.8376 6.87122 18.8376C5.93205 18.8376 5.08871 18.6084 4.4083 18.2143Z" fill="#EA9528"/>
<path d="M6.87122 16.3168C5.29955 16.3168 3.89084 15.6293 3.19125 14.5385C2.88459 14.0618 2.72168 13.5027 2.72168 12.9343C2.72168 11.9718 3.1625 11.0735 3.9675 10.4043C5.52 9.10265 8.19373 9.1027 9.75581 10.3952C10.5608 11.0735 11.0112 11.9718 11.0112 12.9343C11.0112 13.5027 10.8483 14.0618 10.5417 14.5385C9.85165 15.6293 8.44289 16.3168 6.87122 16.3168ZM6.87122 10.771C6.12372 10.771 5.43374 11.0093 4.91624 11.4402C4.42749 11.8435 4.15918 12.3752 4.15918 12.9343C4.15918 13.2552 4.24539 13.5485 4.41789 13.8235C4.85872 14.5202 5.79789 14.951 6.87122 14.951C7.94455 14.951 8.88371 14.5202 9.31496 13.8327C9.48746 13.5669 9.57373 13.2643 9.57373 12.9435C9.57373 12.3843 9.30542 11.8527 8.81667 11.4402C8.30875 11.0093 7.61872 10.771 6.87122 10.771Z" fill="#EA9528"/>
<path d="M6.87122 18.8377C4.50414 18.8377 2.72168 17.3802 2.72168 15.4552V12.9344C2.72168 10.9819 4.5808 9.39606 6.87122 9.39606C7.95414 9.39606 8.98916 9.75358 9.76541 10.3952C10.5704 11.0736 11.0208 11.9719 11.0208 12.9344V15.4552C11.0208 17.3802 9.2383 18.8377 6.87122 18.8377ZM6.87122 10.7711C5.37622 10.7711 4.15918 11.7427 4.15918 12.9344V15.4552C4.15918 16.601 5.31872 17.4627 6.87122 17.4627C8.42372 17.4627 9.58332 16.601 9.58332 15.4552V12.9344C9.58332 12.3752 9.31501 11.8435 8.82626 11.431C8.30876 11.0094 7.61872 10.7711 6.87122 10.7711Z" fill="#EA9528"/>
<path d="M18.2462 13.5666C16.7991 13.5666 15.5725 12.5399 15.4575 11.2199C15.3808 10.4591 15.6683 9.71662 16.2433 9.17579C16.7225 8.69912 17.4029 8.43329 18.1216 8.43329H20.1246C21.0733 8.46079 21.8017 9.17575 21.8017 10.0558V11.9441C21.8017 12.8241 21.0734 13.5391 20.1534 13.5666H18.2462ZM20.0958 9.80829H18.1312C17.7958 9.80829 17.4892 9.92745 17.2688 10.1475C16.9909 10.4041 16.8567 10.7524 16.895 11.1008C16.9429 11.7058 17.5562 12.1916 18.2462 12.1916H20.1246C20.2492 12.1916 20.3642 12.0816 20.3642 11.9441V10.0558C20.3642 9.91825 20.2491 9.81746 20.0958 9.80829Z" fill="#EA9528"/>
<path d="M15.3335 19.4794H12.9377C12.5447 19.4794 12.2189 19.1677 12.2189 18.7919C12.2189 18.4161 12.5447 18.1044 12.9377 18.1044H15.3335C17.806 18.1044 19.4064 16.5736 19.4064 14.2086V13.5669H18.2468C16.7997 13.5669 15.5731 12.5402 15.4581 11.2202C15.3814 10.4594 15.6689 9.7169 16.2439 9.17607C16.7231 8.6994 17.4035 8.43357 18.1222 8.43357H19.3968V7.79189C19.3968 5.64689 18.0839 4.17104 15.9564 3.9327C15.7264 3.89604 15.5251 3.89606 15.3239 3.89606H6.69889C6.46889 3.89606 6.24846 3.91438 6.02805 3.94188C3.91971 4.19855 2.62598 5.66522 2.62598 7.79189V9.62522C2.62598 10.0011 2.30014 10.3127 1.90723 10.3127C1.51431 10.3127 1.18848 10.0011 1.18848 9.62522V7.79189C1.18848 4.96856 3.00934 2.9244 5.83643 2.58523C6.09518 2.54856 6.39223 2.52106 6.69889 2.52106H15.3239C15.5539 2.52106 15.851 2.53022 16.1576 2.57605C18.9847 2.88772 20.8343 4.94106 20.8343 7.79189V9.12107C20.8343 9.4969 20.5085 9.80857 20.1156 9.80857H18.1222C17.7868 9.80857 17.4802 9.92773 17.2597 10.1477C16.9818 10.4044 16.8476 10.7527 16.886 11.101C16.9339 11.706 17.5473 12.1919 18.2373 12.1919H20.1252C20.5181 12.1919 20.8439 12.5035 20.8439 12.8794V14.2086C20.8439 17.3619 18.6302 19.4794 15.3335 19.4794Z" fill="#EA9528"/>
</svg>
