<svg width="67" height="67" viewBox="0 0 67 67" fill="none" xmlns="http://www.w3.org/2000/svg">
<circle cx="33.5" cy="33.5" r="33" stroke="#EA9528"/>
<path d="M19.8397 48.1673L21.755 41.1293C20.4929 38.9659 19.8299 36.5053 19.834 34.0007C19.834 26.1764 26.1764 19.834 34.0007 19.834C41.8249 19.834 48.1673 26.1764 48.1673 34.0007C48.1673 41.8249 41.8249 48.1673 34.0007 48.1673C31.4971 48.1714 29.0376 47.5088 26.8748 46.2477L19.8397 48.1673ZM28.8879 27.3537C28.705 27.365 28.5262 27.4132 28.3623 27.4953C28.2087 27.5823 28.0684 27.6911 27.9458 27.8183C27.7758 27.9784 27.6795 28.1172 27.5761 28.2518C27.0525 28.9332 26.7709 29.7697 26.7757 30.629C26.7785 31.3232 26.9598 31.9989 27.2432 32.6307C27.8226 33.9086 28.776 35.2615 30.0354 36.5152C30.3386 36.817 30.6347 37.1202 30.9534 37.4021C32.5166 38.7783 34.3793 39.7708 36.3934 40.3006L37.1995 40.4238C37.4616 40.438 37.7237 40.4182 37.9872 40.4054C38.3998 40.3841 38.8026 40.2724 39.1673 40.0782C39.3528 39.9826 39.5338 39.8786 39.7098 39.7665C39.7098 39.7665 39.7708 39.7268 39.8869 39.639C40.0782 39.4973 40.1958 39.3967 40.3544 39.231C40.472 39.1092 40.574 38.9661 40.6519 38.8032C40.7624 38.5722 40.8729 38.1317 40.9183 37.7647C40.9523 37.4842 40.9423 37.3312 40.9381 37.2363C40.9324 37.0847 40.8063 36.9275 40.6689 36.8609L39.8444 36.4912C39.8444 36.4912 38.6119 35.9542 37.8597 35.6114C37.7804 35.5768 37.6954 35.5571 37.6089 35.5533C37.512 35.5434 37.4141 35.5543 37.3217 35.5853C37.2293 35.6163 37.1447 35.6668 37.0734 35.7332V35.7304C37.0663 35.7304 36.9714 35.8112 35.9472 37.0522C35.8884 37.1311 35.8074 37.1908 35.7146 37.2236C35.6217 37.2564 35.5212 37.2609 35.4258 37.2363C35.3335 37.2116 35.2431 37.1804 35.1553 37.1428C34.9796 37.0692 34.9187 37.0408 34.7983 36.9884L34.7912 36.9856C33.9807 36.6317 33.2303 36.1538 32.567 35.5689C32.3885 35.4131 32.2228 35.2431 32.0528 35.0787C31.4954 34.545 31.0097 33.9412 30.6078 33.2824L30.5242 33.1478C30.4641 33.0574 30.4156 32.9598 30.3797 32.8574C30.3258 32.6492 30.4661 32.482 30.4661 32.482C30.4661 32.482 30.8103 32.1052 30.9704 31.9012C31.1037 31.7316 31.2281 31.5552 31.343 31.3727C31.5102 31.1036 31.5626 30.8273 31.4748 30.6134C31.0781 29.6444 30.6673 28.6797 30.2451 27.722C30.1615 27.5322 29.9136 27.3962 29.6883 27.3692C29.6118 27.3607 29.5353 27.3522 29.4588 27.3466C29.2686 27.3371 29.0779 27.3404 28.8879 27.3537Z" fill="white"/>
</svg>
