<svg width="67" height="67" viewBox="0 0 67 67" fill="none" xmlns="http://www.w3.org/2000/svg">
<circle cx="33.5" cy="33.5" r="33" stroke="#EA9528"/>
<path d="M31.1673 38.2507L38.5198 34.0007L31.1673 29.7507V38.2507ZM47.544 27.1582C47.7282 27.824 47.8557 28.7165 47.9407 29.8498C48.0398 30.9832 48.0823 31.9607 48.0823 32.8107L48.1673 34.0007C48.1673 37.1032 47.9407 39.384 47.544 40.8432C47.1898 42.1182 46.3682 42.9398 45.0932 43.294C44.4273 43.4782 43.209 43.6057 41.339 43.6907C39.4973 43.7898 37.8115 43.8323 36.2532 43.8323L34.0007 43.9173C28.0648 43.9173 24.3673 43.6907 22.9082 43.294C21.6332 42.9398 20.8115 42.1182 20.4573 40.8432C20.2732 40.1773 20.1457 39.2848 20.0607 38.1515C19.9615 37.0182 19.919 36.0407 19.919 35.1907L19.834 34.0007C19.834 30.8982 20.0607 28.6173 20.4573 27.1582C20.8115 25.8832 21.6332 25.0615 22.9082 24.7073C23.574 24.5232 24.7923 24.3957 26.6623 24.3107C28.504 24.2115 30.1898 24.169 31.7482 24.169L34.0007 24.084C39.9365 24.084 43.634 24.3107 45.0932 24.7073C46.3682 25.0615 47.1898 25.8832 47.544 27.1582Z" fill="white"/>
</svg>
